M48
; DRILL file {KiCad 5.1.4+dfsg1-1~bpo10+1} date Tue 09 May 2023 01:13:11 BST
; FORMAT={-:-/ absolute / inch / decimal}
; #@! TF.CreationDate,2023-05-09T01:13:11+01:00
; #@! TF.GenerationSoftware,Kicad,Pcbnew,5.1.4+dfsg1-1~bpo10+1
; #@! TF.FileFunction,Plated,1,2,PTH
FMAT,2
INCH
T1C0.0315
T2C0.0354
T3C0.0394
T4C0.0433
T5C0.0591
%
G90
G05
T1
X4.3945Y-3.3425
X4.3945Y-3.7425
X5.465Y-4.2752
X5.865Y-4.2752
X5.4673Y-4.0087
X5.8673Y-4.0087
X5.5909Y-3.502
X5.7878Y-3.502
X5.8366Y-3.1976
X5.8366Y-3.3976
X5.9366Y-3.2976
X5.9591Y-3.5563
X6.3591Y-3.5563
X4.9815Y-3.8325
X5.3815Y-3.8325
X4.8272Y-3.9811
X4.8272Y-4.0795
X4.5445Y-4.022
X4.6445Y-3.922
X4.6445Y-4.122
X5.9543Y-3.2035
X6.3543Y-3.2035
X5.2831Y-4.1724
X5.2831Y-4.3724
X5.3831Y-4.2724
X5.9587Y-3.7083
X6.3587Y-3.7083
X5.5886Y-3.2992
X5.6886Y-3.1992
X5.6886Y-3.3992
X4.5311Y-3.4748
X4.6295Y-3.4748
X4.9815Y-3.713
X5.3815Y-3.713
X4.5776Y-3.6421
X4.5776Y-3.8421
X4.6776Y-3.7421
X5.4673Y-3.8894
X5.8673Y-3.8894
X6.5626Y-3.0327
X6.5626Y-3.1311
X4.9815Y-3.9521
X5.3815Y-3.9521
X5.465Y-4.1559
X5.865Y-4.1559
X4.8291Y-3.698
X4.8291Y-3.7965
X5.9591Y-3.4358
X6.3591Y-3.4358
X4.9815Y-4.0717
X5.3815Y-4.0717
X4.7673Y-3.2031
X4.7673Y-3.5031
X4.8673Y-3.2031
X4.8673Y-3.5031
X4.9673Y-3.2031
X4.9673Y-3.5031
X5.0673Y-3.2031
X5.0673Y-3.5031
X5.1673Y-3.2031
X5.1673Y-3.5031
X5.2673Y-3.2031
X5.2673Y-3.5031
X5.3673Y-3.2031
X5.3673Y-3.5031
X5.4673Y-3.2031
X5.4673Y-3.5031
T2
X5.4709Y-3.7563
X5.8709Y-3.7563
X5.4701Y-3.628
X5.8701Y-3.628
X5.9547Y-4.1333
X6.3547Y-4.1333
X5.0951Y-2.9642
X5.0951Y-3.0642
X5.9547Y-4.0056
X6.3547Y-4.0056
X4.5661Y-2.9642
X4.5661Y-3.0642
X4.9188Y-2.9642
X4.9188Y-3.0642
X4.2681Y-3.3386
X4.2681Y-3.7386
X5.8004Y-2.9642
X5.8004Y-3.0642
X5.9547Y-3.878
X6.3547Y-3.878
X5.2714Y-2.9642
X5.2714Y-3.0642
X4.7425Y-2.9642
X4.7425Y-3.0642
X5.9547Y-4.261
X6.3547Y-4.261
X6.0827Y-3.0327
X6.1811Y-3.0327
X6.2795Y-3.0327
X5.6241Y-2.9642
X5.6241Y-3.0642
X5.4478Y-2.9642
X5.4478Y-3.0642
T3
X4.8654Y-4.2693
X5.0622Y-4.1709
X5.0622Y-4.3677
T4
X4.4386Y-4.2358
X4.4386Y-4.413
X4.6945Y-4.2358
X4.6945Y-4.413
X4.2642Y-3.8465
X4.2642Y-4.1024
X4.4413Y-3.8465
X4.4413Y-4.1024
T5
X6.8933Y-3.0364
X6.8933Y-3.8431
T0
M30
