%FSLAX45Y45*%
G04 Gerber Fmt 4.5, Leading zero omitted, Abs format (unit mm)*
G04 Created by KiCad (PCBNEW 5.1.9+dfsg1-1~bpo10+1~rpt1) date 2023-12-07 15:41:52*
%MOMM*%
%LPD*%
G01*
G04 APERTURE LIST*
%TA.AperFunction,Profile*%
%ADD10C,0.050000*%
%TD*%
%ADD11C,0.200000*%
%ADD12C,0.300000*%
G04 APERTURE END LIST*
D10*
X18800000Y-11600000D02*
X18800000Y-7000000D01*
X10500000Y-11600000D02*
X18800000Y-11600000D01*
X10500000Y-7000000D02*
X10500000Y-11600000D01*
X18800000Y-7000000D02*
X10500000Y-7000000D01*
D11*
X11122000Y-8450000D02*
X11202000Y-8530000D01*
X11202000Y-8450000D02*
X11122000Y-8530000D01*
X11122000Y-9466000D02*
X11202000Y-9546000D01*
X11202000Y-9466000D02*
X11122000Y-9546000D01*
X11469000Y-8786000D02*
X11549000Y-8866000D01*
X11549000Y-8786000D02*
X11469000Y-8866000D01*
X11503000Y-10176000D02*
X11583000Y-10256000D01*
X11583000Y-10176000D02*
X11503000Y-10256000D01*
X11587000Y-9211000D02*
X11667000Y-9291000D01*
X11667000Y-9211000D02*
X11587000Y-9291000D01*
X11587000Y-9719000D02*
X11667000Y-9799000D01*
X11667000Y-9719000D02*
X11587000Y-9799000D01*
X11719000Y-8786000D02*
X11799000Y-8866000D01*
X11799000Y-8786000D02*
X11719000Y-8866000D01*
X11757000Y-9922000D02*
X11837000Y-10002000D01*
X11837000Y-9922000D02*
X11757000Y-10002000D01*
X11757000Y-10430000D02*
X11837000Y-10510000D01*
X11837000Y-10430000D02*
X11757000Y-10510000D01*
X11841000Y-9465000D02*
X11921000Y-9545000D01*
X11921000Y-9465000D02*
X11841000Y-9545000D01*
X12069000Y-8096000D02*
X12149000Y-8176000D01*
X12149000Y-8096000D02*
X12069000Y-8176000D01*
X12069000Y-8858000D02*
X12149000Y-8938000D01*
X12149000Y-8858000D02*
X12069000Y-8938000D01*
X12221000Y-10072000D02*
X12301000Y-10152000D01*
X12301000Y-10072000D02*
X12221000Y-10152000D01*
X12221000Y-10322000D02*
X12301000Y-10402000D01*
X12301000Y-10322000D02*
X12221000Y-10402000D01*
X12226000Y-9353000D02*
X12306000Y-9433000D01*
X12306000Y-9353000D02*
X12226000Y-9433000D01*
X12226000Y-9603000D02*
X12306000Y-9683000D01*
X12306000Y-9603000D02*
X12226000Y-9683000D01*
X12323000Y-8096000D02*
X12403000Y-8176000D01*
X12403000Y-8096000D02*
X12323000Y-8176000D01*
X12323000Y-8858000D02*
X12403000Y-8938000D01*
X12403000Y-8858000D02*
X12323000Y-8938000D01*
X12577000Y-8096000D02*
X12657000Y-8176000D01*
X12657000Y-8096000D02*
X12577000Y-8176000D01*
X12577000Y-8858000D02*
X12657000Y-8938000D01*
X12657000Y-8858000D02*
X12577000Y-8938000D01*
X12613000Y-9391000D02*
X12693000Y-9471000D01*
X12693000Y-9391000D02*
X12613000Y-9471000D01*
X12613000Y-9694667D02*
X12693000Y-9774667D01*
X12693000Y-9694667D02*
X12613000Y-9774667D01*
X12613000Y-9998333D02*
X12693000Y-10078333D01*
X12693000Y-9998333D02*
X12613000Y-10078333D01*
X12613000Y-10302000D02*
X12693000Y-10382000D01*
X12693000Y-10302000D02*
X12613000Y-10382000D01*
X12831000Y-8096000D02*
X12911000Y-8176000D01*
X12911000Y-8096000D02*
X12831000Y-8176000D01*
X12831000Y-8858000D02*
X12911000Y-8938000D01*
X12911000Y-8858000D02*
X12831000Y-8938000D01*
X13085000Y-8096000D02*
X13165000Y-8176000D01*
X13165000Y-8096000D02*
X13085000Y-8176000D01*
X13085000Y-8858000D02*
X13165000Y-8938000D01*
X13165000Y-8858000D02*
X13085000Y-8938000D01*
X13339000Y-8096000D02*
X13419000Y-8176000D01*
X13419000Y-8096000D02*
X13339000Y-8176000D01*
X13339000Y-8858000D02*
X13419000Y-8938000D01*
X13419000Y-8858000D02*
X13339000Y-8938000D01*
X13379000Y-10558000D02*
X13459000Y-10638000D01*
X13459000Y-10558000D02*
X13379000Y-10638000D01*
X13379000Y-11066000D02*
X13459000Y-11146000D01*
X13459000Y-11066000D02*
X13379000Y-11146000D01*
X13593000Y-8096000D02*
X13673000Y-8176000D01*
X13673000Y-8096000D02*
X13593000Y-8176000D01*
X13593000Y-8858000D02*
X13673000Y-8938000D01*
X13673000Y-8858000D02*
X13593000Y-8938000D01*
X13629000Y-9391000D02*
X13709000Y-9471000D01*
X13709000Y-9391000D02*
X13629000Y-9471000D01*
X13629000Y-9694667D02*
X13709000Y-9774667D01*
X13709000Y-9694667D02*
X13629000Y-9774667D01*
X13629000Y-9998333D02*
X13709000Y-10078333D01*
X13709000Y-9998333D02*
X13629000Y-10078333D01*
X13629000Y-10302000D02*
X13709000Y-10382000D01*
X13709000Y-10302000D02*
X13629000Y-10382000D01*
X13633000Y-10812000D02*
X13713000Y-10892000D01*
X13713000Y-10812000D02*
X13633000Y-10892000D01*
X13841000Y-10516000D02*
X13921000Y-10596000D01*
X13921000Y-10516000D02*
X13841000Y-10596000D01*
X13841000Y-10819000D02*
X13921000Y-10899000D01*
X13921000Y-10819000D02*
X13841000Y-10899000D01*
X13847000Y-8096000D02*
X13927000Y-8176000D01*
X13927000Y-8096000D02*
X13847000Y-8176000D01*
X13847000Y-8858000D02*
X13927000Y-8938000D01*
X13927000Y-8858000D02*
X13847000Y-8938000D01*
X13847000Y-9839000D02*
X13927000Y-9919000D01*
X13927000Y-9839000D02*
X13847000Y-9919000D01*
X13847000Y-10142000D02*
X13927000Y-10222000D01*
X13927000Y-10142000D02*
X13847000Y-10222000D01*
X14155000Y-8340000D02*
X14235000Y-8420000D01*
X14235000Y-8340000D02*
X14155000Y-8420000D01*
X14161000Y-8855000D02*
X14241000Y-8935000D01*
X14241000Y-8855000D02*
X14161000Y-8935000D01*
X14409000Y-8086000D02*
X14489000Y-8166000D01*
X14489000Y-8086000D02*
X14409000Y-8166000D01*
X14409000Y-8594000D02*
X14489000Y-8674000D01*
X14489000Y-8594000D02*
X14409000Y-8674000D01*
X14661000Y-8855000D02*
X14741000Y-8935000D01*
X14741000Y-8855000D02*
X14661000Y-8935000D01*
X14785000Y-8082000D02*
X14865000Y-8162000D01*
X14865000Y-8082000D02*
X14785000Y-8162000D01*
X14785000Y-8590000D02*
X14865000Y-8670000D01*
X14865000Y-8590000D02*
X14785000Y-8670000D01*
X14857000Y-10516000D02*
X14937000Y-10596000D01*
X14937000Y-10516000D02*
X14857000Y-10596000D01*
X14857000Y-10819000D02*
X14937000Y-10899000D01*
X14937000Y-10819000D02*
X14857000Y-10899000D01*
X14863000Y-9839000D02*
X14943000Y-9919000D01*
X14943000Y-9839000D02*
X14863000Y-9919000D01*
X14863000Y-10142000D02*
X14943000Y-10222000D01*
X14943000Y-10142000D02*
X14863000Y-10222000D01*
X15039000Y-8336000D02*
X15119000Y-8416000D01*
X15119000Y-8336000D02*
X15039000Y-8416000D01*
X15084000Y-8097000D02*
X15164000Y-8177000D01*
X15164000Y-8097000D02*
X15084000Y-8177000D01*
X15095000Y-9379000D02*
X15175000Y-9459000D01*
X15175000Y-9379000D02*
X15095000Y-9459000D01*
X15096000Y-8687000D02*
X15176000Y-8767000D01*
X15176000Y-8687000D02*
X15096000Y-8767000D01*
X15096000Y-8993000D02*
X15176000Y-9073000D01*
X15176000Y-8993000D02*
X15096000Y-9073000D01*
X16100000Y-8097000D02*
X16180000Y-8177000D01*
X16180000Y-8097000D02*
X16100000Y-8177000D01*
X16111000Y-9379000D02*
X16191000Y-9459000D01*
X16191000Y-9379000D02*
X16111000Y-9459000D01*
X16112000Y-8687000D02*
X16192000Y-8767000D01*
X16192000Y-8687000D02*
X16112000Y-8767000D01*
X16112000Y-8993000D02*
X16192000Y-9073000D01*
X16192000Y-8993000D02*
X16112000Y-9073000D01*
X16629000Y-7663000D02*
X16709000Y-7743000D01*
X16709000Y-7663000D02*
X16629000Y-7743000D01*
X16629000Y-7913000D02*
X16709000Y-7993000D01*
X16709000Y-7913000D02*
X16629000Y-7993000D01*
X10886000Y-8480000D02*
G75*
G03*
X10886000Y-8480000I-45000J0D01*
G01*
X10886000Y-9496000D02*
G75*
G03*
X10886000Y-9496000I-45000J0D01*
G01*
X11643000Y-7529000D02*
G75*
G03*
X11643000Y-7529000I-45000J0D01*
G01*
X11643000Y-7783000D02*
G75*
G03*
X11643000Y-7783000I-45000J0D01*
G01*
X12090857Y-7529000D02*
G75*
G03*
X12090857Y-7529000I-45000J0D01*
G01*
X12090857Y-7783000D02*
G75*
G03*
X12090857Y-7783000I-45000J0D01*
G01*
X12538714Y-7529000D02*
G75*
G03*
X12538714Y-7529000I-45000J0D01*
G01*
X12538714Y-7783000D02*
G75*
G03*
X12538714Y-7783000I-45000J0D01*
G01*
X12986572Y-7529000D02*
G75*
G03*
X12986572Y-7529000I-45000J0D01*
G01*
X12986572Y-7783000D02*
G75*
G03*
X12986572Y-7783000I-45000J0D01*
G01*
X13434429Y-7529000D02*
G75*
G03*
X13434429Y-7529000I-45000J0D01*
G01*
X13434429Y-7783000D02*
G75*
G03*
X13434429Y-7783000I-45000J0D01*
G01*
X13882286Y-7529000D02*
G75*
G03*
X13882286Y-7529000I-45000J0D01*
G01*
X13882286Y-7783000D02*
G75*
G03*
X13882286Y-7783000I-45000J0D01*
G01*
X13939000Y-9215000D02*
G75*
G03*
X13939000Y-9215000I-45000J0D01*
G01*
X13941000Y-9541000D02*
G75*
G03*
X13941000Y-9541000I-45000J0D01*
G01*
X14330143Y-7529000D02*
G75*
G03*
X14330143Y-7529000I-45000J0D01*
G01*
X14330143Y-7783000D02*
G75*
G03*
X14330143Y-7783000I-45000J0D01*
G01*
X14778000Y-7529000D02*
G75*
G03*
X14778000Y-7529000I-45000J0D01*
G01*
X14778000Y-7783000D02*
G75*
G03*
X14778000Y-7783000I-45000J0D01*
G01*
X14955000Y-9215000D02*
G75*
G03*
X14955000Y-9215000I-45000J0D01*
G01*
X14957000Y-9541000D02*
G75*
G03*
X14957000Y-9541000I-45000J0D01*
G01*
X15170000Y-9850000D02*
G75*
G03*
X15170000Y-9850000I-45000J0D01*
G01*
X15170000Y-10174333D02*
G75*
G03*
X15170000Y-10174333I-45000J0D01*
G01*
X15170000Y-10498667D02*
G75*
G03*
X15170000Y-10498667I-45000J0D01*
G01*
X15170000Y-10823000D02*
G75*
G03*
X15170000Y-10823000I-45000J0D01*
G01*
X15495000Y-7703000D02*
G75*
G03*
X15495000Y-7703000I-45000J0D01*
G01*
X15745000Y-7703000D02*
G75*
G03*
X15745000Y-7703000I-45000J0D01*
G01*
X15995000Y-7703000D02*
G75*
G03*
X15995000Y-7703000I-45000J0D01*
G01*
X16186000Y-9850000D02*
G75*
G03*
X16186000Y-9850000I-45000J0D01*
G01*
X16186000Y-10174333D02*
G75*
G03*
X16186000Y-10174333I-45000J0D01*
G01*
X16186000Y-10498667D02*
G75*
G03*
X16186000Y-10498667I-45000J0D01*
G01*
X16186000Y-10823000D02*
G75*
G03*
X16186000Y-10823000I-45000J0D01*
G01*
X12358000Y-10794000D02*
X12358000Y-10894000D01*
X12308000Y-10844000D02*
X12408000Y-10844000D01*
X12858000Y-10544000D02*
X12858000Y-10644000D01*
X12808000Y-10594000D02*
X12908000Y-10594000D01*
X12858000Y-11044000D02*
X12858000Y-11144000D01*
X12808000Y-11094000D02*
X12908000Y-11094000D01*
X10869891Y-9808891D02*
X10869891Y-9731109D01*
X10792109Y-9731109D01*
X10792109Y-9808891D01*
X10869891Y-9808891D01*
X10869891Y-10458891D02*
X10869891Y-10381109D01*
X10792109Y-10381109D01*
X10792109Y-10458891D01*
X10869891Y-10458891D01*
X11312891Y-10797891D02*
X11312891Y-10720109D01*
X11235109Y-10720109D01*
X11235109Y-10797891D01*
X11312891Y-10797891D01*
X11312891Y-11247891D02*
X11312891Y-11170109D01*
X11235109Y-11170109D01*
X11235109Y-11247891D01*
X11312891Y-11247891D01*
X11319891Y-9808891D02*
X11319891Y-9731109D01*
X11242109Y-9731109D01*
X11242109Y-9808891D01*
X11319891Y-9808891D01*
X11319891Y-10458891D02*
X11319891Y-10381109D01*
X11242109Y-10381109D01*
X11242109Y-10458891D01*
X11319891Y-10458891D01*
X11962891Y-10797891D02*
X11962891Y-10720109D01*
X11885109Y-10720109D01*
X11885109Y-10797891D01*
X11962891Y-10797891D01*
X11962891Y-11247891D02*
X11962891Y-11170109D01*
X11885109Y-11170109D01*
X11885109Y-11247891D01*
X11962891Y-11247891D01*
X17509017Y-7787500D02*
X17584017Y-7712500D01*
X17509017Y-7637500D01*
X17434017Y-7712500D01*
X17509017Y-7787500D01*
X17509017Y-9836500D02*
X17584017Y-9761500D01*
X17509017Y-9686500D01*
X17434017Y-9761500D01*
X17509017Y-9836500D01*
D12*
X10783928Y-12068214D02*
X10783928Y-11768214D01*
X10855357Y-11768214D01*
X10898214Y-11782500D01*
X10926786Y-11811071D01*
X10941071Y-11839643D01*
X10955357Y-11896786D01*
X10955357Y-11939643D01*
X10941071Y-11996786D01*
X10926786Y-12025357D01*
X10898214Y-12053929D01*
X10855357Y-12068214D01*
X10783928Y-12068214D01*
X11083928Y-12068214D02*
X11083928Y-11868214D01*
X11083928Y-11925357D02*
X11098214Y-11896786D01*
X11112500Y-11882500D01*
X11141071Y-11868214D01*
X11169643Y-11868214D01*
X11269643Y-12068214D02*
X11269643Y-11868214D01*
X11269643Y-11768214D02*
X11255357Y-11782500D01*
X11269643Y-11796786D01*
X11283928Y-11782500D01*
X11269643Y-11768214D01*
X11269643Y-11796786D01*
X11455357Y-12068214D02*
X11426786Y-12053929D01*
X11412500Y-12025357D01*
X11412500Y-11768214D01*
X11612500Y-12068214D02*
X11583928Y-12053929D01*
X11569643Y-12025357D01*
X11569643Y-11768214D01*
X11955357Y-12068214D02*
X11955357Y-11768214D01*
X12055357Y-11982500D01*
X12155357Y-11768214D01*
X12155357Y-12068214D01*
X12426786Y-12068214D02*
X12426786Y-11911071D01*
X12412500Y-11882500D01*
X12383928Y-11868214D01*
X12326786Y-11868214D01*
X12298214Y-11882500D01*
X12426786Y-12053929D02*
X12398214Y-12068214D01*
X12326786Y-12068214D01*
X12298214Y-12053929D01*
X12283928Y-12025357D01*
X12283928Y-11996786D01*
X12298214Y-11968214D01*
X12326786Y-11953929D01*
X12398214Y-11953929D01*
X12426786Y-11939643D01*
X12569643Y-11868214D02*
X12569643Y-12168214D01*
X12569643Y-11882500D02*
X12598214Y-11868214D01*
X12655357Y-11868214D01*
X12683928Y-11882500D01*
X12698214Y-11896786D01*
X12712500Y-11925357D01*
X12712500Y-12011071D01*
X12698214Y-12039643D01*
X12683928Y-12053929D01*
X12655357Y-12068214D01*
X12598214Y-12068214D01*
X12569643Y-12053929D01*
X12841071Y-12039643D02*
X12855357Y-12053929D01*
X12841071Y-12068214D01*
X12826786Y-12053929D01*
X12841071Y-12039643D01*
X12841071Y-12068214D01*
X12841071Y-11882500D02*
X12855357Y-11896786D01*
X12841071Y-11911071D01*
X12826786Y-11896786D01*
X12841071Y-11882500D01*
X12841071Y-11911071D01*
X10417500Y-12522500D02*
X10497500Y-12602500D01*
X10497500Y-12522500D02*
X10417500Y-12602500D01*
X10841071Y-12398214D02*
X10869643Y-12398214D01*
X10898214Y-12412500D01*
X10912500Y-12426786D01*
X10926786Y-12455357D01*
X10941071Y-12512500D01*
X10941071Y-12583929D01*
X10926786Y-12641071D01*
X10912500Y-12669643D01*
X10898214Y-12683929D01*
X10869643Y-12698214D01*
X10841071Y-12698214D01*
X10812500Y-12683929D01*
X10798214Y-12669643D01*
X10783928Y-12641071D01*
X10769643Y-12583929D01*
X10769643Y-12512500D01*
X10783928Y-12455357D01*
X10798214Y-12426786D01*
X10812500Y-12412500D01*
X10841071Y-12398214D01*
X11069643Y-12669643D02*
X11083928Y-12683929D01*
X11069643Y-12698214D01*
X11055357Y-12683929D01*
X11069643Y-12669643D01*
X11069643Y-12698214D01*
X11255357Y-12526786D02*
X11226786Y-12512500D01*
X11212500Y-12498214D01*
X11198214Y-12469643D01*
X11198214Y-12455357D01*
X11212500Y-12426786D01*
X11226786Y-12412500D01*
X11255357Y-12398214D01*
X11312500Y-12398214D01*
X11341071Y-12412500D01*
X11355357Y-12426786D01*
X11369643Y-12455357D01*
X11369643Y-12469643D01*
X11355357Y-12498214D01*
X11341071Y-12512500D01*
X11312500Y-12526786D01*
X11255357Y-12526786D01*
X11226786Y-12541071D01*
X11212500Y-12555357D01*
X11198214Y-12583929D01*
X11198214Y-12641071D01*
X11212500Y-12669643D01*
X11226786Y-12683929D01*
X11255357Y-12698214D01*
X11312500Y-12698214D01*
X11341071Y-12683929D01*
X11355357Y-12669643D01*
X11369643Y-12641071D01*
X11369643Y-12583929D01*
X11355357Y-12555357D01*
X11341071Y-12541071D01*
X11312500Y-12526786D01*
X11555357Y-12398214D02*
X11583928Y-12398214D01*
X11612500Y-12412500D01*
X11626786Y-12426786D01*
X11641071Y-12455357D01*
X11655357Y-12512500D01*
X11655357Y-12583929D01*
X11641071Y-12641071D01*
X11626786Y-12669643D01*
X11612500Y-12683929D01*
X11583928Y-12698214D01*
X11555357Y-12698214D01*
X11526786Y-12683929D01*
X11512500Y-12669643D01*
X11498214Y-12641071D01*
X11483928Y-12583929D01*
X11483928Y-12512500D01*
X11498214Y-12455357D01*
X11512500Y-12426786D01*
X11526786Y-12412500D01*
X11555357Y-12398214D01*
X11783928Y-12698214D02*
X11783928Y-12498214D01*
X11783928Y-12526786D02*
X11798214Y-12512500D01*
X11826786Y-12498214D01*
X11869643Y-12498214D01*
X11898214Y-12512500D01*
X11912500Y-12541071D01*
X11912500Y-12698214D01*
X11912500Y-12541071D02*
X11926786Y-12512500D01*
X11955357Y-12498214D01*
X11998214Y-12498214D01*
X12026786Y-12512500D01*
X12041071Y-12541071D01*
X12041071Y-12698214D01*
X12183928Y-12698214D02*
X12183928Y-12498214D01*
X12183928Y-12526786D02*
X12198214Y-12512500D01*
X12226786Y-12498214D01*
X12269643Y-12498214D01*
X12298214Y-12512500D01*
X12312500Y-12541071D01*
X12312500Y-12698214D01*
X12312500Y-12541071D02*
X12326786Y-12512500D01*
X12355357Y-12498214D01*
X12398214Y-12498214D01*
X12426786Y-12512500D01*
X12441071Y-12541071D01*
X12441071Y-12698214D01*
X13026786Y-12383929D02*
X12769643Y-12769643D01*
X13412500Y-12398214D02*
X13441071Y-12398214D01*
X13469643Y-12412500D01*
X13483928Y-12426786D01*
X13498214Y-12455357D01*
X13512500Y-12512500D01*
X13512500Y-12583929D01*
X13498214Y-12641071D01*
X13483928Y-12669643D01*
X13469643Y-12683929D01*
X13441071Y-12698214D01*
X13412500Y-12698214D01*
X13383928Y-12683929D01*
X13369643Y-12669643D01*
X13355357Y-12641071D01*
X13341071Y-12583929D01*
X13341071Y-12512500D01*
X13355357Y-12455357D01*
X13369643Y-12426786D01*
X13383928Y-12412500D01*
X13412500Y-12398214D01*
X13641071Y-12669643D02*
X13655357Y-12683929D01*
X13641071Y-12698214D01*
X13626786Y-12683929D01*
X13641071Y-12669643D01*
X13641071Y-12698214D01*
X13841071Y-12398214D02*
X13869643Y-12398214D01*
X13898214Y-12412500D01*
X13912500Y-12426786D01*
X13926786Y-12455357D01*
X13941071Y-12512500D01*
X13941071Y-12583929D01*
X13926786Y-12641071D01*
X13912500Y-12669643D01*
X13898214Y-12683929D01*
X13869643Y-12698214D01*
X13841071Y-12698214D01*
X13812500Y-12683929D01*
X13798214Y-12669643D01*
X13783928Y-12641071D01*
X13769643Y-12583929D01*
X13769643Y-12512500D01*
X13783928Y-12455357D01*
X13798214Y-12426786D01*
X13812500Y-12412500D01*
X13841071Y-12398214D01*
X14041071Y-12398214D02*
X14226786Y-12398214D01*
X14126786Y-12512500D01*
X14169643Y-12512500D01*
X14198214Y-12526786D01*
X14212500Y-12541071D01*
X14226786Y-12569643D01*
X14226786Y-12641071D01*
X14212500Y-12669643D01*
X14198214Y-12683929D01*
X14169643Y-12698214D01*
X14083928Y-12698214D01*
X14055357Y-12683929D01*
X14041071Y-12669643D01*
X14512500Y-12698214D02*
X14341071Y-12698214D01*
X14426786Y-12698214D02*
X14426786Y-12398214D01*
X14398214Y-12441071D01*
X14369643Y-12469643D01*
X14341071Y-12483929D01*
X14626786Y-12398214D02*
X14626786Y-12455357D01*
X14741071Y-12398214D02*
X14741071Y-12455357D01*
X15183928Y-12812500D02*
X15169643Y-12798214D01*
X15141071Y-12755357D01*
X15126786Y-12726786D01*
X15112500Y-12683929D01*
X15098214Y-12612500D01*
X15098214Y-12555357D01*
X15112500Y-12483929D01*
X15126786Y-12441071D01*
X15141071Y-12412500D01*
X15169643Y-12369643D01*
X15183928Y-12355357D01*
X15426786Y-12398214D02*
X15369643Y-12398214D01*
X15341071Y-12412500D01*
X15326786Y-12426786D01*
X15298214Y-12469643D01*
X15283928Y-12526786D01*
X15283928Y-12641071D01*
X15298214Y-12669643D01*
X15312500Y-12683929D01*
X15341071Y-12698214D01*
X15398214Y-12698214D01*
X15426786Y-12683929D01*
X15441071Y-12669643D01*
X15455357Y-12641071D01*
X15455357Y-12569643D01*
X15441071Y-12541071D01*
X15426786Y-12526786D01*
X15398214Y-12512500D01*
X15341071Y-12512500D01*
X15312500Y-12526786D01*
X15298214Y-12541071D01*
X15283928Y-12569643D01*
X15555357Y-12398214D02*
X15755357Y-12398214D01*
X15626786Y-12698214D01*
X16098214Y-12698214D02*
X16098214Y-12398214D01*
X16226786Y-12698214D02*
X16226786Y-12541071D01*
X16212500Y-12512500D01*
X16183928Y-12498214D01*
X16141071Y-12498214D01*
X16112500Y-12512500D01*
X16098214Y-12526786D01*
X16412500Y-12698214D02*
X16383928Y-12683929D01*
X16369643Y-12669643D01*
X16355357Y-12641071D01*
X16355357Y-12555357D01*
X16369643Y-12526786D01*
X16383928Y-12512500D01*
X16412500Y-12498214D01*
X16455357Y-12498214D01*
X16483928Y-12512500D01*
X16498214Y-12526786D01*
X16512500Y-12555357D01*
X16512500Y-12641071D01*
X16498214Y-12669643D01*
X16483928Y-12683929D01*
X16455357Y-12698214D01*
X16412500Y-12698214D01*
X16683928Y-12698214D02*
X16655357Y-12683929D01*
X16641071Y-12655357D01*
X16641071Y-12398214D01*
X16912500Y-12683929D02*
X16883928Y-12698214D01*
X16826786Y-12698214D01*
X16798214Y-12683929D01*
X16783928Y-12655357D01*
X16783928Y-12541071D01*
X16798214Y-12512500D01*
X16826786Y-12498214D01*
X16883928Y-12498214D01*
X16912500Y-12512500D01*
X16926786Y-12541071D01*
X16926786Y-12569643D01*
X16783928Y-12598214D01*
X17041071Y-12683929D02*
X17069643Y-12698214D01*
X17126786Y-12698214D01*
X17155357Y-12683929D01*
X17169643Y-12655357D01*
X17169643Y-12641071D01*
X17155357Y-12612500D01*
X17126786Y-12598214D01*
X17083928Y-12598214D01*
X17055357Y-12583929D01*
X17041071Y-12555357D01*
X17041071Y-12541071D01*
X17055357Y-12512500D01*
X17083928Y-12498214D01*
X17126786Y-12498214D01*
X17155357Y-12512500D01*
X17269643Y-12812500D02*
X17283928Y-12798214D01*
X17312500Y-12755357D01*
X17326786Y-12726786D01*
X17341071Y-12683929D01*
X17355357Y-12612500D01*
X17355357Y-12555357D01*
X17341071Y-12483929D01*
X17326786Y-12441071D01*
X17312500Y-12412500D01*
X17283928Y-12369643D01*
X17269643Y-12355357D01*
X10497500Y-12958500D02*
G75*
G03*
X10497500Y-12958500I-45000J0D01*
G01*
X10841071Y-12794214D02*
X10869643Y-12794214D01*
X10898214Y-12808500D01*
X10912500Y-12822786D01*
X10926786Y-12851357D01*
X10941071Y-12908500D01*
X10941071Y-12979929D01*
X10926786Y-13037071D01*
X10912500Y-13065643D01*
X10898214Y-13079929D01*
X10869643Y-13094214D01*
X10841071Y-13094214D01*
X10812500Y-13079929D01*
X10798214Y-13065643D01*
X10783928Y-13037071D01*
X10769643Y-12979929D01*
X10769643Y-12908500D01*
X10783928Y-12851357D01*
X10798214Y-12822786D01*
X10812500Y-12808500D01*
X10841071Y-12794214D01*
X11069643Y-13065643D02*
X11083928Y-13079929D01*
X11069643Y-13094214D01*
X11055357Y-13079929D01*
X11069643Y-13065643D01*
X11069643Y-13094214D01*
X11226786Y-13094214D02*
X11283928Y-13094214D01*
X11312500Y-13079929D01*
X11326786Y-13065643D01*
X11355357Y-13022786D01*
X11369643Y-12965643D01*
X11369643Y-12851357D01*
X11355357Y-12822786D01*
X11341071Y-12808500D01*
X11312500Y-12794214D01*
X11255357Y-12794214D01*
X11226786Y-12808500D01*
X11212500Y-12822786D01*
X11198214Y-12851357D01*
X11198214Y-12922786D01*
X11212500Y-12951357D01*
X11226786Y-12965643D01*
X11255357Y-12979929D01*
X11312500Y-12979929D01*
X11341071Y-12965643D01*
X11355357Y-12951357D01*
X11369643Y-12922786D01*
X11555357Y-12794214D02*
X11583928Y-12794214D01*
X11612500Y-12808500D01*
X11626786Y-12822786D01*
X11641071Y-12851357D01*
X11655357Y-12908500D01*
X11655357Y-12979929D01*
X11641071Y-13037071D01*
X11626786Y-13065643D01*
X11612500Y-13079929D01*
X11583928Y-13094214D01*
X11555357Y-13094214D01*
X11526786Y-13079929D01*
X11512500Y-13065643D01*
X11498214Y-13037071D01*
X11483928Y-12979929D01*
X11483928Y-12908500D01*
X11498214Y-12851357D01*
X11512500Y-12822786D01*
X11526786Y-12808500D01*
X11555357Y-12794214D01*
X11783928Y-13094214D02*
X11783928Y-12894214D01*
X11783928Y-12922786D02*
X11798214Y-12908500D01*
X11826786Y-12894214D01*
X11869643Y-12894214D01*
X11898214Y-12908500D01*
X11912500Y-12937071D01*
X11912500Y-13094214D01*
X11912500Y-12937071D02*
X11926786Y-12908500D01*
X11955357Y-12894214D01*
X11998214Y-12894214D01*
X12026786Y-12908500D01*
X12041071Y-12937071D01*
X12041071Y-13094214D01*
X12183928Y-13094214D02*
X12183928Y-12894214D01*
X12183928Y-12922786D02*
X12198214Y-12908500D01*
X12226786Y-12894214D01*
X12269643Y-12894214D01*
X12298214Y-12908500D01*
X12312500Y-12937071D01*
X12312500Y-13094214D01*
X12312500Y-12937071D02*
X12326786Y-12908500D01*
X12355357Y-12894214D01*
X12398214Y-12894214D01*
X12426786Y-12908500D01*
X12441071Y-12937071D01*
X12441071Y-13094214D01*
X13026786Y-12779929D02*
X12769643Y-13165643D01*
X13412500Y-12794214D02*
X13441071Y-12794214D01*
X13469643Y-12808500D01*
X13483928Y-12822786D01*
X13498214Y-12851357D01*
X13512500Y-12908500D01*
X13512500Y-12979929D01*
X13498214Y-13037071D01*
X13483928Y-13065643D01*
X13469643Y-13079929D01*
X13441071Y-13094214D01*
X13412500Y-13094214D01*
X13383928Y-13079929D01*
X13369643Y-13065643D01*
X13355357Y-13037071D01*
X13341071Y-12979929D01*
X13341071Y-12908500D01*
X13355357Y-12851357D01*
X13369643Y-12822786D01*
X13383928Y-12808500D01*
X13412500Y-12794214D01*
X13641071Y-13065643D02*
X13655357Y-13079929D01*
X13641071Y-13094214D01*
X13626786Y-13079929D01*
X13641071Y-13065643D01*
X13641071Y-13094214D01*
X13841071Y-12794214D02*
X13869643Y-12794214D01*
X13898214Y-12808500D01*
X13912500Y-12822786D01*
X13926786Y-12851357D01*
X13941071Y-12908500D01*
X13941071Y-12979929D01*
X13926786Y-13037071D01*
X13912500Y-13065643D01*
X13898214Y-13079929D01*
X13869643Y-13094214D01*
X13841071Y-13094214D01*
X13812500Y-13079929D01*
X13798214Y-13065643D01*
X13783928Y-13037071D01*
X13769643Y-12979929D01*
X13769643Y-12908500D01*
X13783928Y-12851357D01*
X13798214Y-12822786D01*
X13812500Y-12808500D01*
X13841071Y-12794214D01*
X14041071Y-12794214D02*
X14226786Y-12794214D01*
X14126786Y-12908500D01*
X14169643Y-12908500D01*
X14198214Y-12922786D01*
X14212500Y-12937071D01*
X14226786Y-12965643D01*
X14226786Y-13037071D01*
X14212500Y-13065643D01*
X14198214Y-13079929D01*
X14169643Y-13094214D01*
X14083928Y-13094214D01*
X14055357Y-13079929D01*
X14041071Y-13065643D01*
X14498214Y-12794214D02*
X14355357Y-12794214D01*
X14341071Y-12937071D01*
X14355357Y-12922786D01*
X14383928Y-12908500D01*
X14455357Y-12908500D01*
X14483928Y-12922786D01*
X14498214Y-12937071D01*
X14512500Y-12965643D01*
X14512500Y-13037071D01*
X14498214Y-13065643D01*
X14483928Y-13079929D01*
X14455357Y-13094214D01*
X14383928Y-13094214D01*
X14355357Y-13079929D01*
X14341071Y-13065643D01*
X14626786Y-12794214D02*
X14626786Y-12851357D01*
X14741071Y-12794214D02*
X14741071Y-12851357D01*
X15183928Y-13208500D02*
X15169643Y-13194214D01*
X15141071Y-13151357D01*
X15126786Y-13122786D01*
X15112500Y-13079929D01*
X15098214Y-13008500D01*
X15098214Y-12951357D01*
X15112500Y-12879929D01*
X15126786Y-12837071D01*
X15141071Y-12808500D01*
X15169643Y-12765643D01*
X15183928Y-12751357D01*
X15269643Y-12794214D02*
X15455357Y-12794214D01*
X15355357Y-12908500D01*
X15398214Y-12908500D01*
X15426786Y-12922786D01*
X15441071Y-12937071D01*
X15455357Y-12965643D01*
X15455357Y-13037071D01*
X15441071Y-13065643D01*
X15426786Y-13079929D01*
X15398214Y-13094214D01*
X15312500Y-13094214D01*
X15283928Y-13079929D01*
X15269643Y-13065643D01*
X15555357Y-12794214D02*
X15741071Y-12794214D01*
X15641071Y-12908500D01*
X15683928Y-12908500D01*
X15712500Y-12922786D01*
X15726786Y-12937071D01*
X15741071Y-12965643D01*
X15741071Y-13037071D01*
X15726786Y-13065643D01*
X15712500Y-13079929D01*
X15683928Y-13094214D01*
X15598214Y-13094214D01*
X15569643Y-13079929D01*
X15555357Y-13065643D01*
X16098214Y-13094214D02*
X16098214Y-12794214D01*
X16226786Y-13094214D02*
X16226786Y-12937071D01*
X16212500Y-12908500D01*
X16183928Y-12894214D01*
X16141071Y-12894214D01*
X16112500Y-12908500D01*
X16098214Y-12922786D01*
X16412500Y-13094214D02*
X16383928Y-13079929D01*
X16369643Y-13065643D01*
X16355357Y-13037071D01*
X16355357Y-12951357D01*
X16369643Y-12922786D01*
X16383928Y-12908500D01*
X16412500Y-12894214D01*
X16455357Y-12894214D01*
X16483928Y-12908500D01*
X16498214Y-12922786D01*
X16512500Y-12951357D01*
X16512500Y-13037071D01*
X16498214Y-13065643D01*
X16483928Y-13079929D01*
X16455357Y-13094214D01*
X16412500Y-13094214D01*
X16683928Y-13094214D02*
X16655357Y-13079929D01*
X16641071Y-13051357D01*
X16641071Y-12794214D01*
X16912500Y-13079929D02*
X16883928Y-13094214D01*
X16826786Y-13094214D01*
X16798214Y-13079929D01*
X16783928Y-13051357D01*
X16783928Y-12937071D01*
X16798214Y-12908500D01*
X16826786Y-12894214D01*
X16883928Y-12894214D01*
X16912500Y-12908500D01*
X16926786Y-12937071D01*
X16926786Y-12965643D01*
X16783928Y-12994214D01*
X17041071Y-13079929D02*
X17069643Y-13094214D01*
X17126786Y-13094214D01*
X17155357Y-13079929D01*
X17169643Y-13051357D01*
X17169643Y-13037071D01*
X17155357Y-13008500D01*
X17126786Y-12994214D01*
X17083928Y-12994214D01*
X17055357Y-12979929D01*
X17041071Y-12951357D01*
X17041071Y-12937071D01*
X17055357Y-12908500D01*
X17083928Y-12894214D01*
X17126786Y-12894214D01*
X17155357Y-12908500D01*
X17269643Y-13208500D02*
X17283928Y-13194214D01*
X17312500Y-13151357D01*
X17326786Y-13122786D01*
X17341071Y-13079929D01*
X17355357Y-13008500D01*
X17355357Y-12951357D01*
X17341071Y-12879929D01*
X17326786Y-12837071D01*
X17312500Y-12808500D01*
X17283928Y-12765643D01*
X17269643Y-12751357D01*
X10447500Y-13304500D02*
X10447500Y-13404500D01*
X10397500Y-13354500D02*
X10497500Y-13354500D01*
X10941071Y-13490214D02*
X10769643Y-13490214D01*
X10855357Y-13490214D02*
X10855357Y-13190214D01*
X10826786Y-13233071D01*
X10798214Y-13261643D01*
X10769643Y-13275929D01*
X11069643Y-13461643D02*
X11083928Y-13475929D01*
X11069643Y-13490214D01*
X11055357Y-13475929D01*
X11069643Y-13461643D01*
X11069643Y-13490214D01*
X11269643Y-13190214D02*
X11298214Y-13190214D01*
X11326786Y-13204500D01*
X11341071Y-13218786D01*
X11355357Y-13247357D01*
X11369643Y-13304500D01*
X11369643Y-13375929D01*
X11355357Y-13433071D01*
X11341071Y-13461643D01*
X11326786Y-13475929D01*
X11298214Y-13490214D01*
X11269643Y-13490214D01*
X11241071Y-13475929D01*
X11226786Y-13461643D01*
X11212500Y-13433071D01*
X11198214Y-13375929D01*
X11198214Y-13304500D01*
X11212500Y-13247357D01*
X11226786Y-13218786D01*
X11241071Y-13204500D01*
X11269643Y-13190214D01*
X11555357Y-13190214D02*
X11583928Y-13190214D01*
X11612500Y-13204500D01*
X11626786Y-13218786D01*
X11641071Y-13247357D01*
X11655357Y-13304500D01*
X11655357Y-13375929D01*
X11641071Y-13433071D01*
X11626786Y-13461643D01*
X11612500Y-13475929D01*
X11583928Y-13490214D01*
X11555357Y-13490214D01*
X11526786Y-13475929D01*
X11512500Y-13461643D01*
X11498214Y-13433071D01*
X11483928Y-13375929D01*
X11483928Y-13304500D01*
X11498214Y-13247357D01*
X11512500Y-13218786D01*
X11526786Y-13204500D01*
X11555357Y-13190214D01*
X11783928Y-13490214D02*
X11783928Y-13290214D01*
X11783928Y-13318786D02*
X11798214Y-13304500D01*
X11826786Y-13290214D01*
X11869643Y-13290214D01*
X11898214Y-13304500D01*
X11912500Y-13333071D01*
X11912500Y-13490214D01*
X11912500Y-13333071D02*
X11926786Y-13304500D01*
X11955357Y-13290214D01*
X11998214Y-13290214D01*
X12026786Y-13304500D01*
X12041071Y-13333071D01*
X12041071Y-13490214D01*
X12183928Y-13490214D02*
X12183928Y-13290214D01*
X12183928Y-13318786D02*
X12198214Y-13304500D01*
X12226786Y-13290214D01*
X12269643Y-13290214D01*
X12298214Y-13304500D01*
X12312500Y-13333071D01*
X12312500Y-13490214D01*
X12312500Y-13333071D02*
X12326786Y-13304500D01*
X12355357Y-13290214D01*
X12398214Y-13290214D01*
X12426786Y-13304500D01*
X12441071Y-13333071D01*
X12441071Y-13490214D01*
X13026786Y-13175929D02*
X12769643Y-13561643D01*
X13412500Y-13190214D02*
X13441071Y-13190214D01*
X13469643Y-13204500D01*
X13483928Y-13218786D01*
X13498214Y-13247357D01*
X13512500Y-13304500D01*
X13512500Y-13375929D01*
X13498214Y-13433071D01*
X13483928Y-13461643D01*
X13469643Y-13475929D01*
X13441071Y-13490214D01*
X13412500Y-13490214D01*
X13383928Y-13475929D01*
X13369643Y-13461643D01*
X13355357Y-13433071D01*
X13341071Y-13375929D01*
X13341071Y-13304500D01*
X13355357Y-13247357D01*
X13369643Y-13218786D01*
X13383928Y-13204500D01*
X13412500Y-13190214D01*
X13641071Y-13461643D02*
X13655357Y-13475929D01*
X13641071Y-13490214D01*
X13626786Y-13475929D01*
X13641071Y-13461643D01*
X13641071Y-13490214D01*
X13841071Y-13190214D02*
X13869643Y-13190214D01*
X13898214Y-13204500D01*
X13912500Y-13218786D01*
X13926786Y-13247357D01*
X13941071Y-13304500D01*
X13941071Y-13375929D01*
X13926786Y-13433071D01*
X13912500Y-13461643D01*
X13898214Y-13475929D01*
X13869643Y-13490214D01*
X13841071Y-13490214D01*
X13812500Y-13475929D01*
X13798214Y-13461643D01*
X13783928Y-13433071D01*
X13769643Y-13375929D01*
X13769643Y-13304500D01*
X13783928Y-13247357D01*
X13798214Y-13218786D01*
X13812500Y-13204500D01*
X13841071Y-13190214D01*
X14041071Y-13190214D02*
X14226786Y-13190214D01*
X14126786Y-13304500D01*
X14169643Y-13304500D01*
X14198214Y-13318786D01*
X14212500Y-13333071D01*
X14226786Y-13361643D01*
X14226786Y-13433071D01*
X14212500Y-13461643D01*
X14198214Y-13475929D01*
X14169643Y-13490214D01*
X14083928Y-13490214D01*
X14055357Y-13475929D01*
X14041071Y-13461643D01*
X14369643Y-13490214D02*
X14426786Y-13490214D01*
X14455357Y-13475929D01*
X14469643Y-13461643D01*
X14498214Y-13418786D01*
X14512500Y-13361643D01*
X14512500Y-13247357D01*
X14498214Y-13218786D01*
X14483928Y-13204500D01*
X14455357Y-13190214D01*
X14398214Y-13190214D01*
X14369643Y-13204500D01*
X14355357Y-13218786D01*
X14341071Y-13247357D01*
X14341071Y-13318786D01*
X14355357Y-13347357D01*
X14369643Y-13361643D01*
X14398214Y-13375929D01*
X14455357Y-13375929D01*
X14483928Y-13361643D01*
X14498214Y-13347357D01*
X14512500Y-13318786D01*
X14626786Y-13190214D02*
X14626786Y-13247357D01*
X14741071Y-13190214D02*
X14741071Y-13247357D01*
X15183928Y-13604500D02*
X15169643Y-13590214D01*
X15141071Y-13547357D01*
X15126786Y-13518786D01*
X15112500Y-13475929D01*
X15098214Y-13404500D01*
X15098214Y-13347357D01*
X15112500Y-13275929D01*
X15126786Y-13233071D01*
X15141071Y-13204500D01*
X15169643Y-13161643D01*
X15183928Y-13147357D01*
X15269643Y-13190214D02*
X15455357Y-13190214D01*
X15355357Y-13304500D01*
X15398214Y-13304500D01*
X15426786Y-13318786D01*
X15441071Y-13333071D01*
X15455357Y-13361643D01*
X15455357Y-13433071D01*
X15441071Y-13461643D01*
X15426786Y-13475929D01*
X15398214Y-13490214D01*
X15312500Y-13490214D01*
X15283928Y-13475929D01*
X15269643Y-13461643D01*
X15812500Y-13490214D02*
X15812500Y-13190214D01*
X15941071Y-13490214D02*
X15941071Y-13333071D01*
X15926786Y-13304500D01*
X15898214Y-13290214D01*
X15855357Y-13290214D01*
X15826786Y-13304500D01*
X15812500Y-13318786D01*
X16126786Y-13490214D02*
X16098214Y-13475929D01*
X16083928Y-13461643D01*
X16069643Y-13433071D01*
X16069643Y-13347357D01*
X16083928Y-13318786D01*
X16098214Y-13304500D01*
X16126786Y-13290214D01*
X16169643Y-13290214D01*
X16198214Y-13304500D01*
X16212500Y-13318786D01*
X16226786Y-13347357D01*
X16226786Y-13433071D01*
X16212500Y-13461643D01*
X16198214Y-13475929D01*
X16169643Y-13490214D01*
X16126786Y-13490214D01*
X16398214Y-13490214D02*
X16369643Y-13475929D01*
X16355357Y-13447357D01*
X16355357Y-13190214D01*
X16626786Y-13475929D02*
X16598214Y-13490214D01*
X16541071Y-13490214D01*
X16512500Y-13475929D01*
X16498214Y-13447357D01*
X16498214Y-13333071D01*
X16512500Y-13304500D01*
X16541071Y-13290214D01*
X16598214Y-13290214D01*
X16626786Y-13304500D01*
X16641071Y-13333071D01*
X16641071Y-13361643D01*
X16498214Y-13390214D01*
X16755357Y-13475929D02*
X16783928Y-13490214D01*
X16841071Y-13490214D01*
X16869643Y-13475929D01*
X16883928Y-13447357D01*
X16883928Y-13433071D01*
X16869643Y-13404500D01*
X16841071Y-13390214D01*
X16798214Y-13390214D01*
X16769643Y-13375929D01*
X16755357Y-13347357D01*
X16755357Y-13333071D01*
X16769643Y-13304500D01*
X16798214Y-13290214D01*
X16841071Y-13290214D01*
X16869643Y-13304500D01*
X16983928Y-13604500D02*
X16998214Y-13590214D01*
X17026786Y-13547357D01*
X17041071Y-13518786D01*
X17055357Y-13475929D01*
X17069643Y-13404500D01*
X17069643Y-13347357D01*
X17055357Y-13275929D01*
X17041071Y-13233071D01*
X17026786Y-13204500D01*
X16998214Y-13161643D01*
X16983928Y-13147357D01*
X10481391Y-13789391D02*
X10481391Y-13711609D01*
X10403609Y-13711609D01*
X10403609Y-13789391D01*
X10481391Y-13789391D01*
X10941071Y-13886214D02*
X10769643Y-13886214D01*
X10855357Y-13886214D02*
X10855357Y-13586214D01*
X10826786Y-13629071D01*
X10798214Y-13657643D01*
X10769643Y-13671929D01*
X11069643Y-13857643D02*
X11083928Y-13871929D01*
X11069643Y-13886214D01*
X11055357Y-13871929D01*
X11069643Y-13857643D01*
X11069643Y-13886214D01*
X11369643Y-13886214D02*
X11198214Y-13886214D01*
X11283928Y-13886214D02*
X11283928Y-13586214D01*
X11255357Y-13629071D01*
X11226786Y-13657643D01*
X11198214Y-13671929D01*
X11555357Y-13586214D02*
X11583928Y-13586214D01*
X11612500Y-13600500D01*
X11626786Y-13614786D01*
X11641071Y-13643357D01*
X11655357Y-13700500D01*
X11655357Y-13771929D01*
X11641071Y-13829071D01*
X11626786Y-13857643D01*
X11612500Y-13871929D01*
X11583928Y-13886214D01*
X11555357Y-13886214D01*
X11526786Y-13871929D01*
X11512500Y-13857643D01*
X11498214Y-13829071D01*
X11483928Y-13771929D01*
X11483928Y-13700500D01*
X11498214Y-13643357D01*
X11512500Y-13614786D01*
X11526786Y-13600500D01*
X11555357Y-13586214D01*
X11783928Y-13886214D02*
X11783928Y-13686214D01*
X11783928Y-13714786D02*
X11798214Y-13700500D01*
X11826786Y-13686214D01*
X11869643Y-13686214D01*
X11898214Y-13700500D01*
X11912500Y-13729071D01*
X11912500Y-13886214D01*
X11912500Y-13729071D02*
X11926786Y-13700500D01*
X11955357Y-13686214D01*
X11998214Y-13686214D01*
X12026786Y-13700500D01*
X12041071Y-13729071D01*
X12041071Y-13886214D01*
X12183928Y-13886214D02*
X12183928Y-13686214D01*
X12183928Y-13714786D02*
X12198214Y-13700500D01*
X12226786Y-13686214D01*
X12269643Y-13686214D01*
X12298214Y-13700500D01*
X12312500Y-13729071D01*
X12312500Y-13886214D01*
X12312500Y-13729071D02*
X12326786Y-13700500D01*
X12355357Y-13686214D01*
X12398214Y-13686214D01*
X12426786Y-13700500D01*
X12441071Y-13729071D01*
X12441071Y-13886214D01*
X13026786Y-13571929D02*
X12769643Y-13957643D01*
X13412500Y-13586214D02*
X13441071Y-13586214D01*
X13469643Y-13600500D01*
X13483928Y-13614786D01*
X13498214Y-13643357D01*
X13512500Y-13700500D01*
X13512500Y-13771929D01*
X13498214Y-13829071D01*
X13483928Y-13857643D01*
X13469643Y-13871929D01*
X13441071Y-13886214D01*
X13412500Y-13886214D01*
X13383928Y-13871929D01*
X13369643Y-13857643D01*
X13355357Y-13829071D01*
X13341071Y-13771929D01*
X13341071Y-13700500D01*
X13355357Y-13643357D01*
X13369643Y-13614786D01*
X13383928Y-13600500D01*
X13412500Y-13586214D01*
X13641071Y-13857643D02*
X13655357Y-13871929D01*
X13641071Y-13886214D01*
X13626786Y-13871929D01*
X13641071Y-13857643D01*
X13641071Y-13886214D01*
X13841071Y-13586214D02*
X13869643Y-13586214D01*
X13898214Y-13600500D01*
X13912500Y-13614786D01*
X13926786Y-13643357D01*
X13941071Y-13700500D01*
X13941071Y-13771929D01*
X13926786Y-13829071D01*
X13912500Y-13857643D01*
X13898214Y-13871929D01*
X13869643Y-13886214D01*
X13841071Y-13886214D01*
X13812500Y-13871929D01*
X13798214Y-13857643D01*
X13783928Y-13829071D01*
X13769643Y-13771929D01*
X13769643Y-13700500D01*
X13783928Y-13643357D01*
X13798214Y-13614786D01*
X13812500Y-13600500D01*
X13841071Y-13586214D01*
X14198214Y-13686214D02*
X14198214Y-13886214D01*
X14126786Y-13571929D02*
X14055357Y-13786214D01*
X14241071Y-13786214D01*
X14326786Y-13586214D02*
X14512500Y-13586214D01*
X14412500Y-13700500D01*
X14455357Y-13700500D01*
X14483928Y-13714786D01*
X14498214Y-13729071D01*
X14512500Y-13757643D01*
X14512500Y-13829071D01*
X14498214Y-13857643D01*
X14483928Y-13871929D01*
X14455357Y-13886214D01*
X14369643Y-13886214D01*
X14341071Y-13871929D01*
X14326786Y-13857643D01*
X14626786Y-13586214D02*
X14626786Y-13643357D01*
X14741071Y-13586214D02*
X14741071Y-13643357D01*
X15183928Y-14000500D02*
X15169643Y-13986214D01*
X15141071Y-13943357D01*
X15126786Y-13914786D01*
X15112500Y-13871929D01*
X15098214Y-13800500D01*
X15098214Y-13743357D01*
X15112500Y-13671929D01*
X15126786Y-13629071D01*
X15141071Y-13600500D01*
X15169643Y-13557643D01*
X15183928Y-13543357D01*
X15341071Y-13714786D02*
X15312500Y-13700500D01*
X15298214Y-13686214D01*
X15283928Y-13657643D01*
X15283928Y-13643357D01*
X15298214Y-13614786D01*
X15312500Y-13600500D01*
X15341071Y-13586214D01*
X15398214Y-13586214D01*
X15426786Y-13600500D01*
X15441071Y-13614786D01*
X15455357Y-13643357D01*
X15455357Y-13657643D01*
X15441071Y-13686214D01*
X15426786Y-13700500D01*
X15398214Y-13714786D01*
X15341071Y-13714786D01*
X15312500Y-13729071D01*
X15298214Y-13743357D01*
X15283928Y-13771929D01*
X15283928Y-13829071D01*
X15298214Y-13857643D01*
X15312500Y-13871929D01*
X15341071Y-13886214D01*
X15398214Y-13886214D01*
X15426786Y-13871929D01*
X15441071Y-13857643D01*
X15455357Y-13829071D01*
X15455357Y-13771929D01*
X15441071Y-13743357D01*
X15426786Y-13729071D01*
X15398214Y-13714786D01*
X15812500Y-13886214D02*
X15812500Y-13586214D01*
X15941071Y-13886214D02*
X15941071Y-13729071D01*
X15926786Y-13700500D01*
X15898214Y-13686214D01*
X15855357Y-13686214D01*
X15826786Y-13700500D01*
X15812500Y-13714786D01*
X16126786Y-13886214D02*
X16098214Y-13871929D01*
X16083928Y-13857643D01*
X16069643Y-13829071D01*
X16069643Y-13743357D01*
X16083928Y-13714786D01*
X16098214Y-13700500D01*
X16126786Y-13686214D01*
X16169643Y-13686214D01*
X16198214Y-13700500D01*
X16212500Y-13714786D01*
X16226786Y-13743357D01*
X16226786Y-13829071D01*
X16212500Y-13857643D01*
X16198214Y-13871929D01*
X16169643Y-13886214D01*
X16126786Y-13886214D01*
X16398214Y-13886214D02*
X16369643Y-13871929D01*
X16355357Y-13843357D01*
X16355357Y-13586214D01*
X16626786Y-13871929D02*
X16598214Y-13886214D01*
X16541071Y-13886214D01*
X16512500Y-13871929D01*
X16498214Y-13843357D01*
X16498214Y-13729071D01*
X16512500Y-13700500D01*
X16541071Y-13686214D01*
X16598214Y-13686214D01*
X16626786Y-13700500D01*
X16641071Y-13729071D01*
X16641071Y-13757643D01*
X16498214Y-13786214D01*
X16755357Y-13871929D02*
X16783928Y-13886214D01*
X16841071Y-13886214D01*
X16869643Y-13871929D01*
X16883928Y-13843357D01*
X16883928Y-13829071D01*
X16869643Y-13800500D01*
X16841071Y-13786214D01*
X16798214Y-13786214D01*
X16769643Y-13771929D01*
X16755357Y-13743357D01*
X16755357Y-13729071D01*
X16769643Y-13700500D01*
X16798214Y-13686214D01*
X16841071Y-13686214D01*
X16869643Y-13700500D01*
X16983928Y-14000500D02*
X16998214Y-13986214D01*
X17026786Y-13943357D01*
X17041071Y-13914786D01*
X17055357Y-13871929D01*
X17069643Y-13800500D01*
X17069643Y-13743357D01*
X17055357Y-13671929D01*
X17041071Y-13629071D01*
X17026786Y-13600500D01*
X16998214Y-13557643D01*
X16983928Y-13543357D01*
X10422500Y-14221500D02*
X10497500Y-14146500D01*
X10422500Y-14071500D01*
X10347500Y-14146500D01*
X10422500Y-14221500D01*
X10941071Y-14282214D02*
X10769643Y-14282214D01*
X10855357Y-14282214D02*
X10855357Y-13982214D01*
X10826786Y-14025071D01*
X10798214Y-14053643D01*
X10769643Y-14067929D01*
X11069643Y-14253643D02*
X11083928Y-14267929D01*
X11069643Y-14282214D01*
X11055357Y-14267929D01*
X11069643Y-14253643D01*
X11069643Y-14282214D01*
X11355357Y-13982214D02*
X11212500Y-13982214D01*
X11198214Y-14125071D01*
X11212500Y-14110786D01*
X11241071Y-14096500D01*
X11312500Y-14096500D01*
X11341071Y-14110786D01*
X11355357Y-14125071D01*
X11369643Y-14153643D01*
X11369643Y-14225071D01*
X11355357Y-14253643D01*
X11341071Y-14267929D01*
X11312500Y-14282214D01*
X11241071Y-14282214D01*
X11212500Y-14267929D01*
X11198214Y-14253643D01*
X11555357Y-13982214D02*
X11583928Y-13982214D01*
X11612500Y-13996500D01*
X11626786Y-14010786D01*
X11641071Y-14039357D01*
X11655357Y-14096500D01*
X11655357Y-14167929D01*
X11641071Y-14225071D01*
X11626786Y-14253643D01*
X11612500Y-14267929D01*
X11583928Y-14282214D01*
X11555357Y-14282214D01*
X11526786Y-14267929D01*
X11512500Y-14253643D01*
X11498214Y-14225071D01*
X11483928Y-14167929D01*
X11483928Y-14096500D01*
X11498214Y-14039357D01*
X11512500Y-14010786D01*
X11526786Y-13996500D01*
X11555357Y-13982214D01*
X11783928Y-14282214D02*
X11783928Y-14082214D01*
X11783928Y-14110786D02*
X11798214Y-14096500D01*
X11826786Y-14082214D01*
X11869643Y-14082214D01*
X11898214Y-14096500D01*
X11912500Y-14125071D01*
X11912500Y-14282214D01*
X11912500Y-14125071D02*
X11926786Y-14096500D01*
X11955357Y-14082214D01*
X11998214Y-14082214D01*
X12026786Y-14096500D01*
X12041071Y-14125071D01*
X12041071Y-14282214D01*
X12183928Y-14282214D02*
X12183928Y-14082214D01*
X12183928Y-14110786D02*
X12198214Y-14096500D01*
X12226786Y-14082214D01*
X12269643Y-14082214D01*
X12298214Y-14096500D01*
X12312500Y-14125071D01*
X12312500Y-14282214D01*
X12312500Y-14125071D02*
X12326786Y-14096500D01*
X12355357Y-14082214D01*
X12398214Y-14082214D01*
X12426786Y-14096500D01*
X12441071Y-14125071D01*
X12441071Y-14282214D01*
X13026786Y-13967929D02*
X12769643Y-14353643D01*
X13412500Y-13982214D02*
X13441071Y-13982214D01*
X13469643Y-13996500D01*
X13483928Y-14010786D01*
X13498214Y-14039357D01*
X13512500Y-14096500D01*
X13512500Y-14167929D01*
X13498214Y-14225071D01*
X13483928Y-14253643D01*
X13469643Y-14267929D01*
X13441071Y-14282214D01*
X13412500Y-14282214D01*
X13383928Y-14267929D01*
X13369643Y-14253643D01*
X13355357Y-14225071D01*
X13341071Y-14167929D01*
X13341071Y-14096500D01*
X13355357Y-14039357D01*
X13369643Y-14010786D01*
X13383928Y-13996500D01*
X13412500Y-13982214D01*
X13641071Y-14253643D02*
X13655357Y-14267929D01*
X13641071Y-14282214D01*
X13626786Y-14267929D01*
X13641071Y-14253643D01*
X13641071Y-14282214D01*
X13841071Y-13982214D02*
X13869643Y-13982214D01*
X13898214Y-13996500D01*
X13912500Y-14010786D01*
X13926786Y-14039357D01*
X13941071Y-14096500D01*
X13941071Y-14167929D01*
X13926786Y-14225071D01*
X13912500Y-14253643D01*
X13898214Y-14267929D01*
X13869643Y-14282214D01*
X13841071Y-14282214D01*
X13812500Y-14267929D01*
X13798214Y-14253643D01*
X13783928Y-14225071D01*
X13769643Y-14167929D01*
X13769643Y-14096500D01*
X13783928Y-14039357D01*
X13798214Y-14010786D01*
X13812500Y-13996500D01*
X13841071Y-13982214D01*
X14212500Y-13982214D02*
X14069643Y-13982214D01*
X14055357Y-14125071D01*
X14069643Y-14110786D01*
X14098214Y-14096500D01*
X14169643Y-14096500D01*
X14198214Y-14110786D01*
X14212500Y-14125071D01*
X14226786Y-14153643D01*
X14226786Y-14225071D01*
X14212500Y-14253643D01*
X14198214Y-14267929D01*
X14169643Y-14282214D01*
X14098214Y-14282214D01*
X14069643Y-14267929D01*
X14055357Y-14253643D01*
X14369643Y-14282214D02*
X14426786Y-14282214D01*
X14455357Y-14267929D01*
X14469643Y-14253643D01*
X14498214Y-14210786D01*
X14512500Y-14153643D01*
X14512500Y-14039357D01*
X14498214Y-14010786D01*
X14483928Y-13996500D01*
X14455357Y-13982214D01*
X14398214Y-13982214D01*
X14369643Y-13996500D01*
X14355357Y-14010786D01*
X14341071Y-14039357D01*
X14341071Y-14110786D01*
X14355357Y-14139357D01*
X14369643Y-14153643D01*
X14398214Y-14167929D01*
X14455357Y-14167929D01*
X14483928Y-14153643D01*
X14498214Y-14139357D01*
X14512500Y-14110786D01*
X14626786Y-13982214D02*
X14626786Y-14039357D01*
X14741071Y-13982214D02*
X14741071Y-14039357D01*
X15183928Y-14396500D02*
X15169643Y-14382214D01*
X15141071Y-14339357D01*
X15126786Y-14310786D01*
X15112500Y-14267929D01*
X15098214Y-14196500D01*
X15098214Y-14139357D01*
X15112500Y-14067929D01*
X15126786Y-14025071D01*
X15141071Y-13996500D01*
X15169643Y-13953643D01*
X15183928Y-13939357D01*
X15283928Y-14010786D02*
X15298214Y-13996500D01*
X15326786Y-13982214D01*
X15398214Y-13982214D01*
X15426786Y-13996500D01*
X15441071Y-14010786D01*
X15455357Y-14039357D01*
X15455357Y-14067929D01*
X15441071Y-14110786D01*
X15269643Y-14282214D01*
X15455357Y-14282214D01*
X15812500Y-14282214D02*
X15812500Y-13982214D01*
X15941071Y-14282214D02*
X15941071Y-14125071D01*
X15926786Y-14096500D01*
X15898214Y-14082214D01*
X15855357Y-14082214D01*
X15826786Y-14096500D01*
X15812500Y-14110786D01*
X16126786Y-14282214D02*
X16098214Y-14267929D01*
X16083928Y-14253643D01*
X16069643Y-14225071D01*
X16069643Y-14139357D01*
X16083928Y-14110786D01*
X16098214Y-14096500D01*
X16126786Y-14082214D01*
X16169643Y-14082214D01*
X16198214Y-14096500D01*
X16212500Y-14110786D01*
X16226786Y-14139357D01*
X16226786Y-14225071D01*
X16212500Y-14253643D01*
X16198214Y-14267929D01*
X16169643Y-14282214D01*
X16126786Y-14282214D01*
X16398214Y-14282214D02*
X16369643Y-14267929D01*
X16355357Y-14239357D01*
X16355357Y-13982214D01*
X16626786Y-14267929D02*
X16598214Y-14282214D01*
X16541071Y-14282214D01*
X16512500Y-14267929D01*
X16498214Y-14239357D01*
X16498214Y-14125071D01*
X16512500Y-14096500D01*
X16541071Y-14082214D01*
X16598214Y-14082214D01*
X16626786Y-14096500D01*
X16641071Y-14125071D01*
X16641071Y-14153643D01*
X16498214Y-14182214D01*
X16755357Y-14267929D02*
X16783928Y-14282214D01*
X16841071Y-14282214D01*
X16869643Y-14267929D01*
X16883928Y-14239357D01*
X16883928Y-14225071D01*
X16869643Y-14196500D01*
X16841071Y-14182214D01*
X16798214Y-14182214D01*
X16769643Y-14167929D01*
X16755357Y-14139357D01*
X16755357Y-14125071D01*
X16769643Y-14096500D01*
X16798214Y-14082214D01*
X16841071Y-14082214D01*
X16869643Y-14096500D01*
X16983928Y-14396500D02*
X16998214Y-14382214D01*
X17026786Y-14339357D01*
X17041071Y-14310786D01*
X17055357Y-14267929D01*
X17069643Y-14196500D01*
X17069643Y-14139357D01*
X17055357Y-14067929D01*
X17041071Y-14025071D01*
X17026786Y-13996500D01*
X16998214Y-13953643D01*
X16983928Y-13939357D01*
M02*
