G04 #@! TF.GenerationSoftware,KiCad,Pcbnew,5.1.4+dfsg1-1~bpo10+1*
G04 #@! TF.CreationDate,2023-05-09T01:13:07+01:00*
G04 #@! TF.ProjectId,KILL_THE_BIT_LOGIC,4b494c4c-5f54-4484-955f-4249545f4c4f,rev?*
G04 #@! TF.SameCoordinates,Original*
G04 #@! TF.FileFunction,Soldermask,Bot*
G04 #@! TF.FilePolarity,Negative*
%FSLAX46Y46*%
G04 Gerber Fmt 4.6, Leading zero omitted, Abs format (unit mm)*
G04 Created by KiCad (PCBNEW 5.1.4+dfsg1-1~bpo10+1) date 2023-05-09 01:13:07*
%MOMM*%
%LPD*%
G04 APERTURE LIST*
%ADD10C,0.100000*%
G04 APERTURE END LIST*
D10*
G36*
X119546564Y-111079389D02*
G01*
X119737833Y-111158615D01*
X119737835Y-111158616D01*
X119909973Y-111273635D01*
X120056365Y-111420027D01*
X120171385Y-111592167D01*
X120250611Y-111783436D01*
X120291000Y-111986484D01*
X120291000Y-112193516D01*
X120250611Y-112396564D01*
X120171385Y-112587833D01*
X120171384Y-112587835D01*
X120056365Y-112759973D01*
X119909973Y-112906365D01*
X119737835Y-113021384D01*
X119737834Y-113021385D01*
X119737833Y-113021385D01*
X119546564Y-113100611D01*
X119343516Y-113141000D01*
X119136484Y-113141000D01*
X118933436Y-113100611D01*
X118742167Y-113021385D01*
X118742166Y-113021385D01*
X118742165Y-113021384D01*
X118570027Y-112906365D01*
X118423635Y-112759973D01*
X118308616Y-112587835D01*
X118308615Y-112587833D01*
X118229389Y-112396564D01*
X118189000Y-112193516D01*
X118189000Y-111986484D01*
X118229389Y-111783436D01*
X118308615Y-111592167D01*
X118423635Y-111420027D01*
X118570027Y-111273635D01*
X118742165Y-111158616D01*
X118742167Y-111158615D01*
X118933436Y-111079389D01*
X119136484Y-111039000D01*
X119343516Y-111039000D01*
X119546564Y-111079389D01*
X119546564Y-111079389D01*
G37*
G36*
X113046564Y-111079389D02*
G01*
X113237833Y-111158615D01*
X113237835Y-111158616D01*
X113409973Y-111273635D01*
X113556365Y-111420027D01*
X113671385Y-111592167D01*
X113750611Y-111783436D01*
X113791000Y-111986484D01*
X113791000Y-112193516D01*
X113750611Y-112396564D01*
X113671385Y-112587833D01*
X113671384Y-112587835D01*
X113556365Y-112759973D01*
X113409973Y-112906365D01*
X113237835Y-113021384D01*
X113237834Y-113021385D01*
X113237833Y-113021385D01*
X113046564Y-113100611D01*
X112843516Y-113141000D01*
X112636484Y-113141000D01*
X112433436Y-113100611D01*
X112242167Y-113021385D01*
X112242166Y-113021385D01*
X112242165Y-113021384D01*
X112070027Y-112906365D01*
X111923635Y-112759973D01*
X111808616Y-112587835D01*
X111808615Y-112587833D01*
X111729389Y-112396564D01*
X111689000Y-112193516D01*
X111689000Y-111986484D01*
X111729389Y-111783436D01*
X111808615Y-111592167D01*
X111923635Y-111420027D01*
X112070027Y-111273635D01*
X112242165Y-111158616D01*
X112242167Y-111158615D01*
X112433436Y-111079389D01*
X112636484Y-111039000D01*
X112843516Y-111039000D01*
X113046564Y-111079389D01*
X113046564Y-111079389D01*
G37*
G36*
X134423642Y-110289781D02*
G01*
X134569414Y-110350162D01*
X134569416Y-110350163D01*
X134700608Y-110437822D01*
X134812178Y-110549392D01*
X134899837Y-110680584D01*
X134899838Y-110680586D01*
X134960219Y-110826358D01*
X134991000Y-110981107D01*
X134991000Y-111138893D01*
X134960219Y-111293642D01*
X134907868Y-111420027D01*
X134899837Y-111439416D01*
X134812178Y-111570608D01*
X134700608Y-111682178D01*
X134569416Y-111769837D01*
X134569415Y-111769838D01*
X134569414Y-111769838D01*
X134423642Y-111830219D01*
X134268893Y-111861000D01*
X134111107Y-111861000D01*
X133956358Y-111830219D01*
X133810586Y-111769838D01*
X133810585Y-111769838D01*
X133810584Y-111769837D01*
X133679392Y-111682178D01*
X133567822Y-111570608D01*
X133480163Y-111439416D01*
X133472132Y-111420027D01*
X133419781Y-111293642D01*
X133389000Y-111138893D01*
X133389000Y-110981107D01*
X133419781Y-110826358D01*
X133480162Y-110680586D01*
X133480163Y-110680584D01*
X133567822Y-110549392D01*
X133679392Y-110437822D01*
X133810584Y-110350163D01*
X133810586Y-110350162D01*
X133956358Y-110289781D01*
X134111107Y-110259000D01*
X134268893Y-110259000D01*
X134423642Y-110289781D01*
X134423642Y-110289781D01*
G37*
G36*
X128820935Y-110145742D02*
G01*
X128971258Y-110208008D01*
X129106545Y-110298404D01*
X129221596Y-110413455D01*
X129311992Y-110548742D01*
X129374258Y-110699065D01*
X129406000Y-110858646D01*
X129406000Y-111021354D01*
X129374258Y-111180935D01*
X129311992Y-111331258D01*
X129221596Y-111466545D01*
X129106545Y-111581596D01*
X128971258Y-111671992D01*
X128820935Y-111734258D01*
X128661354Y-111766000D01*
X128498646Y-111766000D01*
X128339065Y-111734258D01*
X128188742Y-111671992D01*
X128053455Y-111581596D01*
X127938404Y-111466545D01*
X127848008Y-111331258D01*
X127785742Y-111180935D01*
X127754000Y-111021354D01*
X127754000Y-110858646D01*
X127785742Y-110699065D01*
X127848008Y-110548742D01*
X127938404Y-110413455D01*
X128053455Y-110298404D01*
X128188742Y-110208008D01*
X128339065Y-110145742D01*
X128498646Y-110114000D01*
X128661354Y-110114000D01*
X128820935Y-110145742D01*
X128820935Y-110145742D01*
G37*
G36*
X139058228Y-107771703D02*
G01*
X139213100Y-107835853D01*
X139352481Y-107928985D01*
X139471015Y-108047519D01*
X139564147Y-108186900D01*
X139628297Y-108341772D01*
X139661000Y-108506184D01*
X139661000Y-108673816D01*
X139628297Y-108838228D01*
X139564147Y-108993100D01*
X139471015Y-109132481D01*
X139352481Y-109251015D01*
X139213100Y-109344147D01*
X139058228Y-109408297D01*
X138893816Y-109441000D01*
X138726184Y-109441000D01*
X138561772Y-109408297D01*
X138406900Y-109344147D01*
X138267519Y-109251015D01*
X138148985Y-109132481D01*
X138055853Y-108993100D01*
X137991703Y-108838228D01*
X137959000Y-108673816D01*
X137959000Y-108506184D01*
X137991703Y-108341772D01*
X138055853Y-108186900D01*
X138148985Y-108047519D01*
X138267519Y-107928985D01*
X138406900Y-107835853D01*
X138561772Y-107771703D01*
X138726184Y-107739000D01*
X138893816Y-107739000D01*
X139058228Y-107771703D01*
X139058228Y-107771703D01*
G37*
G36*
X149136823Y-107751313D02*
G01*
X149297242Y-107799976D01*
X149364361Y-107835852D01*
X149445078Y-107878996D01*
X149574659Y-107985341D01*
X149681004Y-108114922D01*
X149681005Y-108114924D01*
X149760024Y-108262758D01*
X149808687Y-108423177D01*
X149825117Y-108590000D01*
X149808687Y-108756823D01*
X149760024Y-108917242D01*
X149689114Y-109049906D01*
X149681004Y-109065078D01*
X149574659Y-109194659D01*
X149445078Y-109301004D01*
X149445076Y-109301005D01*
X149297242Y-109380024D01*
X149136823Y-109428687D01*
X149011804Y-109441000D01*
X148928196Y-109441000D01*
X148803177Y-109428687D01*
X148642758Y-109380024D01*
X148494924Y-109301005D01*
X148494922Y-109301004D01*
X148365341Y-109194659D01*
X148258996Y-109065078D01*
X148250886Y-109049906D01*
X148179976Y-108917242D01*
X148131313Y-108756823D01*
X148114883Y-108590000D01*
X148131313Y-108423177D01*
X148179976Y-108262758D01*
X148258995Y-108114924D01*
X148258996Y-108114922D01*
X148365341Y-107985341D01*
X148494922Y-107878996D01*
X148575639Y-107835852D01*
X148642758Y-107799976D01*
X148803177Y-107751313D01*
X148928196Y-107739000D01*
X149011804Y-107739000D01*
X149136823Y-107751313D01*
X149136823Y-107751313D01*
G37*
G36*
X136963642Y-107749781D02*
G01*
X137109414Y-107810162D01*
X137109416Y-107810163D01*
X137240608Y-107897822D01*
X137352178Y-108009392D01*
X137439837Y-108140584D01*
X137439838Y-108140586D01*
X137500219Y-108286358D01*
X137531000Y-108441107D01*
X137531000Y-108598893D01*
X137500219Y-108753642D01*
X137439838Y-108899414D01*
X137439837Y-108899416D01*
X137352178Y-109030608D01*
X137240608Y-109142178D01*
X137109416Y-109229837D01*
X137109415Y-109229838D01*
X137109414Y-109229838D01*
X136963642Y-109290219D01*
X136808893Y-109321000D01*
X136651107Y-109321000D01*
X136496358Y-109290219D01*
X136350586Y-109229838D01*
X136350585Y-109229838D01*
X136350584Y-109229837D01*
X136219392Y-109142178D01*
X136107822Y-109030608D01*
X136020163Y-108899416D01*
X136020162Y-108899414D01*
X135959781Y-108753642D01*
X135929000Y-108598893D01*
X135929000Y-108441107D01*
X135959781Y-108286358D01*
X136020162Y-108140586D01*
X136020163Y-108140584D01*
X136107822Y-108009392D01*
X136219392Y-107897822D01*
X136350584Y-107810163D01*
X136350586Y-107810162D01*
X136496358Y-107749781D01*
X136651107Y-107719000D01*
X136808893Y-107719000D01*
X136963642Y-107749781D01*
X136963642Y-107749781D01*
G37*
G36*
X123820935Y-107645742D02*
G01*
X123971258Y-107708008D01*
X124106545Y-107798404D01*
X124221596Y-107913455D01*
X124311992Y-108048742D01*
X124374258Y-108199065D01*
X124406000Y-108358646D01*
X124406000Y-108521354D01*
X124374258Y-108680935D01*
X124311992Y-108831258D01*
X124221596Y-108966545D01*
X124106545Y-109081596D01*
X123971258Y-109171992D01*
X123820935Y-109234258D01*
X123661354Y-109266000D01*
X123498646Y-109266000D01*
X123339065Y-109234258D01*
X123188742Y-109171992D01*
X123053455Y-109081596D01*
X122938404Y-108966545D01*
X122848008Y-108831258D01*
X122785742Y-108680935D01*
X122754000Y-108521354D01*
X122754000Y-108358646D01*
X122785742Y-108199065D01*
X122848008Y-108048742D01*
X122938404Y-107913455D01*
X123053455Y-107798404D01*
X123188742Y-107708008D01*
X123339065Y-107645742D01*
X123498646Y-107614000D01*
X123661354Y-107614000D01*
X123820935Y-107645742D01*
X123820935Y-107645742D01*
G37*
G36*
X151436425Y-107292759D02*
G01*
X151436428Y-107292760D01*
X151436429Y-107292760D01*
X151615693Y-107347139D01*
X151615696Y-107347141D01*
X151615697Y-107347141D01*
X151780903Y-107435445D01*
X151925712Y-107554287D01*
X152044554Y-107699096D01*
X152132858Y-107864302D01*
X152132860Y-107864306D01*
X152187239Y-108043570D01*
X152187240Y-108043574D01*
X152205601Y-108229999D01*
X152187240Y-108416424D01*
X152187239Y-108416427D01*
X152187239Y-108416428D01*
X152132860Y-108595692D01*
X152132858Y-108595695D01*
X152132858Y-108595696D01*
X152044554Y-108760902D01*
X151925712Y-108905711D01*
X151780903Y-109024553D01*
X151615697Y-109112857D01*
X151615693Y-109112859D01*
X151436429Y-109167238D01*
X151436428Y-109167238D01*
X151436425Y-109167239D01*
X151296718Y-109180999D01*
X151203282Y-109180999D01*
X151063575Y-109167239D01*
X151063572Y-109167238D01*
X151063571Y-109167238D01*
X150884307Y-109112859D01*
X150884303Y-109112857D01*
X150719097Y-109024553D01*
X150574288Y-108905711D01*
X150455446Y-108760902D01*
X150367142Y-108595696D01*
X150367142Y-108595695D01*
X150367140Y-108595692D01*
X150312761Y-108416428D01*
X150312761Y-108416427D01*
X150312760Y-108416424D01*
X150294399Y-108229999D01*
X150312760Y-108043574D01*
X150312761Y-108043570D01*
X150367140Y-107864306D01*
X150367142Y-107864302D01*
X150455446Y-107699096D01*
X150574288Y-107554287D01*
X150719097Y-107435445D01*
X150884303Y-107347141D01*
X150884304Y-107347141D01*
X150884307Y-107347139D01*
X151063571Y-107292760D01*
X151063572Y-107292760D01*
X151063575Y-107292759D01*
X151203282Y-107278999D01*
X151296718Y-107278999D01*
X151436425Y-107292759D01*
X151436425Y-107292759D01*
G37*
G36*
X162361000Y-109180999D02*
G01*
X160459000Y-109180999D01*
X160459000Y-107278999D01*
X162361000Y-107278999D01*
X162361000Y-109180999D01*
X162361000Y-109180999D01*
G37*
G36*
X119546564Y-106579389D02*
G01*
X119737833Y-106658615D01*
X119737835Y-106658616D01*
X119898546Y-106766000D01*
X119909973Y-106773635D01*
X120056365Y-106920027D01*
X120171385Y-107092167D01*
X120250611Y-107283436D01*
X120291000Y-107486484D01*
X120291000Y-107693516D01*
X120250611Y-107896564D01*
X120188083Y-108047520D01*
X120171384Y-108087835D01*
X120056365Y-108259973D01*
X119909973Y-108406365D01*
X119737835Y-108521384D01*
X119737834Y-108521385D01*
X119737833Y-108521385D01*
X119546564Y-108600611D01*
X119343516Y-108641000D01*
X119136484Y-108641000D01*
X118933436Y-108600611D01*
X118742167Y-108521385D01*
X118742166Y-108521385D01*
X118742165Y-108521384D01*
X118570027Y-108406365D01*
X118423635Y-108259973D01*
X118308616Y-108087835D01*
X118291917Y-108047520D01*
X118229389Y-107896564D01*
X118189000Y-107693516D01*
X118189000Y-107486484D01*
X118229389Y-107283436D01*
X118308615Y-107092167D01*
X118423635Y-106920027D01*
X118570027Y-106773635D01*
X118581454Y-106766000D01*
X118742165Y-106658616D01*
X118742167Y-106658615D01*
X118933436Y-106579389D01*
X119136484Y-106539000D01*
X119343516Y-106539000D01*
X119546564Y-106579389D01*
X119546564Y-106579389D01*
G37*
G36*
X113046564Y-106579389D02*
G01*
X113237833Y-106658615D01*
X113237835Y-106658616D01*
X113398546Y-106766000D01*
X113409973Y-106773635D01*
X113556365Y-106920027D01*
X113671385Y-107092167D01*
X113750611Y-107283436D01*
X113791000Y-107486484D01*
X113791000Y-107693516D01*
X113750611Y-107896564D01*
X113688083Y-108047520D01*
X113671384Y-108087835D01*
X113556365Y-108259973D01*
X113409973Y-108406365D01*
X113237835Y-108521384D01*
X113237834Y-108521385D01*
X113237833Y-108521385D01*
X113046564Y-108600611D01*
X112843516Y-108641000D01*
X112636484Y-108641000D01*
X112433436Y-108600611D01*
X112242167Y-108521385D01*
X112242166Y-108521385D01*
X112242165Y-108521384D01*
X112070027Y-108406365D01*
X111923635Y-108259973D01*
X111808616Y-108087835D01*
X111791917Y-108047520D01*
X111729389Y-107896564D01*
X111689000Y-107693516D01*
X111689000Y-107486484D01*
X111729389Y-107283436D01*
X111808615Y-107092167D01*
X111923635Y-106920027D01*
X112070027Y-106773635D01*
X112081454Y-106766000D01*
X112242165Y-106658616D01*
X112242167Y-106658615D01*
X112433436Y-106579389D01*
X112636484Y-106539000D01*
X112843516Y-106539000D01*
X113046564Y-106579389D01*
X113046564Y-106579389D01*
G37*
G36*
X134991000Y-106781000D02*
G01*
X133389000Y-106781000D01*
X133389000Y-105179000D01*
X134991000Y-105179000D01*
X134991000Y-106781000D01*
X134991000Y-106781000D01*
G37*
G36*
X129406000Y-106766000D02*
G01*
X127754000Y-106766000D01*
X127754000Y-105114000D01*
X129406000Y-105114000D01*
X129406000Y-106766000D01*
X129406000Y-106766000D01*
G37*
G36*
X138976823Y-104721313D02*
G01*
X139137242Y-104769976D01*
X139204361Y-104805852D01*
X139285078Y-104848996D01*
X139414659Y-104955341D01*
X139521004Y-105084922D01*
X139521005Y-105084924D01*
X139600024Y-105232758D01*
X139648687Y-105393177D01*
X139665117Y-105560000D01*
X139648687Y-105726823D01*
X139600024Y-105887242D01*
X139559477Y-105963100D01*
X139521004Y-106035078D01*
X139414659Y-106164659D01*
X139285078Y-106271004D01*
X139285076Y-106271005D01*
X139137242Y-106350024D01*
X138976823Y-106398687D01*
X138851804Y-106411000D01*
X138768196Y-106411000D01*
X138643177Y-106398687D01*
X138482758Y-106350024D01*
X138334924Y-106271005D01*
X138334922Y-106271004D01*
X138205341Y-106164659D01*
X138098996Y-106035078D01*
X138060523Y-105963100D01*
X138019976Y-105887242D01*
X137971313Y-105726823D01*
X137954883Y-105560000D01*
X137971313Y-105393177D01*
X138019976Y-105232758D01*
X138098995Y-105084924D01*
X138098996Y-105084922D01*
X138205341Y-104955341D01*
X138334922Y-104848996D01*
X138415639Y-104805852D01*
X138482758Y-104769976D01*
X138643177Y-104721313D01*
X138768196Y-104709000D01*
X138851804Y-104709000D01*
X138976823Y-104721313D01*
X138976823Y-104721313D01*
G37*
G36*
X149218228Y-104741703D02*
G01*
X149373100Y-104805853D01*
X149512481Y-104898985D01*
X149631015Y-105017519D01*
X149724147Y-105156900D01*
X149788297Y-105311772D01*
X149821000Y-105476184D01*
X149821000Y-105643816D01*
X149788297Y-105808228D01*
X149724147Y-105963100D01*
X149631015Y-106102481D01*
X149512481Y-106221015D01*
X149373100Y-106314147D01*
X149218228Y-106378297D01*
X149053816Y-106411000D01*
X148886184Y-106411000D01*
X148721772Y-106378297D01*
X148566900Y-106314147D01*
X148427519Y-106221015D01*
X148308985Y-106102481D01*
X148215853Y-105963100D01*
X148151703Y-105808228D01*
X148119000Y-105643816D01*
X148119000Y-105476184D01*
X148151703Y-105311772D01*
X148215853Y-105156900D01*
X148308985Y-105017519D01*
X148427519Y-104898985D01*
X148566900Y-104805853D01*
X148721772Y-104741703D01*
X148886184Y-104709000D01*
X149053816Y-104709000D01*
X149218228Y-104741703D01*
X149218228Y-104741703D01*
G37*
G36*
X152201000Y-105937666D02*
G01*
X150299000Y-105937666D01*
X150299000Y-104035666D01*
X152201000Y-104035666D01*
X152201000Y-105937666D01*
X152201000Y-105937666D01*
G37*
G36*
X161596425Y-104049426D02*
G01*
X161596428Y-104049427D01*
X161596429Y-104049427D01*
X161775693Y-104103806D01*
X161775696Y-104103808D01*
X161775697Y-104103808D01*
X161940903Y-104192112D01*
X162085712Y-104310954D01*
X162204554Y-104455763D01*
X162292858Y-104620969D01*
X162292860Y-104620973D01*
X162338059Y-104769975D01*
X162347240Y-104800241D01*
X162365601Y-104986666D01*
X162347240Y-105173091D01*
X162347239Y-105173094D01*
X162347239Y-105173095D01*
X162292860Y-105352359D01*
X162292858Y-105352362D01*
X162292858Y-105352363D01*
X162204554Y-105517569D01*
X162085712Y-105662378D01*
X161940903Y-105781220D01*
X161775697Y-105869524D01*
X161775693Y-105869526D01*
X161596429Y-105923905D01*
X161596428Y-105923905D01*
X161596425Y-105923906D01*
X161456718Y-105937666D01*
X161363282Y-105937666D01*
X161223575Y-105923906D01*
X161223572Y-105923905D01*
X161223571Y-105923905D01*
X161044307Y-105869526D01*
X161044303Y-105869524D01*
X160879097Y-105781220D01*
X160734288Y-105662378D01*
X160615446Y-105517569D01*
X160527142Y-105352363D01*
X160527142Y-105352362D01*
X160527140Y-105352359D01*
X160472761Y-105173095D01*
X160472761Y-105173094D01*
X160472760Y-105173091D01*
X160454399Y-104986666D01*
X160472760Y-104800241D01*
X160481941Y-104769975D01*
X160527140Y-104620973D01*
X160527142Y-104620969D01*
X160615446Y-104455763D01*
X160734288Y-104310954D01*
X160879097Y-104192112D01*
X161044303Y-104103808D01*
X161044304Y-104103808D01*
X161044307Y-104103806D01*
X161223571Y-104049427D01*
X161223572Y-104049427D01*
X161223575Y-104049426D01*
X161363282Y-104035666D01*
X161456718Y-104035666D01*
X161596425Y-104049426D01*
X161596425Y-104049426D01*
G37*
G36*
X118771000Y-105501000D02*
G01*
X117169000Y-105501000D01*
X117169000Y-103899000D01*
X118771000Y-103899000D01*
X118771000Y-105501000D01*
X118771000Y-105501000D01*
G37*
G36*
X113116564Y-103189389D02*
G01*
X113270557Y-103253175D01*
X113307835Y-103268616D01*
X113479973Y-103383635D01*
X113626365Y-103530027D01*
X113718709Y-103668229D01*
X113741385Y-103702167D01*
X113820611Y-103893436D01*
X113861000Y-104096484D01*
X113861000Y-104303516D01*
X113820611Y-104506564D01*
X113773223Y-104620969D01*
X113741384Y-104697835D01*
X113626365Y-104869973D01*
X113479973Y-105016365D01*
X113307835Y-105131384D01*
X113307834Y-105131385D01*
X113307833Y-105131385D01*
X113116564Y-105210611D01*
X112913516Y-105251000D01*
X112706484Y-105251000D01*
X112503436Y-105210611D01*
X112312167Y-105131385D01*
X112312166Y-105131385D01*
X112312165Y-105131384D01*
X112140027Y-105016365D01*
X111993635Y-104869973D01*
X111878616Y-104697835D01*
X111846777Y-104620969D01*
X111799389Y-104506564D01*
X111759000Y-104303516D01*
X111759000Y-104096484D01*
X111799389Y-103893436D01*
X111878615Y-103702167D01*
X111901292Y-103668229D01*
X111993635Y-103530027D01*
X112140027Y-103383635D01*
X112312165Y-103268616D01*
X112349443Y-103253175D01*
X112503436Y-103189389D01*
X112706484Y-103149000D01*
X112913516Y-103149000D01*
X113116564Y-103189389D01*
X113116564Y-103189389D01*
G37*
G36*
X108616564Y-103189389D02*
G01*
X108770557Y-103253175D01*
X108807835Y-103268616D01*
X108979973Y-103383635D01*
X109126365Y-103530027D01*
X109218709Y-103668229D01*
X109241385Y-103702167D01*
X109320611Y-103893436D01*
X109361000Y-104096484D01*
X109361000Y-104303516D01*
X109320611Y-104506564D01*
X109273223Y-104620969D01*
X109241384Y-104697835D01*
X109126365Y-104869973D01*
X108979973Y-105016365D01*
X108807835Y-105131384D01*
X108807834Y-105131385D01*
X108807833Y-105131385D01*
X108616564Y-105210611D01*
X108413516Y-105251000D01*
X108206484Y-105251000D01*
X108003436Y-105210611D01*
X107812167Y-105131385D01*
X107812166Y-105131385D01*
X107812165Y-105131384D01*
X107640027Y-105016365D01*
X107493635Y-104869973D01*
X107378616Y-104697835D01*
X107346777Y-104620969D01*
X107299389Y-104506564D01*
X107259000Y-104303516D01*
X107259000Y-104096484D01*
X107299389Y-103893436D01*
X107378615Y-103702167D01*
X107401292Y-103668229D01*
X107493635Y-103530027D01*
X107640027Y-103383635D01*
X107812165Y-103268616D01*
X107849443Y-103253175D01*
X108003436Y-103189389D01*
X108206484Y-103149000D01*
X108413516Y-103149000D01*
X108616564Y-103189389D01*
X108616564Y-103189389D01*
G37*
G36*
X123461000Y-104471000D02*
G01*
X121759000Y-104471000D01*
X121759000Y-102769000D01*
X123461000Y-102769000D01*
X123461000Y-104471000D01*
X123461000Y-104471000D01*
G37*
G36*
X136856823Y-102581313D02*
G01*
X137017242Y-102629976D01*
X137070956Y-102658687D01*
X137165078Y-102708996D01*
X137294659Y-102815341D01*
X137401004Y-102944922D01*
X137401005Y-102944924D01*
X137480024Y-103092758D01*
X137528687Y-103253177D01*
X137545117Y-103420000D01*
X137528687Y-103586823D01*
X137480024Y-103747242D01*
X137439477Y-103823100D01*
X137401004Y-103895078D01*
X137294659Y-104024659D01*
X137165078Y-104131004D01*
X137165076Y-104131005D01*
X137017242Y-104210024D01*
X136856823Y-104258687D01*
X136731804Y-104271000D01*
X136648196Y-104271000D01*
X136523177Y-104258687D01*
X136362758Y-104210024D01*
X136214924Y-104131005D01*
X136214922Y-104131004D01*
X136085341Y-104024659D01*
X135978996Y-103895078D01*
X135940523Y-103823100D01*
X135899976Y-103747242D01*
X135851313Y-103586823D01*
X135834883Y-103420000D01*
X135851313Y-103253177D01*
X135899976Y-103092758D01*
X135978995Y-102944924D01*
X135978996Y-102944922D01*
X136085341Y-102815341D01*
X136214922Y-102708996D01*
X136309044Y-102658687D01*
X136362758Y-102629976D01*
X136523177Y-102581313D01*
X136648196Y-102569000D01*
X136731804Y-102569000D01*
X136856823Y-102581313D01*
X136856823Y-102581313D01*
G37*
G36*
X126778228Y-102601703D02*
G01*
X126933100Y-102665853D01*
X127072481Y-102758985D01*
X127191015Y-102877519D01*
X127284147Y-103016900D01*
X127348297Y-103171772D01*
X127381000Y-103336184D01*
X127381000Y-103503816D01*
X127348297Y-103668228D01*
X127284147Y-103823100D01*
X127191015Y-103962481D01*
X127072481Y-104081015D01*
X126933100Y-104174147D01*
X126778228Y-104238297D01*
X126613816Y-104271000D01*
X126446184Y-104271000D01*
X126281772Y-104238297D01*
X126126900Y-104174147D01*
X125987519Y-104081015D01*
X125868985Y-103962481D01*
X125775853Y-103823100D01*
X125711703Y-103668228D01*
X125679000Y-103503816D01*
X125679000Y-103336184D01*
X125711703Y-103171772D01*
X125775853Y-103016900D01*
X125868985Y-102877519D01*
X125987519Y-102758985D01*
X126126900Y-102665853D01*
X126281772Y-102601703D01*
X126446184Y-102569000D01*
X126613816Y-102569000D01*
X126778228Y-102601703D01*
X126778228Y-102601703D01*
G37*
G36*
X115663642Y-101389781D02*
G01*
X115809414Y-101450162D01*
X115809416Y-101450163D01*
X115940608Y-101537822D01*
X116052178Y-101649392D01*
X116139837Y-101780584D01*
X116139838Y-101780586D01*
X116200219Y-101926358D01*
X116231000Y-102081107D01*
X116231000Y-102238893D01*
X116200219Y-102393642D01*
X116139838Y-102539414D01*
X116139837Y-102539416D01*
X116052178Y-102670608D01*
X115940608Y-102782178D01*
X115809416Y-102869837D01*
X115809415Y-102869838D01*
X115809414Y-102869838D01*
X115663642Y-102930219D01*
X115508893Y-102961000D01*
X115351107Y-102961000D01*
X115196358Y-102930219D01*
X115050586Y-102869838D01*
X115050585Y-102869838D01*
X115050584Y-102869837D01*
X114919392Y-102782178D01*
X114807822Y-102670608D01*
X114720163Y-102539416D01*
X114720162Y-102539414D01*
X114659781Y-102393642D01*
X114629000Y-102238893D01*
X114629000Y-102081107D01*
X114659781Y-101926358D01*
X114720162Y-101780586D01*
X114720163Y-101780584D01*
X114807822Y-101649392D01*
X114919392Y-101537822D01*
X115050584Y-101450163D01*
X115050586Y-101450162D01*
X115196358Y-101389781D01*
X115351107Y-101359000D01*
X115508893Y-101359000D01*
X115663642Y-101389781D01*
X115663642Y-101389781D01*
G37*
G36*
X161596425Y-100806093D02*
G01*
X161596428Y-100806094D01*
X161596429Y-100806094D01*
X161775693Y-100860473D01*
X161775696Y-100860475D01*
X161775697Y-100860475D01*
X161940903Y-100948779D01*
X162085712Y-101067621D01*
X162204554Y-101212430D01*
X162275372Y-101344922D01*
X162292860Y-101377640D01*
X162347239Y-101556904D01*
X162347240Y-101556908D01*
X162365601Y-101743333D01*
X162347240Y-101929758D01*
X162347239Y-101929761D01*
X162347239Y-101929762D01*
X162292860Y-102109026D01*
X162292858Y-102109029D01*
X162292858Y-102109030D01*
X162204554Y-102274236D01*
X162085712Y-102419045D01*
X161940903Y-102537887D01*
X161775697Y-102626191D01*
X161775693Y-102626193D01*
X161596429Y-102680572D01*
X161596428Y-102680572D01*
X161596425Y-102680573D01*
X161456718Y-102694333D01*
X161363282Y-102694333D01*
X161223575Y-102680573D01*
X161223572Y-102680572D01*
X161223571Y-102680572D01*
X161044307Y-102626193D01*
X161044303Y-102626191D01*
X160879097Y-102537887D01*
X160734288Y-102419045D01*
X160615446Y-102274236D01*
X160527142Y-102109030D01*
X160527142Y-102109029D01*
X160527140Y-102109026D01*
X160472761Y-101929762D01*
X160472761Y-101929761D01*
X160472760Y-101929758D01*
X160454399Y-101743333D01*
X160472760Y-101556908D01*
X160472761Y-101556904D01*
X160527140Y-101377640D01*
X160544628Y-101344922D01*
X160615446Y-101212430D01*
X160734288Y-101067621D01*
X160879097Y-100948779D01*
X161044303Y-100860475D01*
X161044304Y-100860475D01*
X161044307Y-100860473D01*
X161223571Y-100806094D01*
X161223572Y-100806094D01*
X161223575Y-100806093D01*
X161363282Y-100792333D01*
X161456718Y-100792333D01*
X161596425Y-100806093D01*
X161596425Y-100806093D01*
G37*
G36*
X152201000Y-102694333D02*
G01*
X150299000Y-102694333D01*
X150299000Y-100792333D01*
X152201000Y-100792333D01*
X152201000Y-102694333D01*
X152201000Y-102694333D01*
G37*
G36*
X139036823Y-100981313D02*
G01*
X139197242Y-101029976D01*
X139329906Y-101100886D01*
X139345078Y-101108996D01*
X139474659Y-101215341D01*
X139581004Y-101344922D01*
X139581005Y-101344924D01*
X139660024Y-101492758D01*
X139708687Y-101653177D01*
X139725117Y-101820000D01*
X139708687Y-101986823D01*
X139660024Y-102147242D01*
X139619477Y-102223100D01*
X139581004Y-102295078D01*
X139474659Y-102424659D01*
X139345078Y-102531004D01*
X139345076Y-102531005D01*
X139197242Y-102610024D01*
X139036823Y-102658687D01*
X138911804Y-102671000D01*
X138828196Y-102671000D01*
X138703177Y-102658687D01*
X138542758Y-102610024D01*
X138394924Y-102531005D01*
X138394922Y-102531004D01*
X138265341Y-102424659D01*
X138158996Y-102295078D01*
X138120523Y-102223100D01*
X138079976Y-102147242D01*
X138031313Y-101986823D01*
X138014883Y-101820000D01*
X138031313Y-101653177D01*
X138079976Y-101492758D01*
X138158995Y-101344924D01*
X138158996Y-101344922D01*
X138265341Y-101215341D01*
X138394922Y-101108996D01*
X138410094Y-101100886D01*
X138542758Y-101029976D01*
X138703177Y-100981313D01*
X138828196Y-100969000D01*
X138911804Y-100969000D01*
X139036823Y-100981313D01*
X139036823Y-100981313D01*
G37*
G36*
X149278228Y-101001703D02*
G01*
X149433100Y-101065853D01*
X149572481Y-101158985D01*
X149691015Y-101277519D01*
X149784147Y-101416900D01*
X149848297Y-101571772D01*
X149881000Y-101736184D01*
X149881000Y-101903816D01*
X149848297Y-102068228D01*
X149784147Y-102223100D01*
X149691015Y-102362481D01*
X149572481Y-102481015D01*
X149433100Y-102574147D01*
X149278228Y-102638297D01*
X149113816Y-102671000D01*
X148946184Y-102671000D01*
X148781772Y-102638297D01*
X148626900Y-102574147D01*
X148487519Y-102481015D01*
X148368985Y-102362481D01*
X148275853Y-102223100D01*
X148211703Y-102068228D01*
X148179000Y-101903816D01*
X148179000Y-101736184D01*
X148211703Y-101571772D01*
X148275853Y-101416900D01*
X148368985Y-101277519D01*
X148487519Y-101158985D01*
X148626900Y-101065853D01*
X148781772Y-101001703D01*
X148946184Y-100969000D01*
X149113816Y-100969000D01*
X149278228Y-101001703D01*
X149278228Y-101001703D01*
G37*
G36*
X122858228Y-100301703D02*
G01*
X123013100Y-100365853D01*
X123152481Y-100458985D01*
X123271015Y-100577519D01*
X123364147Y-100716900D01*
X123428297Y-100871772D01*
X123461000Y-101036184D01*
X123461000Y-101203816D01*
X123428297Y-101368228D01*
X123364147Y-101523100D01*
X123271015Y-101662481D01*
X123152481Y-101781015D01*
X123013100Y-101874147D01*
X122858228Y-101938297D01*
X122693816Y-101971000D01*
X122526184Y-101971000D01*
X122361772Y-101938297D01*
X122206900Y-101874147D01*
X122067519Y-101781015D01*
X121948985Y-101662481D01*
X121855853Y-101523100D01*
X121791703Y-101368228D01*
X121759000Y-101203816D01*
X121759000Y-101036184D01*
X121791703Y-100871772D01*
X121855853Y-100716900D01*
X121948985Y-100577519D01*
X122067519Y-100458985D01*
X122206900Y-100365853D01*
X122361772Y-100301703D01*
X122526184Y-100269000D01*
X122693816Y-100269000D01*
X122858228Y-100301703D01*
X122858228Y-100301703D01*
G37*
G36*
X126696823Y-99544647D02*
G01*
X126857242Y-99593310D01*
X126989906Y-99664220D01*
X127005078Y-99672330D01*
X127134659Y-99778675D01*
X127241004Y-99908256D01*
X127241005Y-99908258D01*
X127320024Y-100056092D01*
X127368687Y-100216511D01*
X127385117Y-100383334D01*
X127368687Y-100550157D01*
X127320024Y-100710576D01*
X127249114Y-100843240D01*
X127241004Y-100858412D01*
X127134659Y-100987993D01*
X127005078Y-101094338D01*
X127005076Y-101094339D01*
X126857242Y-101173358D01*
X126696823Y-101222021D01*
X126571804Y-101234334D01*
X126488196Y-101234334D01*
X126363177Y-101222021D01*
X126202758Y-101173358D01*
X126054924Y-101094339D01*
X126054922Y-101094338D01*
X125925341Y-100987993D01*
X125818996Y-100858412D01*
X125810886Y-100843240D01*
X125739976Y-100710576D01*
X125691313Y-100550157D01*
X125674883Y-100383334D01*
X125691313Y-100216511D01*
X125739976Y-100056092D01*
X125818995Y-99908258D01*
X125818996Y-99908256D01*
X125925341Y-99778675D01*
X126054922Y-99672330D01*
X126070094Y-99664220D01*
X126202758Y-99593310D01*
X126363177Y-99544647D01*
X126488196Y-99532334D01*
X126571804Y-99532334D01*
X126696823Y-99544647D01*
X126696823Y-99544647D01*
G37*
G36*
X136938228Y-99565037D02*
G01*
X137093100Y-99629187D01*
X137232481Y-99722319D01*
X137351015Y-99840853D01*
X137444147Y-99980234D01*
X137508297Y-100135106D01*
X137541000Y-100299518D01*
X137541000Y-100467150D01*
X137508297Y-100631562D01*
X137444147Y-100786434D01*
X137351015Y-100925815D01*
X137232481Y-101044349D01*
X137093100Y-101137481D01*
X136938228Y-101201631D01*
X136773816Y-101234334D01*
X136606184Y-101234334D01*
X136441772Y-101201631D01*
X136286900Y-101137481D01*
X136147519Y-101044349D01*
X136028985Y-100925815D01*
X135935853Y-100786434D01*
X135871703Y-100631562D01*
X135839000Y-100467150D01*
X135839000Y-100299518D01*
X135871703Y-100135106D01*
X135935853Y-99980234D01*
X136028985Y-99840853D01*
X136147519Y-99722319D01*
X136286900Y-99629187D01*
X136441772Y-99565037D01*
X136606184Y-99532334D01*
X136773816Y-99532334D01*
X136938228Y-99565037D01*
X136938228Y-99565037D01*
G37*
G36*
X118203642Y-98849781D02*
G01*
X118349414Y-98910162D01*
X118349416Y-98910163D01*
X118480608Y-98997822D01*
X118592178Y-99109392D01*
X118636491Y-99175712D01*
X118679838Y-99240586D01*
X118740219Y-99386358D01*
X118771000Y-99541107D01*
X118771000Y-99698893D01*
X118740219Y-99853642D01*
X118687781Y-99980237D01*
X118679837Y-99999416D01*
X118592178Y-100130608D01*
X118480608Y-100242178D01*
X118349416Y-100329837D01*
X118349415Y-100329838D01*
X118349414Y-100329838D01*
X118203642Y-100390219D01*
X118048893Y-100421000D01*
X117891107Y-100421000D01*
X117736358Y-100390219D01*
X117590586Y-100329838D01*
X117590585Y-100329838D01*
X117590584Y-100329837D01*
X117459392Y-100242178D01*
X117347822Y-100130608D01*
X117260163Y-99999416D01*
X117252219Y-99980237D01*
X117199781Y-99853642D01*
X117169000Y-99698893D01*
X117169000Y-99541107D01*
X117199781Y-99386358D01*
X117260162Y-99240586D01*
X117303509Y-99175712D01*
X117347822Y-99109392D01*
X117459392Y-98997822D01*
X117590584Y-98910163D01*
X117590586Y-98910162D01*
X117736358Y-98849781D01*
X117891107Y-98819000D01*
X118048893Y-98819000D01*
X118203642Y-98849781D01*
X118203642Y-98849781D01*
G37*
G36*
X149278228Y-97971703D02*
G01*
X149433100Y-98035853D01*
X149572481Y-98128985D01*
X149691015Y-98247519D01*
X149784147Y-98386900D01*
X149848297Y-98541772D01*
X149881000Y-98706184D01*
X149881000Y-98873816D01*
X149848297Y-99038228D01*
X149784147Y-99193100D01*
X149691015Y-99332481D01*
X149572481Y-99451015D01*
X149433100Y-99544147D01*
X149278228Y-99608297D01*
X149113816Y-99641000D01*
X148946184Y-99641000D01*
X148781772Y-99608297D01*
X148626900Y-99544147D01*
X148487519Y-99451015D01*
X148368985Y-99332481D01*
X148275853Y-99193100D01*
X148211703Y-99038228D01*
X148179000Y-98873816D01*
X148179000Y-98706184D01*
X148211703Y-98541772D01*
X148275853Y-98386900D01*
X148368985Y-98247519D01*
X148487519Y-98128985D01*
X148626900Y-98035853D01*
X148781772Y-97971703D01*
X148946184Y-97939000D01*
X149113816Y-97939000D01*
X149278228Y-97971703D01*
X149278228Y-97971703D01*
G37*
G36*
X139036823Y-97951313D02*
G01*
X139197242Y-97999976D01*
X139305185Y-98057673D01*
X139345078Y-98078996D01*
X139474659Y-98185341D01*
X139581004Y-98314922D01*
X139581005Y-98314924D01*
X139660024Y-98462758D01*
X139708687Y-98623177D01*
X139725117Y-98790000D01*
X139708687Y-98956823D01*
X139660024Y-99117242D01*
X139619477Y-99193100D01*
X139581004Y-99265078D01*
X139474659Y-99394659D01*
X139345078Y-99501004D01*
X139345076Y-99501005D01*
X139197242Y-99580024D01*
X139036823Y-99628687D01*
X138911804Y-99641000D01*
X138828196Y-99641000D01*
X138703177Y-99628687D01*
X138542758Y-99580024D01*
X138394924Y-99501005D01*
X138394922Y-99501004D01*
X138265341Y-99394659D01*
X138158996Y-99265078D01*
X138120523Y-99193100D01*
X138079976Y-99117242D01*
X138031313Y-98956823D01*
X138014883Y-98790000D01*
X138031313Y-98623177D01*
X138079976Y-98462758D01*
X138158995Y-98314924D01*
X138158996Y-98314922D01*
X138265341Y-98185341D01*
X138394922Y-98078996D01*
X138434815Y-98057673D01*
X138542758Y-97999976D01*
X138703177Y-97951313D01*
X138828196Y-97939000D01*
X138911804Y-97939000D01*
X139036823Y-97951313D01*
X139036823Y-97951313D01*
G37*
G36*
X162361000Y-99451000D02*
G01*
X160459000Y-99451000D01*
X160459000Y-97549000D01*
X162361000Y-97549000D01*
X162361000Y-99451000D01*
X162361000Y-99451000D01*
G37*
G36*
X151436425Y-97562760D02*
G01*
X151436428Y-97562761D01*
X151436429Y-97562761D01*
X151615693Y-97617140D01*
X151615696Y-97617142D01*
X151615697Y-97617142D01*
X151780903Y-97705446D01*
X151925712Y-97824288D01*
X152044554Y-97969097D01*
X152114958Y-98100815D01*
X152132860Y-98134307D01*
X152183073Y-98299837D01*
X152187240Y-98313575D01*
X152205601Y-98500000D01*
X152187240Y-98686425D01*
X152187239Y-98686428D01*
X152187239Y-98686429D01*
X152132860Y-98865693D01*
X152132858Y-98865696D01*
X152132858Y-98865697D01*
X152044554Y-99030903D01*
X151925712Y-99175712D01*
X151780903Y-99294554D01*
X151615697Y-99382858D01*
X151615693Y-99382860D01*
X151436429Y-99437239D01*
X151436428Y-99437239D01*
X151436425Y-99437240D01*
X151296718Y-99451000D01*
X151203282Y-99451000D01*
X151063575Y-99437240D01*
X151063572Y-99437239D01*
X151063571Y-99437239D01*
X150884307Y-99382860D01*
X150884303Y-99382858D01*
X150719097Y-99294554D01*
X150574288Y-99175712D01*
X150455446Y-99030903D01*
X150367142Y-98865697D01*
X150367142Y-98865696D01*
X150367140Y-98865693D01*
X150312761Y-98686429D01*
X150312761Y-98686428D01*
X150312760Y-98686425D01*
X150294399Y-98500000D01*
X150312760Y-98313575D01*
X150316927Y-98299837D01*
X150367140Y-98134307D01*
X150385042Y-98100815D01*
X150455446Y-97969097D01*
X150574288Y-97824288D01*
X150719097Y-97705446D01*
X150884303Y-97617142D01*
X150884304Y-97617142D01*
X150884307Y-97617140D01*
X151063571Y-97562761D01*
X151063572Y-97562761D01*
X151063575Y-97562760D01*
X151203282Y-97549000D01*
X151296718Y-97549000D01*
X151436425Y-97562760D01*
X151436425Y-97562760D01*
G37*
G36*
X175352075Y-96085712D02*
G01*
X175542576Y-96123605D01*
X175824840Y-96240522D01*
X176078871Y-96410260D01*
X176294907Y-96626296D01*
X176464645Y-96880327D01*
X176581562Y-97162591D01*
X176598610Y-97248297D01*
X176641166Y-97462240D01*
X176641166Y-97767762D01*
X176611364Y-97917586D01*
X176581562Y-98067411D01*
X176464645Y-98349675D01*
X176294907Y-98603706D01*
X176078871Y-98819742D01*
X175824840Y-98989480D01*
X175542576Y-99106397D01*
X175488054Y-99117242D01*
X175242927Y-99166001D01*
X174937405Y-99166001D01*
X174692278Y-99117242D01*
X174637756Y-99106397D01*
X174355492Y-98989480D01*
X174101461Y-98819742D01*
X173885425Y-98603706D01*
X173715687Y-98349675D01*
X173598770Y-98067411D01*
X173568968Y-97917586D01*
X173539166Y-97767762D01*
X173539166Y-97462240D01*
X173581722Y-97248297D01*
X173598770Y-97162591D01*
X173715687Y-96880327D01*
X173885425Y-96626296D01*
X174101461Y-96410260D01*
X174355492Y-96240522D01*
X174637756Y-96123605D01*
X174828257Y-96085712D01*
X174937405Y-96064001D01*
X175242927Y-96064001D01*
X175352075Y-96085712D01*
X175352075Y-96085712D01*
G37*
G36*
X113116564Y-96689389D02*
G01*
X113243600Y-96742009D01*
X113307835Y-96768616D01*
X113479973Y-96883635D01*
X113626365Y-97030027D01*
X113729345Y-97184147D01*
X113741385Y-97202167D01*
X113820611Y-97393436D01*
X113861000Y-97596484D01*
X113861000Y-97803516D01*
X113820611Y-98006564D01*
X113741453Y-98197668D01*
X113741384Y-98197835D01*
X113626365Y-98369973D01*
X113479973Y-98516365D01*
X113307835Y-98631384D01*
X113307834Y-98631385D01*
X113307833Y-98631385D01*
X113116564Y-98710611D01*
X112913516Y-98751000D01*
X112706484Y-98751000D01*
X112503436Y-98710611D01*
X112312167Y-98631385D01*
X112312166Y-98631385D01*
X112312165Y-98631384D01*
X112140027Y-98516365D01*
X111993635Y-98369973D01*
X111878616Y-98197835D01*
X111878547Y-98197668D01*
X111799389Y-98006564D01*
X111759000Y-97803516D01*
X111759000Y-97596484D01*
X111799389Y-97393436D01*
X111878615Y-97202167D01*
X111890656Y-97184147D01*
X111993635Y-97030027D01*
X112140027Y-96883635D01*
X112312165Y-96768616D01*
X112376400Y-96742009D01*
X112503436Y-96689389D01*
X112706484Y-96649000D01*
X112913516Y-96649000D01*
X113116564Y-96689389D01*
X113116564Y-96689389D01*
G37*
G36*
X108616564Y-96689389D02*
G01*
X108743600Y-96742009D01*
X108807835Y-96768616D01*
X108979973Y-96883635D01*
X109126365Y-97030027D01*
X109229345Y-97184147D01*
X109241385Y-97202167D01*
X109320611Y-97393436D01*
X109361000Y-97596484D01*
X109361000Y-97803516D01*
X109320611Y-98006564D01*
X109241453Y-98197668D01*
X109241384Y-98197835D01*
X109126365Y-98369973D01*
X108979973Y-98516365D01*
X108807835Y-98631384D01*
X108807834Y-98631385D01*
X108807833Y-98631385D01*
X108616564Y-98710611D01*
X108413516Y-98751000D01*
X108206484Y-98751000D01*
X108003436Y-98710611D01*
X107812167Y-98631385D01*
X107812166Y-98631385D01*
X107812165Y-98631384D01*
X107640027Y-98516365D01*
X107493635Y-98369973D01*
X107378616Y-98197835D01*
X107378547Y-98197668D01*
X107299389Y-98006564D01*
X107259000Y-97803516D01*
X107259000Y-97596484D01*
X107299389Y-97393436D01*
X107378615Y-97202167D01*
X107390656Y-97184147D01*
X107493635Y-97030027D01*
X107640027Y-96883635D01*
X107812165Y-96768616D01*
X107876400Y-96742009D01*
X108003436Y-96689389D01*
X108206484Y-96649000D01*
X108413516Y-96649000D01*
X108616564Y-96689389D01*
X108616564Y-96689389D01*
G37*
G36*
X116503642Y-96819781D02*
G01*
X116628719Y-96871590D01*
X116649416Y-96880163D01*
X116780608Y-96967822D01*
X116892178Y-97079392D01*
X116974213Y-97202167D01*
X116979838Y-97210586D01*
X117040219Y-97356358D01*
X117071000Y-97511107D01*
X117071000Y-97668893D01*
X117040219Y-97823642D01*
X116987335Y-97951314D01*
X116979837Y-97969416D01*
X116892178Y-98100608D01*
X116780608Y-98212178D01*
X116649416Y-98299837D01*
X116649415Y-98299838D01*
X116649414Y-98299838D01*
X116503642Y-98360219D01*
X116348893Y-98391000D01*
X116191107Y-98391000D01*
X116036358Y-98360219D01*
X115890586Y-98299838D01*
X115890585Y-98299838D01*
X115890584Y-98299837D01*
X115759392Y-98212178D01*
X115647822Y-98100608D01*
X115560163Y-97969416D01*
X115552665Y-97951314D01*
X115499781Y-97823642D01*
X115469000Y-97668893D01*
X115469000Y-97511107D01*
X115499781Y-97356358D01*
X115560162Y-97210586D01*
X115565787Y-97202167D01*
X115647822Y-97079392D01*
X115759392Y-96967822D01*
X115890584Y-96880163D01*
X115911281Y-96871590D01*
X116036358Y-96819781D01*
X116191107Y-96789000D01*
X116348893Y-96789000D01*
X116503642Y-96819781D01*
X116503642Y-96819781D01*
G37*
G36*
X126696823Y-96507981D02*
G01*
X126857242Y-96556644D01*
X126924361Y-96592520D01*
X127005078Y-96635664D01*
X127134659Y-96742009D01*
X127241004Y-96871590D01*
X127241005Y-96871592D01*
X127320024Y-97019426D01*
X127368687Y-97179845D01*
X127385117Y-97346668D01*
X127368687Y-97513491D01*
X127320024Y-97673910D01*
X127269859Y-97767762D01*
X127241004Y-97821746D01*
X127134659Y-97951327D01*
X127005078Y-98057672D01*
X127005076Y-98057673D01*
X126857242Y-98136692D01*
X126696823Y-98185355D01*
X126571804Y-98197668D01*
X126488196Y-98197668D01*
X126363177Y-98185355D01*
X126202758Y-98136692D01*
X126054924Y-98057673D01*
X126054922Y-98057672D01*
X125925341Y-97951327D01*
X125818996Y-97821746D01*
X125790141Y-97767762D01*
X125739976Y-97673910D01*
X125691313Y-97513491D01*
X125674883Y-97346668D01*
X125691313Y-97179845D01*
X125739976Y-97019426D01*
X125818995Y-96871592D01*
X125818996Y-96871590D01*
X125925341Y-96742009D01*
X126054922Y-96635664D01*
X126135639Y-96592520D01*
X126202758Y-96556644D01*
X126363177Y-96507981D01*
X126488196Y-96495668D01*
X126571804Y-96495668D01*
X126696823Y-96507981D01*
X126696823Y-96507981D01*
G37*
G36*
X136938228Y-96528371D02*
G01*
X137093100Y-96592521D01*
X137232481Y-96685653D01*
X137351015Y-96804187D01*
X137444147Y-96943568D01*
X137508297Y-97098440D01*
X137541000Y-97262852D01*
X137541000Y-97430484D01*
X137508297Y-97594896D01*
X137444147Y-97749768D01*
X137351015Y-97889149D01*
X137232481Y-98007683D01*
X137093100Y-98100815D01*
X136938228Y-98164965D01*
X136773816Y-98197668D01*
X136606184Y-98197668D01*
X136441772Y-98164965D01*
X136286900Y-98100815D01*
X136147519Y-98007683D01*
X136028985Y-97889149D01*
X135935853Y-97749768D01*
X135871703Y-97594896D01*
X135839000Y-97430484D01*
X135839000Y-97262852D01*
X135871703Y-97098440D01*
X135935853Y-96943568D01*
X136028985Y-96804187D01*
X136147519Y-96685653D01*
X136286900Y-96592521D01*
X136441772Y-96528371D01*
X136606184Y-96495668D01*
X136773816Y-96495668D01*
X136938228Y-96528371D01*
X136938228Y-96528371D01*
G37*
G36*
X122908228Y-95611703D02*
G01*
X123063100Y-95675853D01*
X123202481Y-95768985D01*
X123321015Y-95887519D01*
X123414147Y-96026900D01*
X123478297Y-96181772D01*
X123511000Y-96346184D01*
X123511000Y-96513816D01*
X123478297Y-96678228D01*
X123414147Y-96833100D01*
X123321015Y-96972481D01*
X123202481Y-97091015D01*
X123063100Y-97184147D01*
X122908228Y-97248297D01*
X122743816Y-97281000D01*
X122576184Y-97281000D01*
X122411772Y-97248297D01*
X122256900Y-97184147D01*
X122117519Y-97091015D01*
X121998985Y-96972481D01*
X121905853Y-96833100D01*
X121841703Y-96678228D01*
X121809000Y-96513816D01*
X121809000Y-96346184D01*
X121841703Y-96181772D01*
X121905853Y-96026900D01*
X121998985Y-95887519D01*
X122117519Y-95768985D01*
X122256900Y-95675853D01*
X122411772Y-95611703D01*
X122576184Y-95579000D01*
X122743816Y-95579000D01*
X122908228Y-95611703D01*
X122908228Y-95611703D01*
G37*
G36*
X150071000Y-96361000D02*
G01*
X148169000Y-96361000D01*
X148169000Y-94459000D01*
X150071000Y-94459000D01*
X150071000Y-96361000D01*
X150071000Y-96361000D01*
G37*
G36*
X139146425Y-94472760D02*
G01*
X139146428Y-94472761D01*
X139146429Y-94472761D01*
X139325693Y-94527140D01*
X139325696Y-94527142D01*
X139325697Y-94527142D01*
X139490903Y-94615446D01*
X139635712Y-94734288D01*
X139754554Y-94879097D01*
X139842858Y-95044303D01*
X139842860Y-95044307D01*
X139878259Y-95161002D01*
X139897240Y-95223575D01*
X139915601Y-95410000D01*
X139897240Y-95596425D01*
X139897239Y-95596428D01*
X139897239Y-95596429D01*
X139842860Y-95775693D01*
X139842858Y-95775696D01*
X139842858Y-95775697D01*
X139754554Y-95940903D01*
X139635712Y-96085712D01*
X139490903Y-96204554D01*
X139325697Y-96292858D01*
X139325693Y-96292860D01*
X139146429Y-96347239D01*
X139146428Y-96347239D01*
X139146425Y-96347240D01*
X139006718Y-96361000D01*
X138913282Y-96361000D01*
X138773575Y-96347240D01*
X138773572Y-96347239D01*
X138773571Y-96347239D01*
X138594307Y-96292860D01*
X138594303Y-96292858D01*
X138429097Y-96204554D01*
X138284288Y-96085712D01*
X138165446Y-95940903D01*
X138077142Y-95775697D01*
X138077142Y-95775696D01*
X138077140Y-95775693D01*
X138022761Y-95596429D01*
X138022761Y-95596428D01*
X138022760Y-95596425D01*
X138004399Y-95410000D01*
X138022760Y-95223575D01*
X138041741Y-95161002D01*
X138077140Y-95044307D01*
X138077142Y-95044303D01*
X138165446Y-94879097D01*
X138284288Y-94734288D01*
X138429097Y-94615446D01*
X138594303Y-94527142D01*
X138594304Y-94527142D01*
X138594307Y-94527140D01*
X138773571Y-94472761D01*
X138773572Y-94472761D01*
X138773575Y-94472760D01*
X138913282Y-94459000D01*
X139006718Y-94459000D01*
X139146425Y-94472760D01*
X139146425Y-94472760D01*
G37*
G36*
X111786823Y-94221313D02*
G01*
X111947242Y-94269976D01*
X112079906Y-94340886D01*
X112095078Y-94348996D01*
X112224659Y-94455341D01*
X112331004Y-94584922D01*
X112331005Y-94584924D01*
X112410024Y-94732758D01*
X112458687Y-94893177D01*
X112475117Y-95060000D01*
X112458687Y-95226823D01*
X112410024Y-95387242D01*
X112339114Y-95519906D01*
X112331004Y-95535078D01*
X112224659Y-95664659D01*
X112095078Y-95771004D01*
X112095076Y-95771005D01*
X111947242Y-95850024D01*
X111786823Y-95898687D01*
X111661804Y-95911000D01*
X111578196Y-95911000D01*
X111453177Y-95898687D01*
X111292758Y-95850024D01*
X111144924Y-95771005D01*
X111144922Y-95771004D01*
X111015341Y-95664659D01*
X110908996Y-95535078D01*
X110900886Y-95519906D01*
X110829976Y-95387242D01*
X110781313Y-95226823D01*
X110764883Y-95060000D01*
X110781313Y-94893177D01*
X110829976Y-94732758D01*
X110908995Y-94584924D01*
X110908996Y-94584922D01*
X111015341Y-94455341D01*
X111144922Y-94348996D01*
X111160094Y-94340886D01*
X111292758Y-94269976D01*
X111453177Y-94221313D01*
X111578196Y-94209000D01*
X111661804Y-94209000D01*
X111786823Y-94221313D01*
X111786823Y-94221313D01*
G37*
G36*
X109361000Y-95911000D02*
G01*
X107459000Y-95911000D01*
X107459000Y-94009000D01*
X109361000Y-94009000D01*
X109361000Y-95911000D01*
X109361000Y-95911000D01*
G37*
G36*
X119043642Y-94279781D02*
G01*
X119189414Y-94340162D01*
X119189416Y-94340163D01*
X119320608Y-94427822D01*
X119432178Y-94539392D01*
X119516158Y-94665078D01*
X119519838Y-94670586D01*
X119580219Y-94816358D01*
X119611000Y-94971107D01*
X119611000Y-95128893D01*
X119580219Y-95283642D01*
X119519838Y-95429414D01*
X119519837Y-95429416D01*
X119432178Y-95560608D01*
X119320608Y-95672178D01*
X119189416Y-95759837D01*
X119189415Y-95759838D01*
X119189414Y-95759838D01*
X119043642Y-95820219D01*
X118888893Y-95851000D01*
X118731107Y-95851000D01*
X118576358Y-95820219D01*
X118430586Y-95759838D01*
X118430585Y-95759838D01*
X118430584Y-95759837D01*
X118299392Y-95672178D01*
X118187822Y-95560608D01*
X118100163Y-95429416D01*
X118100162Y-95429414D01*
X118039781Y-95283642D01*
X118009000Y-95128893D01*
X118009000Y-94971107D01*
X118039781Y-94816358D01*
X118100162Y-94670586D01*
X118103842Y-94665078D01*
X118187822Y-94539392D01*
X118299392Y-94427822D01*
X118430584Y-94340163D01*
X118430586Y-94340162D01*
X118576358Y-94279781D01*
X118731107Y-94249000D01*
X118888893Y-94249000D01*
X119043642Y-94279781D01*
X119043642Y-94279781D01*
G37*
G36*
X136938228Y-93491705D02*
G01*
X137093100Y-93555855D01*
X137232481Y-93648987D01*
X137351015Y-93767521D01*
X137444147Y-93906902D01*
X137508297Y-94061774D01*
X137541000Y-94226186D01*
X137541000Y-94393818D01*
X137508297Y-94558230D01*
X137444147Y-94713102D01*
X137351015Y-94852483D01*
X137232481Y-94971017D01*
X137093100Y-95064149D01*
X136938228Y-95128299D01*
X136773816Y-95161002D01*
X136606184Y-95161002D01*
X136441772Y-95128299D01*
X136286900Y-95064149D01*
X136147519Y-94971017D01*
X136028985Y-94852483D01*
X135935853Y-94713102D01*
X135871703Y-94558230D01*
X135839000Y-94393818D01*
X135839000Y-94226186D01*
X135871703Y-94061774D01*
X135935853Y-93906902D01*
X136028985Y-93767521D01*
X136147519Y-93648987D01*
X136286900Y-93555855D01*
X136441772Y-93491705D01*
X136606184Y-93459002D01*
X136773816Y-93459002D01*
X136938228Y-93491705D01*
X136938228Y-93491705D01*
G37*
G36*
X126696823Y-93471315D02*
G01*
X126857242Y-93519978D01*
X126924361Y-93555854D01*
X127005078Y-93598998D01*
X127134659Y-93705343D01*
X127241004Y-93834924D01*
X127241005Y-93834926D01*
X127320024Y-93982760D01*
X127368687Y-94143179D01*
X127385117Y-94310002D01*
X127368687Y-94476825D01*
X127320024Y-94637244D01*
X127268969Y-94732761D01*
X127241004Y-94785080D01*
X127134659Y-94914661D01*
X127005078Y-95021006D01*
X127005076Y-95021007D01*
X126857242Y-95100026D01*
X126696823Y-95148689D01*
X126571804Y-95161002D01*
X126488196Y-95161002D01*
X126363177Y-95148689D01*
X126202758Y-95100026D01*
X126054924Y-95021007D01*
X126054922Y-95021006D01*
X125925341Y-94914661D01*
X125818996Y-94785080D01*
X125791031Y-94732761D01*
X125739976Y-94637244D01*
X125691313Y-94476825D01*
X125674883Y-94310002D01*
X125691313Y-94143179D01*
X125739976Y-93982760D01*
X125818995Y-93834926D01*
X125818996Y-93834924D01*
X125925341Y-93705343D01*
X126054922Y-93598998D01*
X126135639Y-93555854D01*
X126202758Y-93519978D01*
X126363177Y-93471315D01*
X126488196Y-93459002D01*
X126571804Y-93459002D01*
X126696823Y-93471315D01*
X126696823Y-93471315D01*
G37*
G36*
X161676823Y-93351313D02*
G01*
X161837242Y-93399976D01*
X161904361Y-93435852D01*
X161985078Y-93478996D01*
X162114659Y-93585341D01*
X162221004Y-93714922D01*
X162221005Y-93714924D01*
X162300024Y-93862758D01*
X162348687Y-94023177D01*
X162365117Y-94190000D01*
X162348687Y-94356823D01*
X162300024Y-94517242D01*
X162229114Y-94649906D01*
X162221004Y-94665078D01*
X162114659Y-94794659D01*
X161985078Y-94901004D01*
X161985076Y-94901005D01*
X161837242Y-94980024D01*
X161676823Y-95028687D01*
X161551804Y-95041000D01*
X161468196Y-95041000D01*
X161343177Y-95028687D01*
X161182758Y-94980024D01*
X161034924Y-94901005D01*
X161034922Y-94901004D01*
X160905341Y-94794659D01*
X160798996Y-94665078D01*
X160790886Y-94649906D01*
X160719976Y-94517242D01*
X160671313Y-94356823D01*
X160654883Y-94190000D01*
X160671313Y-94023177D01*
X160719976Y-93862758D01*
X160798995Y-93714924D01*
X160798996Y-93714922D01*
X160905341Y-93585341D01*
X161034922Y-93478996D01*
X161115639Y-93435852D01*
X161182758Y-93399976D01*
X161343177Y-93351313D01*
X161468196Y-93339000D01*
X161551804Y-93339000D01*
X161676823Y-93351313D01*
X161676823Y-93351313D01*
G37*
G36*
X151598228Y-93371703D02*
G01*
X151753100Y-93435853D01*
X151892481Y-93528985D01*
X152011015Y-93647519D01*
X152104147Y-93786900D01*
X152168297Y-93941772D01*
X152201000Y-94106184D01*
X152201000Y-94273816D01*
X152168297Y-94438228D01*
X152104147Y-94593100D01*
X152011015Y-94732481D01*
X151892481Y-94851015D01*
X151753100Y-94944147D01*
X151598228Y-95008297D01*
X151433816Y-95041000D01*
X151266184Y-95041000D01*
X151101772Y-95008297D01*
X150946900Y-94944147D01*
X150807519Y-94851015D01*
X150688985Y-94732481D01*
X150595853Y-94593100D01*
X150531703Y-94438228D01*
X150499000Y-94273816D01*
X150499000Y-94106184D01*
X150531703Y-93941772D01*
X150595853Y-93786900D01*
X150688985Y-93647519D01*
X150807519Y-93528985D01*
X150946900Y-93435853D01*
X151101772Y-93371703D01*
X151266184Y-93339000D01*
X151433816Y-93339000D01*
X151598228Y-93371703D01*
X151598228Y-93371703D01*
G37*
G36*
X123511000Y-94781000D02*
G01*
X121809000Y-94781000D01*
X121809000Y-93079000D01*
X123511000Y-93079000D01*
X123511000Y-94781000D01*
X123511000Y-94781000D01*
G37*
G36*
X117071000Y-93311000D02*
G01*
X115469000Y-93311000D01*
X115469000Y-91709000D01*
X117071000Y-91709000D01*
X117071000Y-93311000D01*
X117071000Y-93311000D01*
G37*
G36*
X149286425Y-91212760D02*
G01*
X149286428Y-91212761D01*
X149286429Y-91212761D01*
X149465693Y-91267140D01*
X149465696Y-91267142D01*
X149465697Y-91267142D01*
X149630903Y-91355446D01*
X149775712Y-91474288D01*
X149894554Y-91619097D01*
X149982858Y-91784303D01*
X149982860Y-91784307D01*
X150037239Y-91963571D01*
X150037240Y-91963575D01*
X150055601Y-92150000D01*
X150037240Y-92336425D01*
X150037239Y-92336428D01*
X150037239Y-92336429D01*
X149982860Y-92515693D01*
X149982858Y-92515696D01*
X149982858Y-92515697D01*
X149894554Y-92680903D01*
X149775712Y-92825712D01*
X149630903Y-92944554D01*
X149465697Y-93032858D01*
X149465693Y-93032860D01*
X149286429Y-93087239D01*
X149286428Y-93087239D01*
X149286425Y-93087240D01*
X149146718Y-93101000D01*
X149053282Y-93101000D01*
X148913575Y-93087240D01*
X148913572Y-93087239D01*
X148913571Y-93087239D01*
X148734307Y-93032860D01*
X148734303Y-93032858D01*
X148569097Y-92944554D01*
X148424288Y-92825712D01*
X148305446Y-92680903D01*
X148217142Y-92515697D01*
X148217142Y-92515696D01*
X148217140Y-92515693D01*
X148162761Y-92336429D01*
X148162761Y-92336428D01*
X148162760Y-92336425D01*
X148144399Y-92150000D01*
X148162760Y-91963575D01*
X148162761Y-91963571D01*
X148217140Y-91784307D01*
X148217142Y-91784303D01*
X148305446Y-91619097D01*
X148424288Y-91474288D01*
X148569097Y-91355446D01*
X148734303Y-91267142D01*
X148734304Y-91267142D01*
X148734307Y-91267140D01*
X148913571Y-91212761D01*
X148913572Y-91212761D01*
X148913575Y-91212760D01*
X149053282Y-91199000D01*
X149146718Y-91199000D01*
X149286425Y-91212760D01*
X149286425Y-91212760D01*
G37*
G36*
X139891000Y-93101000D02*
G01*
X137989000Y-93101000D01*
X137989000Y-91199000D01*
X139891000Y-91199000D01*
X139891000Y-93101000D01*
X139891000Y-93101000D01*
G37*
G36*
X151608228Y-89511703D02*
G01*
X151763100Y-89575853D01*
X151902481Y-89668985D01*
X152021015Y-89787519D01*
X152114147Y-89926900D01*
X152178297Y-90081772D01*
X152211000Y-90246184D01*
X152211000Y-90413816D01*
X152178297Y-90578228D01*
X152114147Y-90733100D01*
X152021015Y-90872481D01*
X151902481Y-90991015D01*
X151763100Y-91084147D01*
X151608228Y-91148297D01*
X151443816Y-91181000D01*
X151276184Y-91181000D01*
X151111772Y-91148297D01*
X150956900Y-91084147D01*
X150817519Y-90991015D01*
X150698985Y-90872481D01*
X150605853Y-90733100D01*
X150541703Y-90578228D01*
X150509000Y-90413816D01*
X150509000Y-90246184D01*
X150541703Y-90081772D01*
X150605853Y-89926900D01*
X150698985Y-89787519D01*
X150817519Y-89668985D01*
X150956900Y-89575853D01*
X151111772Y-89511703D01*
X151276184Y-89479000D01*
X151443816Y-89479000D01*
X151608228Y-89511703D01*
X151608228Y-89511703D01*
G37*
G36*
X161686823Y-89491313D02*
G01*
X161847242Y-89539976D01*
X161914361Y-89575852D01*
X161995078Y-89618996D01*
X162124659Y-89725341D01*
X162231004Y-89854922D01*
X162231005Y-89854924D01*
X162310024Y-90002758D01*
X162358687Y-90163177D01*
X162375117Y-90330000D01*
X162358687Y-90496823D01*
X162310024Y-90657242D01*
X162269477Y-90733100D01*
X162231004Y-90805078D01*
X162124659Y-90934659D01*
X161995078Y-91041004D01*
X161995076Y-91041005D01*
X161847242Y-91120024D01*
X161686823Y-91168687D01*
X161561804Y-91181000D01*
X161478196Y-91181000D01*
X161353177Y-91168687D01*
X161192758Y-91120024D01*
X161044924Y-91041005D01*
X161044922Y-91041004D01*
X160915341Y-90934659D01*
X160808996Y-90805078D01*
X160770523Y-90733100D01*
X160729976Y-90657242D01*
X160681313Y-90496823D01*
X160664883Y-90330000D01*
X160681313Y-90163177D01*
X160729976Y-90002758D01*
X160808995Y-89854924D01*
X160808996Y-89854922D01*
X160915341Y-89725341D01*
X161044922Y-89618996D01*
X161125639Y-89575852D01*
X161192758Y-89539976D01*
X161353177Y-89491313D01*
X161478196Y-89479000D01*
X161561804Y-89479000D01*
X161686823Y-89491313D01*
X161686823Y-89491313D01*
G37*
G36*
X126336823Y-87741313D02*
G01*
X126497242Y-87789976D01*
X126622448Y-87856900D01*
X126645078Y-87868996D01*
X126774659Y-87975341D01*
X126881004Y-88104922D01*
X126881005Y-88104924D01*
X126960024Y-88252758D01*
X127008687Y-88413178D01*
X127021000Y-88538197D01*
X127021000Y-89421804D01*
X127008687Y-89546823D01*
X126960024Y-89707242D01*
X126927390Y-89768295D01*
X126881004Y-89855078D01*
X126822061Y-89926900D01*
X126774659Y-89984659D01*
X126645077Y-90091005D01*
X126497241Y-90170024D01*
X126336822Y-90218687D01*
X126170000Y-90235117D01*
X126003177Y-90218687D01*
X125842758Y-90170024D01*
X125694924Y-90091005D01*
X125694922Y-90091004D01*
X125565341Y-89984659D01*
X125517942Y-89926903D01*
X125458995Y-89855077D01*
X125379976Y-89707241D01*
X125331313Y-89546822D01*
X125319000Y-89421803D01*
X125319000Y-88538197D01*
X125331314Y-88413177D01*
X125379977Y-88252758D01*
X125458996Y-88104924D01*
X125458997Y-88104922D01*
X125565342Y-87975341D01*
X125694923Y-87868996D01*
X125717553Y-87856900D01*
X125842759Y-87789976D01*
X126003178Y-87741313D01*
X126170000Y-87724883D01*
X126336823Y-87741313D01*
X126336823Y-87741313D01*
G37*
G36*
X123796823Y-87741313D02*
G01*
X123957242Y-87789976D01*
X124082448Y-87856900D01*
X124105078Y-87868996D01*
X124234659Y-87975341D01*
X124341004Y-88104922D01*
X124341005Y-88104924D01*
X124420024Y-88252758D01*
X124468687Y-88413178D01*
X124481000Y-88538197D01*
X124481000Y-89421804D01*
X124468687Y-89546823D01*
X124420024Y-89707242D01*
X124387390Y-89768295D01*
X124341004Y-89855078D01*
X124282061Y-89926900D01*
X124234659Y-89984659D01*
X124105077Y-90091005D01*
X123957241Y-90170024D01*
X123796822Y-90218687D01*
X123630000Y-90235117D01*
X123463177Y-90218687D01*
X123302758Y-90170024D01*
X123154924Y-90091005D01*
X123154922Y-90091004D01*
X123025341Y-89984659D01*
X122977942Y-89926903D01*
X122918995Y-89855077D01*
X122839976Y-89707241D01*
X122791313Y-89546822D01*
X122779000Y-89421803D01*
X122779000Y-88538197D01*
X122791314Y-88413177D01*
X122839977Y-88252758D01*
X122918996Y-88104924D01*
X122918997Y-88104922D01*
X123025342Y-87975341D01*
X123154923Y-87868996D01*
X123177553Y-87856900D01*
X123302759Y-87789976D01*
X123463178Y-87741313D01*
X123630000Y-87724883D01*
X123796823Y-87741313D01*
X123796823Y-87741313D01*
G37*
G36*
X128876823Y-87741313D02*
G01*
X129037242Y-87789976D01*
X129162448Y-87856900D01*
X129185078Y-87868996D01*
X129314659Y-87975341D01*
X129421004Y-88104922D01*
X129421005Y-88104924D01*
X129500024Y-88252758D01*
X129548687Y-88413178D01*
X129561000Y-88538197D01*
X129561000Y-89421804D01*
X129548687Y-89546823D01*
X129500024Y-89707242D01*
X129467390Y-89768295D01*
X129421004Y-89855078D01*
X129362061Y-89926900D01*
X129314659Y-89984659D01*
X129185077Y-90091005D01*
X129037241Y-90170024D01*
X128876822Y-90218687D01*
X128710000Y-90235117D01*
X128543177Y-90218687D01*
X128382758Y-90170024D01*
X128234924Y-90091005D01*
X128234922Y-90091004D01*
X128105341Y-89984659D01*
X128057942Y-89926903D01*
X127998995Y-89855077D01*
X127919976Y-89707241D01*
X127871313Y-89546822D01*
X127859000Y-89421803D01*
X127859000Y-88538197D01*
X127871314Y-88413177D01*
X127919977Y-88252758D01*
X127998996Y-88104924D01*
X127998997Y-88104922D01*
X128105342Y-87975341D01*
X128234923Y-87868996D01*
X128257553Y-87856900D01*
X128382759Y-87789976D01*
X128543178Y-87741313D01*
X128710000Y-87724883D01*
X128876823Y-87741313D01*
X128876823Y-87741313D01*
G37*
G36*
X121256823Y-87741313D02*
G01*
X121417242Y-87789976D01*
X121542448Y-87856900D01*
X121565078Y-87868996D01*
X121694659Y-87975341D01*
X121801004Y-88104922D01*
X121801005Y-88104924D01*
X121880024Y-88252758D01*
X121928687Y-88413178D01*
X121941000Y-88538197D01*
X121941000Y-89421804D01*
X121928687Y-89546823D01*
X121880024Y-89707242D01*
X121847390Y-89768295D01*
X121801004Y-89855078D01*
X121742061Y-89926900D01*
X121694659Y-89984659D01*
X121565077Y-90091005D01*
X121417241Y-90170024D01*
X121256822Y-90218687D01*
X121090000Y-90235117D01*
X120923177Y-90218687D01*
X120762758Y-90170024D01*
X120614924Y-90091005D01*
X120614922Y-90091004D01*
X120485341Y-89984659D01*
X120437942Y-89926903D01*
X120378995Y-89855077D01*
X120299976Y-89707241D01*
X120251313Y-89546822D01*
X120239000Y-89421803D01*
X120239000Y-88538197D01*
X120251314Y-88413177D01*
X120299977Y-88252758D01*
X120378996Y-88104924D01*
X120378997Y-88104922D01*
X120485342Y-87975341D01*
X120614923Y-87868996D01*
X120637553Y-87856900D01*
X120762759Y-87789976D01*
X120923178Y-87741313D01*
X121090000Y-87724883D01*
X121256823Y-87741313D01*
X121256823Y-87741313D01*
G37*
G36*
X131416823Y-87741313D02*
G01*
X131577242Y-87789976D01*
X131702448Y-87856900D01*
X131725078Y-87868996D01*
X131854659Y-87975341D01*
X131961004Y-88104922D01*
X131961005Y-88104924D01*
X132040024Y-88252758D01*
X132088687Y-88413178D01*
X132101000Y-88538197D01*
X132101000Y-89421804D01*
X132088687Y-89546823D01*
X132040024Y-89707242D01*
X132007390Y-89768295D01*
X131961004Y-89855078D01*
X131902061Y-89926900D01*
X131854659Y-89984659D01*
X131725077Y-90091005D01*
X131577241Y-90170024D01*
X131416822Y-90218687D01*
X131250000Y-90235117D01*
X131083177Y-90218687D01*
X130922758Y-90170024D01*
X130774924Y-90091005D01*
X130774922Y-90091004D01*
X130645341Y-89984659D01*
X130597942Y-89926903D01*
X130538995Y-89855077D01*
X130459976Y-89707241D01*
X130411313Y-89546822D01*
X130399000Y-89421803D01*
X130399000Y-88538197D01*
X130411314Y-88413177D01*
X130459977Y-88252758D01*
X130538996Y-88104924D01*
X130538997Y-88104922D01*
X130645342Y-87975341D01*
X130774923Y-87868996D01*
X130797553Y-87856900D01*
X130922759Y-87789976D01*
X131083178Y-87741313D01*
X131250000Y-87724883D01*
X131416823Y-87741313D01*
X131416823Y-87741313D01*
G37*
G36*
X133956823Y-87741313D02*
G01*
X134117242Y-87789976D01*
X134242448Y-87856900D01*
X134265078Y-87868996D01*
X134394659Y-87975341D01*
X134501004Y-88104922D01*
X134501005Y-88104924D01*
X134580024Y-88252758D01*
X134628687Y-88413178D01*
X134641000Y-88538197D01*
X134641000Y-89421804D01*
X134628687Y-89546823D01*
X134580024Y-89707242D01*
X134547390Y-89768295D01*
X134501004Y-89855078D01*
X134442061Y-89926900D01*
X134394659Y-89984659D01*
X134265077Y-90091005D01*
X134117241Y-90170024D01*
X133956822Y-90218687D01*
X133790000Y-90235117D01*
X133623177Y-90218687D01*
X133462758Y-90170024D01*
X133314924Y-90091005D01*
X133314922Y-90091004D01*
X133185341Y-89984659D01*
X133137942Y-89926903D01*
X133078995Y-89855077D01*
X132999976Y-89707241D01*
X132951313Y-89546822D01*
X132939000Y-89421803D01*
X132939000Y-88538197D01*
X132951314Y-88413177D01*
X132999977Y-88252758D01*
X133078996Y-88104924D01*
X133078997Y-88104922D01*
X133185342Y-87975341D01*
X133314923Y-87868996D01*
X133337553Y-87856900D01*
X133462759Y-87789976D01*
X133623178Y-87741313D01*
X133790000Y-87724883D01*
X133956823Y-87741313D01*
X133956823Y-87741313D01*
G37*
G36*
X136496823Y-87741313D02*
G01*
X136657242Y-87789976D01*
X136782448Y-87856900D01*
X136805078Y-87868996D01*
X136934659Y-87975341D01*
X137041004Y-88104922D01*
X137041005Y-88104924D01*
X137120024Y-88252758D01*
X137168687Y-88413178D01*
X137181000Y-88538197D01*
X137181000Y-89421804D01*
X137168687Y-89546823D01*
X137120024Y-89707242D01*
X137087390Y-89768295D01*
X137041004Y-89855078D01*
X136982061Y-89926900D01*
X136934659Y-89984659D01*
X136805077Y-90091005D01*
X136657241Y-90170024D01*
X136496822Y-90218687D01*
X136330000Y-90235117D01*
X136163177Y-90218687D01*
X136002758Y-90170024D01*
X135854924Y-90091005D01*
X135854922Y-90091004D01*
X135725341Y-89984659D01*
X135677942Y-89926903D01*
X135618995Y-89855077D01*
X135539976Y-89707241D01*
X135491313Y-89546822D01*
X135479000Y-89421803D01*
X135479000Y-88538197D01*
X135491314Y-88413177D01*
X135539977Y-88252758D01*
X135618996Y-88104924D01*
X135618997Y-88104922D01*
X135725342Y-87975341D01*
X135854923Y-87868996D01*
X135877553Y-87856900D01*
X136002759Y-87789976D01*
X136163178Y-87741313D01*
X136330000Y-87724883D01*
X136496823Y-87741313D01*
X136496823Y-87741313D01*
G37*
G36*
X139036823Y-87741313D02*
G01*
X139197242Y-87789976D01*
X139322448Y-87856900D01*
X139345078Y-87868996D01*
X139474659Y-87975341D01*
X139581004Y-88104922D01*
X139581005Y-88104924D01*
X139660024Y-88252758D01*
X139708687Y-88413178D01*
X139721000Y-88538197D01*
X139721000Y-89421804D01*
X139708687Y-89546823D01*
X139660024Y-89707242D01*
X139627390Y-89768295D01*
X139581004Y-89855078D01*
X139522061Y-89926900D01*
X139474659Y-89984659D01*
X139345077Y-90091005D01*
X139197241Y-90170024D01*
X139036822Y-90218687D01*
X138870000Y-90235117D01*
X138703177Y-90218687D01*
X138542758Y-90170024D01*
X138394924Y-90091005D01*
X138394922Y-90091004D01*
X138265341Y-89984659D01*
X138217942Y-89926903D01*
X138158995Y-89855077D01*
X138079976Y-89707241D01*
X138031313Y-89546822D01*
X138019000Y-89421803D01*
X138019000Y-88538197D01*
X138031314Y-88413177D01*
X138079977Y-88252758D01*
X138158996Y-88104924D01*
X138158997Y-88104922D01*
X138265342Y-87975341D01*
X138394923Y-87868996D01*
X138417553Y-87856900D01*
X138542759Y-87789976D01*
X138703178Y-87741313D01*
X138870000Y-87724883D01*
X139036823Y-87741313D01*
X139036823Y-87741313D01*
G37*
G36*
X147258228Y-88131703D02*
G01*
X147413100Y-88195853D01*
X147552481Y-88288985D01*
X147671015Y-88407519D01*
X147764147Y-88546900D01*
X147828297Y-88701772D01*
X147861000Y-88866184D01*
X147861000Y-89033816D01*
X147828297Y-89198228D01*
X147764147Y-89353100D01*
X147671015Y-89492481D01*
X147552481Y-89611015D01*
X147413100Y-89704147D01*
X147258228Y-89768297D01*
X147093816Y-89801000D01*
X146926184Y-89801000D01*
X146761772Y-89768297D01*
X146606900Y-89704147D01*
X146467519Y-89611015D01*
X146348985Y-89492481D01*
X146255853Y-89353100D01*
X146191703Y-89198228D01*
X146159000Y-89033816D01*
X146159000Y-88866184D01*
X146191703Y-88701772D01*
X146255853Y-88546900D01*
X146348985Y-88407519D01*
X146467519Y-88288985D01*
X146606900Y-88195853D01*
X146761772Y-88131703D01*
X146926184Y-88099000D01*
X147093816Y-88099000D01*
X147258228Y-88131703D01*
X147258228Y-88131703D01*
G37*
G36*
X142258228Y-88131703D02*
G01*
X142413100Y-88195853D01*
X142552481Y-88288985D01*
X142671015Y-88407519D01*
X142764147Y-88546900D01*
X142828297Y-88701772D01*
X142861000Y-88866184D01*
X142861000Y-89033816D01*
X142828297Y-89198228D01*
X142764147Y-89353100D01*
X142671015Y-89492481D01*
X142552481Y-89611015D01*
X142413100Y-89704147D01*
X142258228Y-89768297D01*
X142093816Y-89801000D01*
X141926184Y-89801000D01*
X141761772Y-89768297D01*
X141606900Y-89704147D01*
X141467519Y-89611015D01*
X141348985Y-89492481D01*
X141255853Y-89353100D01*
X141191703Y-89198228D01*
X141159000Y-89033816D01*
X141159000Y-88866184D01*
X141191703Y-88701772D01*
X141255853Y-88546900D01*
X141348985Y-88407519D01*
X141467519Y-88288985D01*
X141606900Y-88195853D01*
X141761772Y-88131703D01*
X141926184Y-88099000D01*
X142093816Y-88099000D01*
X142258228Y-88131703D01*
X142258228Y-88131703D01*
G37*
G36*
X117838228Y-87441703D02*
G01*
X117993100Y-87505853D01*
X118132481Y-87598985D01*
X118251015Y-87717519D01*
X118344147Y-87856900D01*
X118408297Y-88011772D01*
X118441000Y-88176184D01*
X118441000Y-88343816D01*
X118408297Y-88508228D01*
X118344147Y-88663100D01*
X118251015Y-88802481D01*
X118132481Y-88921015D01*
X117993100Y-89014147D01*
X117838228Y-89078297D01*
X117673816Y-89111000D01*
X117506184Y-89111000D01*
X117341772Y-89078297D01*
X117186900Y-89014147D01*
X117047519Y-88921015D01*
X116928985Y-88802481D01*
X116835853Y-88663100D01*
X116771703Y-88508228D01*
X116739000Y-88343816D01*
X116739000Y-88176184D01*
X116771703Y-88011772D01*
X116835853Y-87856900D01*
X116928985Y-87717519D01*
X117047519Y-87598985D01*
X117186900Y-87505853D01*
X117341772Y-87441703D01*
X117506184Y-87409000D01*
X117673816Y-87409000D01*
X117838228Y-87441703D01*
X117838228Y-87441703D01*
G37*
G36*
X115941000Y-89111000D02*
G01*
X114239000Y-89111000D01*
X114239000Y-87409000D01*
X115941000Y-87409000D01*
X115941000Y-89111000D01*
X115941000Y-89111000D01*
G37*
G36*
X161686823Y-86431313D02*
G01*
X161847242Y-86479976D01*
X161914361Y-86515852D01*
X161995078Y-86558996D01*
X162124659Y-86665341D01*
X162231004Y-86794922D01*
X162231005Y-86794924D01*
X162310024Y-86942758D01*
X162358687Y-87103177D01*
X162375117Y-87270000D01*
X162358687Y-87436823D01*
X162310024Y-87597242D01*
X162245734Y-87717520D01*
X162231004Y-87745078D01*
X162124659Y-87874659D01*
X161995078Y-87981004D01*
X161995076Y-87981005D01*
X161847242Y-88060024D01*
X161686823Y-88108687D01*
X161561804Y-88121000D01*
X161478196Y-88121000D01*
X161353177Y-88108687D01*
X161192758Y-88060024D01*
X161044924Y-87981005D01*
X161044922Y-87981004D01*
X160915341Y-87874659D01*
X160808996Y-87745078D01*
X160794266Y-87717520D01*
X160729976Y-87597242D01*
X160681313Y-87436823D01*
X160664883Y-87270000D01*
X160681313Y-87103177D01*
X160729976Y-86942758D01*
X160808995Y-86794924D01*
X160808996Y-86794922D01*
X160915341Y-86665341D01*
X161044922Y-86558996D01*
X161125639Y-86515852D01*
X161192758Y-86479976D01*
X161353177Y-86431313D01*
X161478196Y-86419000D01*
X161561804Y-86419000D01*
X161686823Y-86431313D01*
X161686823Y-86431313D01*
G37*
G36*
X151608228Y-86451703D02*
G01*
X151763100Y-86515853D01*
X151902481Y-86608985D01*
X152021015Y-86727519D01*
X152114147Y-86866900D01*
X152178297Y-87021772D01*
X152211000Y-87186184D01*
X152211000Y-87353816D01*
X152178297Y-87518228D01*
X152114147Y-87673100D01*
X152021015Y-87812481D01*
X151902481Y-87931015D01*
X151763100Y-88024147D01*
X151608228Y-88088297D01*
X151443816Y-88121000D01*
X151276184Y-88121000D01*
X151111772Y-88088297D01*
X150956900Y-88024147D01*
X150817519Y-87931015D01*
X150698985Y-87812481D01*
X150605853Y-87673100D01*
X150541703Y-87518228D01*
X150509000Y-87353816D01*
X150509000Y-87186184D01*
X150541703Y-87021772D01*
X150605853Y-86866900D01*
X150698985Y-86727519D01*
X150817519Y-86608985D01*
X150956900Y-86515853D01*
X151111772Y-86451703D01*
X151276184Y-86419000D01*
X151443816Y-86419000D01*
X151608228Y-86451703D01*
X151608228Y-86451703D01*
G37*
G36*
X145291000Y-87141000D02*
G01*
X143689000Y-87141000D01*
X143689000Y-85539000D01*
X145291000Y-85539000D01*
X145291000Y-87141000D01*
X145291000Y-87141000D01*
G37*
G36*
X148483642Y-85529781D02*
G01*
X148629414Y-85590162D01*
X148629416Y-85590163D01*
X148760608Y-85677822D01*
X148872178Y-85789392D01*
X148959837Y-85920584D01*
X148959838Y-85920586D01*
X149020219Y-86066358D01*
X149051000Y-86221107D01*
X149051000Y-86378893D01*
X149020219Y-86533642D01*
X148965667Y-86665341D01*
X148959837Y-86679416D01*
X148872178Y-86810608D01*
X148760608Y-86922178D01*
X148629416Y-87009837D01*
X148629415Y-87009838D01*
X148629414Y-87009838D01*
X148483642Y-87070219D01*
X148328893Y-87101000D01*
X148171107Y-87101000D01*
X148016358Y-87070219D01*
X147870586Y-87009838D01*
X147870585Y-87009838D01*
X147870584Y-87009837D01*
X147739392Y-86922178D01*
X147627822Y-86810608D01*
X147540163Y-86679416D01*
X147534333Y-86665341D01*
X147479781Y-86533642D01*
X147449000Y-86378893D01*
X147449000Y-86221107D01*
X147479781Y-86066358D01*
X147540162Y-85920586D01*
X147540163Y-85920584D01*
X147627822Y-85789392D01*
X147739392Y-85677822D01*
X147870584Y-85590163D01*
X147870586Y-85590162D01*
X148016358Y-85529781D01*
X148171107Y-85499000D01*
X148328893Y-85499000D01*
X148483642Y-85529781D01*
X148483642Y-85529781D01*
G37*
G36*
X111868228Y-84081703D02*
G01*
X112023100Y-84145853D01*
X112162481Y-84238985D01*
X112281015Y-84357519D01*
X112374147Y-84496900D01*
X112438297Y-84651772D01*
X112471000Y-84816184D01*
X112471000Y-84983816D01*
X112438297Y-85148228D01*
X112374147Y-85303100D01*
X112281015Y-85442481D01*
X112162481Y-85561015D01*
X112023100Y-85654147D01*
X111868228Y-85718297D01*
X111703816Y-85751000D01*
X111536184Y-85751000D01*
X111371772Y-85718297D01*
X111216900Y-85654147D01*
X111077519Y-85561015D01*
X110958985Y-85442481D01*
X110865853Y-85303100D01*
X110801703Y-85148228D01*
X110769000Y-84983816D01*
X110769000Y-84816184D01*
X110801703Y-84651772D01*
X110865853Y-84496900D01*
X110958985Y-84357519D01*
X111077519Y-84238985D01*
X111216900Y-84145853D01*
X111371772Y-84081703D01*
X111536184Y-84049000D01*
X111703816Y-84049000D01*
X111868228Y-84081703D01*
X111868228Y-84081703D01*
G37*
G36*
X108596425Y-83862760D02*
G01*
X108596428Y-83862761D01*
X108596429Y-83862761D01*
X108775693Y-83917140D01*
X108775696Y-83917142D01*
X108775697Y-83917142D01*
X108940903Y-84005446D01*
X109085712Y-84124288D01*
X109204554Y-84269097D01*
X109286377Y-84422178D01*
X109292860Y-84434307D01*
X109347239Y-84613571D01*
X109347240Y-84613575D01*
X109365601Y-84800000D01*
X109347240Y-84986425D01*
X109347239Y-84986428D01*
X109347239Y-84986429D01*
X109292860Y-85165693D01*
X109292858Y-85165696D01*
X109292858Y-85165697D01*
X109204554Y-85330903D01*
X109085712Y-85475712D01*
X108940903Y-85594554D01*
X108775697Y-85682858D01*
X108775693Y-85682860D01*
X108596429Y-85737239D01*
X108596428Y-85737239D01*
X108596425Y-85737240D01*
X108456718Y-85751000D01*
X108363282Y-85751000D01*
X108223575Y-85737240D01*
X108223572Y-85737239D01*
X108223571Y-85737239D01*
X108044307Y-85682860D01*
X108044303Y-85682858D01*
X107879097Y-85594554D01*
X107734288Y-85475712D01*
X107615446Y-85330903D01*
X107527142Y-85165697D01*
X107527142Y-85165696D01*
X107527140Y-85165693D01*
X107472761Y-84986429D01*
X107472761Y-84986428D01*
X107472760Y-84986425D01*
X107454399Y-84800000D01*
X107472760Y-84613575D01*
X107472761Y-84613571D01*
X107527140Y-84434307D01*
X107533623Y-84422178D01*
X107615446Y-84269097D01*
X107734288Y-84124288D01*
X107879097Y-84005446D01*
X108044303Y-83917142D01*
X108044304Y-83917142D01*
X108044307Y-83917140D01*
X108223571Y-83862761D01*
X108223572Y-83862761D01*
X108223575Y-83862760D01*
X108363282Y-83849000D01*
X108456718Y-83849000D01*
X108596425Y-83862760D01*
X108596425Y-83862760D01*
G37*
G36*
X142183642Y-83029781D02*
G01*
X142329414Y-83090162D01*
X142329416Y-83090163D01*
X142460608Y-83177822D01*
X142572178Y-83289392D01*
X142633110Y-83380584D01*
X142659838Y-83420586D01*
X142720219Y-83566358D01*
X142751000Y-83721107D01*
X142751000Y-83878893D01*
X142720219Y-84033642D01*
X142676406Y-84139416D01*
X142659837Y-84179416D01*
X142572178Y-84310608D01*
X142460608Y-84422178D01*
X142329416Y-84509837D01*
X142329415Y-84509838D01*
X142329414Y-84509838D01*
X142183642Y-84570219D01*
X142028893Y-84601000D01*
X141871107Y-84601000D01*
X141716358Y-84570219D01*
X141570586Y-84509838D01*
X141570585Y-84509838D01*
X141570584Y-84509837D01*
X141439392Y-84422178D01*
X141327822Y-84310608D01*
X141240163Y-84179416D01*
X141223594Y-84139416D01*
X141179781Y-84033642D01*
X141149000Y-83878893D01*
X141149000Y-83721107D01*
X141179781Y-83566358D01*
X141240162Y-83420586D01*
X141266890Y-83380584D01*
X141327822Y-83289392D01*
X141439392Y-83177822D01*
X141570584Y-83090163D01*
X141570586Y-83090162D01*
X141716358Y-83029781D01*
X141871107Y-82999000D01*
X142028893Y-82999000D01*
X142183642Y-83029781D01*
X142183642Y-83029781D01*
G37*
G36*
X151023642Y-82989781D02*
G01*
X151169414Y-83050162D01*
X151169416Y-83050163D01*
X151300608Y-83137822D01*
X151412178Y-83249392D01*
X151499837Y-83380584D01*
X151499838Y-83380586D01*
X151560219Y-83526358D01*
X151591000Y-83681107D01*
X151591000Y-83838893D01*
X151560219Y-83993642D01*
X151523742Y-84081705D01*
X151499837Y-84139416D01*
X151412178Y-84270608D01*
X151300608Y-84382178D01*
X151169416Y-84469837D01*
X151169415Y-84469838D01*
X151169414Y-84469838D01*
X151023642Y-84530219D01*
X150868893Y-84561000D01*
X150711107Y-84561000D01*
X150556358Y-84530219D01*
X150410586Y-84469838D01*
X150410585Y-84469838D01*
X150410584Y-84469837D01*
X150279392Y-84382178D01*
X150167822Y-84270608D01*
X150080163Y-84139416D01*
X150056258Y-84081705D01*
X150019781Y-83993642D01*
X149989000Y-83838893D01*
X149989000Y-83681107D01*
X150019781Y-83526358D01*
X150080162Y-83380586D01*
X150080163Y-83380584D01*
X150167822Y-83249392D01*
X150279392Y-83137822D01*
X150410584Y-83050163D01*
X150410586Y-83050162D01*
X150556358Y-82989781D01*
X150711107Y-82959000D01*
X150868893Y-82959000D01*
X151023642Y-82989781D01*
X151023642Y-82989781D01*
G37*
G36*
X126336823Y-80121313D02*
G01*
X126497242Y-80169976D01*
X126629906Y-80240886D01*
X126645078Y-80248996D01*
X126774659Y-80355341D01*
X126881004Y-80484922D01*
X126881005Y-80484924D01*
X126960024Y-80632758D01*
X127008687Y-80793178D01*
X127021000Y-80918197D01*
X127021000Y-81801804D01*
X127008687Y-81926823D01*
X126995638Y-81969838D01*
X126967985Y-82061000D01*
X126960024Y-82087242D01*
X126906010Y-82188295D01*
X126881004Y-82235078D01*
X126774659Y-82364659D01*
X126645077Y-82471005D01*
X126497241Y-82550024D01*
X126336822Y-82598687D01*
X126170000Y-82615117D01*
X126003177Y-82598687D01*
X125842758Y-82550024D01*
X125694924Y-82471005D01*
X125694922Y-82471004D01*
X125565341Y-82364659D01*
X125458995Y-82235077D01*
X125379976Y-82087241D01*
X125331313Y-81926822D01*
X125319000Y-81801803D01*
X125319000Y-80918197D01*
X125331314Y-80793177D01*
X125379977Y-80632758D01*
X125458996Y-80484924D01*
X125458997Y-80484922D01*
X125565342Y-80355341D01*
X125694923Y-80248996D01*
X125710095Y-80240886D01*
X125842759Y-80169976D01*
X126003178Y-80121313D01*
X126170000Y-80104883D01*
X126336823Y-80121313D01*
X126336823Y-80121313D01*
G37*
G36*
X123796823Y-80121313D02*
G01*
X123957242Y-80169976D01*
X124089906Y-80240886D01*
X124105078Y-80248996D01*
X124234659Y-80355341D01*
X124341004Y-80484922D01*
X124341005Y-80484924D01*
X124420024Y-80632758D01*
X124468687Y-80793178D01*
X124481000Y-80918197D01*
X124481000Y-81801804D01*
X124468687Y-81926823D01*
X124455638Y-81969838D01*
X124427985Y-82061000D01*
X124420024Y-82087242D01*
X124366010Y-82188295D01*
X124341004Y-82235078D01*
X124234659Y-82364659D01*
X124105077Y-82471005D01*
X123957241Y-82550024D01*
X123796822Y-82598687D01*
X123630000Y-82615117D01*
X123463177Y-82598687D01*
X123302758Y-82550024D01*
X123154924Y-82471005D01*
X123154922Y-82471004D01*
X123025341Y-82364659D01*
X122918995Y-82235077D01*
X122839976Y-82087241D01*
X122791313Y-81926822D01*
X122779000Y-81801803D01*
X122779000Y-80918197D01*
X122791314Y-80793177D01*
X122839977Y-80632758D01*
X122918996Y-80484924D01*
X122918997Y-80484922D01*
X123025342Y-80355341D01*
X123154923Y-80248996D01*
X123170095Y-80240886D01*
X123302759Y-80169976D01*
X123463178Y-80121313D01*
X123630000Y-80104883D01*
X123796823Y-80121313D01*
X123796823Y-80121313D01*
G37*
G36*
X128876823Y-80121313D02*
G01*
X129037242Y-80169976D01*
X129169906Y-80240886D01*
X129185078Y-80248996D01*
X129314659Y-80355341D01*
X129421004Y-80484922D01*
X129421005Y-80484924D01*
X129500024Y-80632758D01*
X129548687Y-80793178D01*
X129561000Y-80918197D01*
X129561000Y-81801804D01*
X129548687Y-81926823D01*
X129535638Y-81969838D01*
X129507985Y-82061000D01*
X129500024Y-82087242D01*
X129446010Y-82188295D01*
X129421004Y-82235078D01*
X129314659Y-82364659D01*
X129185077Y-82471005D01*
X129037241Y-82550024D01*
X128876822Y-82598687D01*
X128710000Y-82615117D01*
X128543177Y-82598687D01*
X128382758Y-82550024D01*
X128234924Y-82471005D01*
X128234922Y-82471004D01*
X128105341Y-82364659D01*
X127998995Y-82235077D01*
X127919976Y-82087241D01*
X127871313Y-81926822D01*
X127859000Y-81801803D01*
X127859000Y-80918197D01*
X127871314Y-80793177D01*
X127919977Y-80632758D01*
X127998996Y-80484924D01*
X127998997Y-80484922D01*
X128105342Y-80355341D01*
X128234923Y-80248996D01*
X128250095Y-80240886D01*
X128382759Y-80169976D01*
X128543178Y-80121313D01*
X128710000Y-80104883D01*
X128876823Y-80121313D01*
X128876823Y-80121313D01*
G37*
G36*
X133956823Y-80121313D02*
G01*
X134117242Y-80169976D01*
X134249906Y-80240886D01*
X134265078Y-80248996D01*
X134394659Y-80355341D01*
X134501004Y-80484922D01*
X134501005Y-80484924D01*
X134580024Y-80632758D01*
X134628687Y-80793178D01*
X134641000Y-80918197D01*
X134641000Y-81801804D01*
X134628687Y-81926823D01*
X134615638Y-81969838D01*
X134587985Y-82061000D01*
X134580024Y-82087242D01*
X134526010Y-82188295D01*
X134501004Y-82235078D01*
X134394659Y-82364659D01*
X134265077Y-82471005D01*
X134117241Y-82550024D01*
X133956822Y-82598687D01*
X133790000Y-82615117D01*
X133623177Y-82598687D01*
X133462758Y-82550024D01*
X133314924Y-82471005D01*
X133314922Y-82471004D01*
X133185341Y-82364659D01*
X133078995Y-82235077D01*
X132999976Y-82087241D01*
X132951313Y-81926822D01*
X132939000Y-81801803D01*
X132939000Y-80918197D01*
X132951314Y-80793177D01*
X132999977Y-80632758D01*
X133078996Y-80484924D01*
X133078997Y-80484922D01*
X133185342Y-80355341D01*
X133314923Y-80248996D01*
X133330095Y-80240886D01*
X133462759Y-80169976D01*
X133623178Y-80121313D01*
X133790000Y-80104883D01*
X133956823Y-80121313D01*
X133956823Y-80121313D01*
G37*
G36*
X136496823Y-80121313D02*
G01*
X136657242Y-80169976D01*
X136789906Y-80240886D01*
X136805078Y-80248996D01*
X136934659Y-80355341D01*
X137041004Y-80484922D01*
X137041005Y-80484924D01*
X137120024Y-80632758D01*
X137168687Y-80793178D01*
X137181000Y-80918197D01*
X137181000Y-81801804D01*
X137168687Y-81926823D01*
X137155638Y-81969838D01*
X137127985Y-82061000D01*
X137120024Y-82087242D01*
X137066010Y-82188295D01*
X137041004Y-82235078D01*
X136934659Y-82364659D01*
X136805077Y-82471005D01*
X136657241Y-82550024D01*
X136496822Y-82598687D01*
X136330000Y-82615117D01*
X136163177Y-82598687D01*
X136002758Y-82550024D01*
X135854924Y-82471005D01*
X135854922Y-82471004D01*
X135725341Y-82364659D01*
X135618995Y-82235077D01*
X135539976Y-82087241D01*
X135491313Y-81926822D01*
X135479000Y-81801803D01*
X135479000Y-80918197D01*
X135491314Y-80793177D01*
X135539977Y-80632758D01*
X135618996Y-80484924D01*
X135618997Y-80484922D01*
X135725342Y-80355341D01*
X135854923Y-80248996D01*
X135870095Y-80240886D01*
X136002759Y-80169976D01*
X136163178Y-80121313D01*
X136330000Y-80104883D01*
X136496823Y-80121313D01*
X136496823Y-80121313D01*
G37*
G36*
X121256823Y-80121313D02*
G01*
X121417242Y-80169976D01*
X121549906Y-80240886D01*
X121565078Y-80248996D01*
X121694659Y-80355341D01*
X121801004Y-80484922D01*
X121801005Y-80484924D01*
X121880024Y-80632758D01*
X121928687Y-80793178D01*
X121941000Y-80918197D01*
X121941000Y-81801804D01*
X121928687Y-81926823D01*
X121915638Y-81969838D01*
X121887985Y-82061000D01*
X121880024Y-82087242D01*
X121826010Y-82188295D01*
X121801004Y-82235078D01*
X121694659Y-82364659D01*
X121565077Y-82471005D01*
X121417241Y-82550024D01*
X121256822Y-82598687D01*
X121090000Y-82615117D01*
X120923177Y-82598687D01*
X120762758Y-82550024D01*
X120614924Y-82471005D01*
X120614922Y-82471004D01*
X120485341Y-82364659D01*
X120378995Y-82235077D01*
X120299976Y-82087241D01*
X120251313Y-81926822D01*
X120239000Y-81801803D01*
X120239000Y-80918197D01*
X120251314Y-80793177D01*
X120299977Y-80632758D01*
X120378996Y-80484924D01*
X120378997Y-80484922D01*
X120485342Y-80355341D01*
X120614923Y-80248996D01*
X120630095Y-80240886D01*
X120762759Y-80169976D01*
X120923178Y-80121313D01*
X121090000Y-80104883D01*
X121256823Y-80121313D01*
X121256823Y-80121313D01*
G37*
G36*
X131416823Y-80121313D02*
G01*
X131577242Y-80169976D01*
X131709906Y-80240886D01*
X131725078Y-80248996D01*
X131854659Y-80355341D01*
X131961004Y-80484922D01*
X131961005Y-80484924D01*
X132040024Y-80632758D01*
X132088687Y-80793178D01*
X132101000Y-80918197D01*
X132101000Y-81801804D01*
X132088687Y-81926823D01*
X132075638Y-81969838D01*
X132047985Y-82061000D01*
X132040024Y-82087242D01*
X131986010Y-82188295D01*
X131961004Y-82235078D01*
X131854659Y-82364659D01*
X131725077Y-82471005D01*
X131577241Y-82550024D01*
X131416822Y-82598687D01*
X131250000Y-82615117D01*
X131083177Y-82598687D01*
X130922758Y-82550024D01*
X130774924Y-82471005D01*
X130774922Y-82471004D01*
X130645341Y-82364659D01*
X130538995Y-82235077D01*
X130459976Y-82087241D01*
X130411313Y-81926822D01*
X130399000Y-81801803D01*
X130399000Y-80918197D01*
X130411314Y-80793177D01*
X130459977Y-80632758D01*
X130538996Y-80484924D01*
X130538997Y-80484922D01*
X130645342Y-80355341D01*
X130774923Y-80248996D01*
X130790095Y-80240886D01*
X130922759Y-80169976D01*
X131083178Y-80121313D01*
X131250000Y-80104883D01*
X131416823Y-80121313D01*
X131416823Y-80121313D01*
G37*
G36*
X139721000Y-82611000D02*
G01*
X138019000Y-82611000D01*
X138019000Y-80109000D01*
X139721000Y-80109000D01*
X139721000Y-82611000D01*
X139721000Y-82611000D01*
G37*
G36*
X151406823Y-80531313D02*
G01*
X151567242Y-80579976D01*
X151675464Y-80637822D01*
X151715078Y-80658996D01*
X151844659Y-80765341D01*
X151951004Y-80894922D01*
X151951005Y-80894924D01*
X152030024Y-81042758D01*
X152078687Y-81203177D01*
X152095117Y-81370000D01*
X152078687Y-81536823D01*
X152030024Y-81697242D01*
X151974135Y-81801803D01*
X151951004Y-81845078D01*
X151844659Y-81974659D01*
X151715078Y-82081004D01*
X151715076Y-82081005D01*
X151567242Y-82160024D01*
X151406823Y-82208687D01*
X151281804Y-82221000D01*
X151198196Y-82221000D01*
X151073177Y-82208687D01*
X150912758Y-82160024D01*
X150764924Y-82081005D01*
X150764922Y-82081004D01*
X150635341Y-81974659D01*
X150528996Y-81845078D01*
X150505865Y-81801803D01*
X150449976Y-81697242D01*
X150401313Y-81536823D01*
X150384883Y-81370000D01*
X150401313Y-81203177D01*
X150449976Y-81042758D01*
X150528995Y-80894924D01*
X150528996Y-80894922D01*
X150635341Y-80765341D01*
X150764922Y-80658996D01*
X150804536Y-80637822D01*
X150912758Y-80579976D01*
X151073177Y-80531313D01*
X151198196Y-80519000D01*
X151281804Y-80519000D01*
X151406823Y-80531313D01*
X151406823Y-80531313D01*
G37*
G36*
X161648228Y-80551703D02*
G01*
X161803100Y-80615853D01*
X161942481Y-80708985D01*
X162061015Y-80827519D01*
X162154147Y-80966900D01*
X162218297Y-81121772D01*
X162251000Y-81286184D01*
X162251000Y-81453816D01*
X162218297Y-81618228D01*
X162154147Y-81773100D01*
X162061015Y-81912481D01*
X161942481Y-82031015D01*
X161803100Y-82124147D01*
X161648228Y-82188297D01*
X161483816Y-82221000D01*
X161316184Y-82221000D01*
X161151772Y-82188297D01*
X160996900Y-82124147D01*
X160857519Y-82031015D01*
X160738985Y-81912481D01*
X160645853Y-81773100D01*
X160581703Y-81618228D01*
X160549000Y-81453816D01*
X160549000Y-81286184D01*
X160581703Y-81121772D01*
X160645853Y-80966900D01*
X160738985Y-80827519D01*
X160857519Y-80708985D01*
X160996900Y-80615853D01*
X161151772Y-80551703D01*
X161316184Y-80519000D01*
X161483816Y-80519000D01*
X161648228Y-80551703D01*
X161648228Y-80551703D01*
G37*
G36*
X144723642Y-80489781D02*
G01*
X144869414Y-80550162D01*
X144869416Y-80550163D01*
X145000608Y-80637822D01*
X145112178Y-80749392D01*
X145164380Y-80827519D01*
X145199838Y-80880586D01*
X145260219Y-81026358D01*
X145291000Y-81181107D01*
X145291000Y-81338893D01*
X145260219Y-81493642D01*
X145208613Y-81618229D01*
X145199837Y-81639416D01*
X145112178Y-81770608D01*
X145000608Y-81882178D01*
X144869416Y-81969837D01*
X144869415Y-81969838D01*
X144869414Y-81969838D01*
X144723642Y-82030219D01*
X144568893Y-82061000D01*
X144411107Y-82061000D01*
X144256358Y-82030219D01*
X144110586Y-81969838D01*
X144110585Y-81969838D01*
X144110584Y-81969837D01*
X143979392Y-81882178D01*
X143867822Y-81770608D01*
X143780163Y-81639416D01*
X143771387Y-81618229D01*
X143719781Y-81493642D01*
X143689000Y-81338893D01*
X143689000Y-81181107D01*
X143719781Y-81026358D01*
X143780162Y-80880586D01*
X143815620Y-80827519D01*
X143867822Y-80749392D01*
X143979392Y-80637822D01*
X144110584Y-80550163D01*
X144110586Y-80550162D01*
X144256358Y-80489781D01*
X144411107Y-80459000D01*
X144568893Y-80459000D01*
X144723642Y-80489781D01*
X144723642Y-80489781D01*
G37*
G36*
X149051000Y-82021000D02*
G01*
X147449000Y-82021000D01*
X147449000Y-80419000D01*
X149051000Y-80419000D01*
X149051000Y-82021000D01*
X149051000Y-82021000D01*
G37*
G36*
X166938228Y-78711703D02*
G01*
X167093100Y-78775853D01*
X167232481Y-78868985D01*
X167351015Y-78987519D01*
X167444147Y-79126900D01*
X167508297Y-79281772D01*
X167541000Y-79446184D01*
X167541000Y-79613816D01*
X167508297Y-79778228D01*
X167444147Y-79933100D01*
X167351015Y-80072481D01*
X167232481Y-80191015D01*
X167093100Y-80284147D01*
X166938228Y-80348297D01*
X166773816Y-80381000D01*
X166606184Y-80381000D01*
X166441772Y-80348297D01*
X166286900Y-80284147D01*
X166147519Y-80191015D01*
X166028985Y-80072481D01*
X165935853Y-79933100D01*
X165871703Y-79778228D01*
X165839000Y-79613816D01*
X165839000Y-79446184D01*
X165871703Y-79281772D01*
X165935853Y-79126900D01*
X166028985Y-78987519D01*
X166147519Y-78868985D01*
X166286900Y-78775853D01*
X166441772Y-78711703D01*
X166606184Y-78679000D01*
X166773816Y-78679000D01*
X166938228Y-78711703D01*
X166938228Y-78711703D01*
G37*
G36*
X125214540Y-76915546D02*
G01*
X125387611Y-76987234D01*
X125387612Y-76987235D01*
X125543372Y-77091310D01*
X125675835Y-77223773D01*
X125675836Y-77223775D01*
X125779911Y-77379534D01*
X125851599Y-77552605D01*
X125888145Y-77736333D01*
X125888145Y-77923667D01*
X125851599Y-78107395D01*
X125779911Y-78280466D01*
X125779910Y-78280467D01*
X125675835Y-78436227D01*
X125543372Y-78568690D01*
X125464963Y-78621081D01*
X125387611Y-78672766D01*
X125214540Y-78744454D01*
X125030812Y-78781000D01*
X124843478Y-78781000D01*
X124659750Y-78744454D01*
X124486679Y-78672766D01*
X124409327Y-78621081D01*
X124330918Y-78568690D01*
X124198455Y-78436227D01*
X124094380Y-78280467D01*
X124094379Y-78280466D01*
X124022691Y-78107395D01*
X123986145Y-77923667D01*
X123986145Y-77736333D01*
X124022691Y-77552605D01*
X124094379Y-77379534D01*
X124198454Y-77223775D01*
X124198455Y-77223773D01*
X124330918Y-77091310D01*
X124486678Y-76987235D01*
X124486679Y-76987234D01*
X124659750Y-76915546D01*
X124843478Y-76879000D01*
X125030812Y-76879000D01*
X125214540Y-76915546D01*
X125214540Y-76915546D01*
G37*
G36*
X116257398Y-76915546D02*
G01*
X116430469Y-76987234D01*
X116430470Y-76987235D01*
X116586230Y-77091310D01*
X116718693Y-77223773D01*
X116718694Y-77223775D01*
X116822769Y-77379534D01*
X116894457Y-77552605D01*
X116931003Y-77736333D01*
X116931003Y-77923667D01*
X116894457Y-78107395D01*
X116822769Y-78280466D01*
X116822768Y-78280467D01*
X116718693Y-78436227D01*
X116586230Y-78568690D01*
X116507821Y-78621081D01*
X116430469Y-78672766D01*
X116257398Y-78744454D01*
X116073670Y-78781000D01*
X115886336Y-78781000D01*
X115702608Y-78744454D01*
X115529537Y-78672766D01*
X115452185Y-78621081D01*
X115373776Y-78568690D01*
X115241313Y-78436227D01*
X115137238Y-78280467D01*
X115137237Y-78280466D01*
X115065549Y-78107395D01*
X115029003Y-77923667D01*
X115029003Y-77736333D01*
X115065549Y-77552605D01*
X115137237Y-77379534D01*
X115241312Y-77223775D01*
X115241313Y-77223773D01*
X115373776Y-77091310D01*
X115529536Y-76987235D01*
X115529537Y-76987234D01*
X115702608Y-76915546D01*
X115886336Y-76879000D01*
X116073670Y-76879000D01*
X116257398Y-76915546D01*
X116257398Y-76915546D01*
G37*
G36*
X120735969Y-76915546D02*
G01*
X120909040Y-76987234D01*
X120909041Y-76987235D01*
X121064801Y-77091310D01*
X121197264Y-77223773D01*
X121197265Y-77223775D01*
X121301340Y-77379534D01*
X121373028Y-77552605D01*
X121409574Y-77736333D01*
X121409574Y-77923667D01*
X121373028Y-78107395D01*
X121301340Y-78280466D01*
X121301339Y-78280467D01*
X121197264Y-78436227D01*
X121064801Y-78568690D01*
X120986392Y-78621081D01*
X120909040Y-78672766D01*
X120735969Y-78744454D01*
X120552241Y-78781000D01*
X120364907Y-78781000D01*
X120181179Y-78744454D01*
X120008108Y-78672766D01*
X119930756Y-78621081D01*
X119852347Y-78568690D01*
X119719884Y-78436227D01*
X119615809Y-78280467D01*
X119615808Y-78280466D01*
X119544120Y-78107395D01*
X119507574Y-77923667D01*
X119507574Y-77736333D01*
X119544120Y-77552605D01*
X119615808Y-77379534D01*
X119719883Y-77223775D01*
X119719884Y-77223773D01*
X119852347Y-77091310D01*
X120008107Y-76987235D01*
X120008108Y-76987234D01*
X120181179Y-76915546D01*
X120364907Y-76879000D01*
X120552241Y-76879000D01*
X120735969Y-76915546D01*
X120735969Y-76915546D01*
G37*
G36*
X129693111Y-76915546D02*
G01*
X129866182Y-76987234D01*
X129866183Y-76987235D01*
X130021943Y-77091310D01*
X130154406Y-77223773D01*
X130154407Y-77223775D01*
X130258482Y-77379534D01*
X130330170Y-77552605D01*
X130366716Y-77736333D01*
X130366716Y-77923667D01*
X130330170Y-78107395D01*
X130258482Y-78280466D01*
X130258481Y-78280467D01*
X130154406Y-78436227D01*
X130021943Y-78568690D01*
X129943534Y-78621081D01*
X129866182Y-78672766D01*
X129693111Y-78744454D01*
X129509383Y-78781000D01*
X129322049Y-78781000D01*
X129138321Y-78744454D01*
X128965250Y-78672766D01*
X128887898Y-78621081D01*
X128809489Y-78568690D01*
X128677026Y-78436227D01*
X128572951Y-78280467D01*
X128572950Y-78280466D01*
X128501262Y-78107395D01*
X128464716Y-77923667D01*
X128464716Y-77736333D01*
X128501262Y-77552605D01*
X128572950Y-77379534D01*
X128677025Y-77223775D01*
X128677026Y-77223773D01*
X128809489Y-77091310D01*
X128965249Y-76987235D01*
X128965250Y-76987234D01*
X129138321Y-76915546D01*
X129322049Y-76879000D01*
X129509383Y-76879000D01*
X129693111Y-76915546D01*
X129693111Y-76915546D01*
G37*
G36*
X138650253Y-76915546D02*
G01*
X138823324Y-76987234D01*
X138823325Y-76987235D01*
X138979085Y-77091310D01*
X139111548Y-77223773D01*
X139111549Y-77223775D01*
X139215624Y-77379534D01*
X139287312Y-77552605D01*
X139323858Y-77736333D01*
X139323858Y-77923667D01*
X139287312Y-78107395D01*
X139215624Y-78280466D01*
X139215623Y-78280467D01*
X139111548Y-78436227D01*
X138979085Y-78568690D01*
X138900676Y-78621081D01*
X138823324Y-78672766D01*
X138650253Y-78744454D01*
X138466525Y-78781000D01*
X138279191Y-78781000D01*
X138095463Y-78744454D01*
X137922392Y-78672766D01*
X137845040Y-78621081D01*
X137766631Y-78568690D01*
X137634168Y-78436227D01*
X137530093Y-78280467D01*
X137530092Y-78280466D01*
X137458404Y-78107395D01*
X137421858Y-77923667D01*
X137421858Y-77736333D01*
X137458404Y-77552605D01*
X137530092Y-77379534D01*
X137634167Y-77223775D01*
X137634168Y-77223773D01*
X137766631Y-77091310D01*
X137922391Y-76987235D01*
X137922392Y-76987234D01*
X138095463Y-76915546D01*
X138279191Y-76879000D01*
X138466525Y-76879000D01*
X138650253Y-76915546D01*
X138650253Y-76915546D01*
G37*
G36*
X143128824Y-76915546D02*
G01*
X143301895Y-76987234D01*
X143301896Y-76987235D01*
X143457656Y-77091310D01*
X143590119Y-77223773D01*
X143590120Y-77223775D01*
X143694195Y-77379534D01*
X143765883Y-77552605D01*
X143802429Y-77736333D01*
X143802429Y-77923667D01*
X143765883Y-78107395D01*
X143694195Y-78280466D01*
X143694194Y-78280467D01*
X143590119Y-78436227D01*
X143457656Y-78568690D01*
X143379247Y-78621081D01*
X143301895Y-78672766D01*
X143128824Y-78744454D01*
X142945096Y-78781000D01*
X142757762Y-78781000D01*
X142574034Y-78744454D01*
X142400963Y-78672766D01*
X142323611Y-78621081D01*
X142245202Y-78568690D01*
X142112739Y-78436227D01*
X142008664Y-78280467D01*
X142008663Y-78280466D01*
X141936975Y-78107395D01*
X141900429Y-77923667D01*
X141900429Y-77736333D01*
X141936975Y-77552605D01*
X142008663Y-77379534D01*
X142112738Y-77223775D01*
X142112739Y-77223773D01*
X142245202Y-77091310D01*
X142400962Y-76987235D01*
X142400963Y-76987234D01*
X142574034Y-76915546D01*
X142757762Y-76879000D01*
X142945096Y-76879000D01*
X143128824Y-76915546D01*
X143128824Y-76915546D01*
G37*
G36*
X147607395Y-76915546D02*
G01*
X147780466Y-76987234D01*
X147780467Y-76987235D01*
X147936227Y-77091310D01*
X148068690Y-77223773D01*
X148068691Y-77223775D01*
X148172766Y-77379534D01*
X148244454Y-77552605D01*
X148281000Y-77736333D01*
X148281000Y-77923667D01*
X148244454Y-78107395D01*
X148172766Y-78280466D01*
X148172765Y-78280467D01*
X148068690Y-78436227D01*
X147936227Y-78568690D01*
X147857818Y-78621081D01*
X147780466Y-78672766D01*
X147607395Y-78744454D01*
X147423667Y-78781000D01*
X147236333Y-78781000D01*
X147052605Y-78744454D01*
X146879534Y-78672766D01*
X146802182Y-78621081D01*
X146723773Y-78568690D01*
X146591310Y-78436227D01*
X146487235Y-78280467D01*
X146487234Y-78280466D01*
X146415546Y-78107395D01*
X146379000Y-77923667D01*
X146379000Y-77736333D01*
X146415546Y-77552605D01*
X146487234Y-77379534D01*
X146591309Y-77223775D01*
X146591310Y-77223773D01*
X146723773Y-77091310D01*
X146879533Y-76987235D01*
X146879534Y-76987234D01*
X147052605Y-76915546D01*
X147236333Y-76879000D01*
X147423667Y-76879000D01*
X147607395Y-76915546D01*
X147607395Y-76915546D01*
G37*
G36*
X134171682Y-76915546D02*
G01*
X134344753Y-76987234D01*
X134344754Y-76987235D01*
X134500514Y-77091310D01*
X134632977Y-77223773D01*
X134632978Y-77223775D01*
X134737053Y-77379534D01*
X134808741Y-77552605D01*
X134845287Y-77736333D01*
X134845287Y-77923667D01*
X134808741Y-78107395D01*
X134737053Y-78280466D01*
X134737052Y-78280467D01*
X134632977Y-78436227D01*
X134500514Y-78568690D01*
X134422105Y-78621081D01*
X134344753Y-78672766D01*
X134171682Y-78744454D01*
X133987954Y-78781000D01*
X133800620Y-78781000D01*
X133616892Y-78744454D01*
X133443821Y-78672766D01*
X133366469Y-78621081D01*
X133288060Y-78568690D01*
X133155597Y-78436227D01*
X133051522Y-78280467D01*
X133051521Y-78280466D01*
X132979833Y-78107395D01*
X132943287Y-77923667D01*
X132943287Y-77736333D01*
X132979833Y-77552605D01*
X133051521Y-77379534D01*
X133155596Y-77223775D01*
X133155597Y-77223773D01*
X133288060Y-77091310D01*
X133443820Y-76987235D01*
X133443821Y-76987234D01*
X133616892Y-76915546D01*
X133800620Y-76879000D01*
X133987954Y-76879000D01*
X134171682Y-76915546D01*
X134171682Y-76915546D01*
G37*
G36*
X176641166Y-78676001D02*
G01*
X173539166Y-78676001D01*
X173539166Y-75574001D01*
X176641166Y-75574001D01*
X176641166Y-78676001D01*
X176641166Y-78676001D01*
G37*
G36*
X167541000Y-77881000D02*
G01*
X165839000Y-77881000D01*
X165839000Y-76179000D01*
X167541000Y-76179000D01*
X167541000Y-77881000D01*
X167541000Y-77881000D01*
G37*
G36*
X154733642Y-76259781D02*
G01*
X154879414Y-76320162D01*
X154879416Y-76320163D01*
X155010608Y-76407822D01*
X155122178Y-76519392D01*
X155209837Y-76650584D01*
X155209838Y-76650586D01*
X155270219Y-76796358D01*
X155301000Y-76951107D01*
X155301000Y-77108893D01*
X155270219Y-77263642D01*
X155209838Y-77409414D01*
X155209837Y-77409416D01*
X155122178Y-77540608D01*
X155010608Y-77652178D01*
X154879416Y-77739837D01*
X154879415Y-77739838D01*
X154879414Y-77739838D01*
X154733642Y-77800219D01*
X154578893Y-77831000D01*
X154421107Y-77831000D01*
X154266358Y-77800219D01*
X154120586Y-77739838D01*
X154120585Y-77739838D01*
X154120584Y-77739837D01*
X153989392Y-77652178D01*
X153877822Y-77540608D01*
X153790163Y-77409416D01*
X153790162Y-77409414D01*
X153729781Y-77263642D01*
X153699000Y-77108893D01*
X153699000Y-76951107D01*
X153729781Y-76796358D01*
X153790162Y-76650586D01*
X153790163Y-76650584D01*
X153877822Y-76519392D01*
X153989392Y-76407822D01*
X154120584Y-76320163D01*
X154120586Y-76320162D01*
X154266358Y-76259781D01*
X154421107Y-76229000D01*
X154578893Y-76229000D01*
X154733642Y-76259781D01*
X154733642Y-76259781D01*
G37*
G36*
X157233642Y-76259781D02*
G01*
X157379414Y-76320162D01*
X157379416Y-76320163D01*
X157510608Y-76407822D01*
X157622178Y-76519392D01*
X157709837Y-76650584D01*
X157709838Y-76650586D01*
X157770219Y-76796358D01*
X157801000Y-76951107D01*
X157801000Y-77108893D01*
X157770219Y-77263642D01*
X157709838Y-77409414D01*
X157709837Y-77409416D01*
X157622178Y-77540608D01*
X157510608Y-77652178D01*
X157379416Y-77739837D01*
X157379415Y-77739838D01*
X157379414Y-77739838D01*
X157233642Y-77800219D01*
X157078893Y-77831000D01*
X156921107Y-77831000D01*
X156766358Y-77800219D01*
X156620586Y-77739838D01*
X156620585Y-77739838D01*
X156620584Y-77739837D01*
X156489392Y-77652178D01*
X156377822Y-77540608D01*
X156290163Y-77409416D01*
X156290162Y-77409414D01*
X156229781Y-77263642D01*
X156199000Y-77108893D01*
X156199000Y-76951107D01*
X156229781Y-76796358D01*
X156290162Y-76650586D01*
X156290163Y-76650584D01*
X156377822Y-76519392D01*
X156489392Y-76407822D01*
X156620584Y-76320163D01*
X156620586Y-76320162D01*
X156766358Y-76259781D01*
X156921107Y-76229000D01*
X157078893Y-76229000D01*
X157233642Y-76259781D01*
X157233642Y-76259781D01*
G37*
G36*
X159733642Y-76259781D02*
G01*
X159879414Y-76320162D01*
X159879416Y-76320163D01*
X160010608Y-76407822D01*
X160122178Y-76519392D01*
X160209837Y-76650584D01*
X160209838Y-76650586D01*
X160270219Y-76796358D01*
X160301000Y-76951107D01*
X160301000Y-77108893D01*
X160270219Y-77263642D01*
X160209838Y-77409414D01*
X160209837Y-77409416D01*
X160122178Y-77540608D01*
X160010608Y-77652178D01*
X159879416Y-77739837D01*
X159879415Y-77739838D01*
X159879414Y-77739838D01*
X159733642Y-77800219D01*
X159578893Y-77831000D01*
X159421107Y-77831000D01*
X159266358Y-77800219D01*
X159120586Y-77739838D01*
X159120585Y-77739838D01*
X159120584Y-77739837D01*
X158989392Y-77652178D01*
X158877822Y-77540608D01*
X158790163Y-77409416D01*
X158790162Y-77409414D01*
X158729781Y-77263642D01*
X158699000Y-77108893D01*
X158699000Y-76951107D01*
X158729781Y-76796358D01*
X158790162Y-76650586D01*
X158790163Y-76650584D01*
X158877822Y-76519392D01*
X158989392Y-76407822D01*
X159120584Y-76320163D01*
X159120586Y-76320162D01*
X159266358Y-76259781D01*
X159421107Y-76229000D01*
X159578893Y-76229000D01*
X159733642Y-76259781D01*
X159733642Y-76259781D01*
G37*
G36*
X143802429Y-76241000D02*
G01*
X141900429Y-76241000D01*
X141900429Y-74339000D01*
X143802429Y-74339000D01*
X143802429Y-76241000D01*
X143802429Y-76241000D01*
G37*
G36*
X116931003Y-76241000D02*
G01*
X115029003Y-76241000D01*
X115029003Y-74339000D01*
X116931003Y-74339000D01*
X116931003Y-76241000D01*
X116931003Y-76241000D01*
G37*
G36*
X121409574Y-76241000D02*
G01*
X119507574Y-76241000D01*
X119507574Y-74339000D01*
X121409574Y-74339000D01*
X121409574Y-76241000D01*
X121409574Y-76241000D01*
G37*
G36*
X125888145Y-76241000D02*
G01*
X123986145Y-76241000D01*
X123986145Y-74339000D01*
X125888145Y-74339000D01*
X125888145Y-76241000D01*
X125888145Y-76241000D01*
G37*
G36*
X130366716Y-76241000D02*
G01*
X128464716Y-76241000D01*
X128464716Y-74339000D01*
X130366716Y-74339000D01*
X130366716Y-76241000D01*
X130366716Y-76241000D01*
G37*
G36*
X148281000Y-76241000D02*
G01*
X146379000Y-76241000D01*
X146379000Y-74339000D01*
X148281000Y-74339000D01*
X148281000Y-76241000D01*
X148281000Y-76241000D01*
G37*
G36*
X134845287Y-76241000D02*
G01*
X132943287Y-76241000D01*
X132943287Y-74339000D01*
X134845287Y-74339000D01*
X134845287Y-76241000D01*
X134845287Y-76241000D01*
G37*
G36*
X139323858Y-76241000D02*
G01*
X137421858Y-76241000D01*
X137421858Y-74339000D01*
X139323858Y-74339000D01*
X139323858Y-76241000D01*
X139323858Y-76241000D01*
G37*
M02*
